<svg xmlns="http://www.w3.org/2000/svg" viewBox="0 0 193.03 429.15"><defs><style>.cls-1{fill:#0db840;}.cls-2{fill:#e32911;}.cls-3,.cls-6{fill:none;stroke-linecap:round;stroke-linejoin:round;stroke-width:1.5px;}.cls-3{stroke:#fff;}.cls-4{fill:#dfe3e7;}.cls-5{fill:#79889a;}.cls-6{stroke:#79889a;}.cls-7{fill:#0c5db7;}</style></defs><title>DS-all-sprites</title><g id="Layer_2" data-name="Layer 2"><g id="Layer_1-2" data-name="Layer 1"><g id="Group_462" data-name="Group 462"><g id="Group_460" data-name="Group 460"><path id="Path_959" data-name="Path 959" class="cls-1" d="M1,340H41.15L47,360.2l-5.88,19.95H1L6.88,360.2Z"/><path id="Path_960" data-name="Path 960" class="cls-1" d="M49,340H89.15L95,360.2l-5.88,19.95H49l5.88-19.95Z"/><path id="Path_961" data-name="Path 961" class="cls-1" d="M97,340h40.15L143,360.2l-5.88,19.95H97l5.88-19.95Z"/><path id="Path_962" data-name="Path 962" class="cls-2" d="M145,340h40.15L191,360.2l-5.88,19.95H145l5.88-19.95Z"/><g id="legal-hammer"><path id="Path_914" data-name="Path 914" class="cls-3" d="M26.52,356.83l9.33,8.79a1.31,1.31,0,0,1,0,1.85h0l-.93.93a1.3,1.3,0,0,1-1.84,0h0l-8.79-9.33"/><path id="Path_915" data-name="Path 915" class="cls-3" d="M16.83,356.79a19.06,19.06,0,0,0,7.41-7.41,1.31,1.31,0,0,1,1.85,0h0l3.51,3.51a1.31,1.31,0,0,1,0,1.85h0a18.09,18.09,0,0,0-7.41,7.4,1.31,1.31,0,0,1-1.85,0h0l-3.51-3.51a1.31,1.31,0,0,1,0-1.85Z"/><path id="Path_916" data-name="Path 916" class="cls-3" d="M26,370h0a1.5,1.5,0,0,0-1.5-1.5H17a1.5,1.5,0,0,0-1.5,1.5h0v1.5H26Z"/><line id="Line_225" data-name="Line 225" class="cls-3" x1="14" y1="371.47" x2="27.5" y2="371.47"/></g><g id="check-shield"><path id="Path_935" data-name="Path 935" class="cls-3" d="M69.6,360.06l1.67,2.38a.73.73,0,0,0,1,.2.66.66,0,0,0,.17-.16l5.37-6.8"/><path id="Path_936" data-name="Path 936" class="cls-3" d="M67,353a1,1,0,0,0-1,1h0v6.16c0,3.3,5,7,6.64,8.06a1,1,0,0,0,1.1,0c1.69-1.09,6.64-4.76,6.64-8.06V354a1,1,0,0,0-1-1Z"/></g><g id="app-window-mail"><path id="Path_971" data-name="Path 971" class="cls-3" d="M177.41,355.55v8a2,2,0,0,1-2,2H163.49a2,2,0,0,1-2-2h0v-8"/><path id="Path_972" data-name="Path 972" class="cls-3" d="M177.41,355.55a2,2,0,0,0-2-2H163.49a2,2,0,0,0-2,2h0l6.9,4.32a2,2,0,0,0,2.11,0Z"/></g><g id="money-wallet"><path id="Path_973" data-name="Path 973" class="cls-3" d="M130.23,364.51v1.16a2.32,2.32,0,0,1-2.32,2.32H116.32a2.32,2.32,0,0,1-2.32-2.32h0v-8.11a2.32,2.32,0,0,1,2.32-2.32h11.59a2.32,2.32,0,0,1,2.32,2.32h0v1.16"/><path id="Path_974" data-name="Path 974" class="cls-3" d="M127.91,355.24l-1.8-3.6a1.17,1.17,0,0,0-1.56-.52l-8.23,4.12"/><path id="Path_975" data-name="Path 975" class="cls-3" d="M130.23,364.51a1.16,1.16,0,0,0,1.15-1.16v-3.47a1.16,1.16,0,0,0-1.15-1.16h-2.9a2.9,2.9,0,1,0-.25,5.79h3.15Z"/><path id="Path_976" data-name="Path 976" class="cls-3" d="M127.33,361.32a.29.29,0,1,1-.29.29.29.29,0,0,1,.29-.29h0"/></g></g><g id="Group_459" data-name="Group 459"><path id="Path_955" data-name="Path 955" class="cls-1" d="M2,243H42.15L48,263.2l-5.88,19.95H2L7.88,263.2Z"/><path id="Path_956" data-name="Path 956" class="cls-1" d="M50,243H90.15L96,263.2l-5.88,19.95H50l5.88-19.95Z"/><path id="Path_957" data-name="Path 957" class="cls-2" d="M98,243h40.15L144,263.2l-5.88,19.95H98l5.88-19.95Z"/><g id="Path_958" data-name="Path 958"><path class="cls-4" d="M185.4,282.15H147.34l5.5-18.66.08-.28-.08-.29L147.33,244H185.4L191,263.2Z"/><path class="cls-5" d="M148.67,245l5.13,17.64.17.57-.17.56-5.13,17.38h36L190,263.2l-5.3-18.2h-36M146,243h40.15L192,263.2l-5.88,19.95H146l5.88-19.95Z"/></g><g id="legal-hammer-2"><path id="Path_914-2" data-name="Path 914-2" class="cls-3" d="M27.52,259.83l9.33,8.79a1.31,1.31,0,0,1,0,1.85h0l-.93.93a1.3,1.3,0,0,1-1.84,0h0l-8.79-9.33"/><path id="Path_915-2" data-name="Path 915-2" class="cls-3" d="M17.83,259.79a19.06,19.06,0,0,0,7.41-7.41,1.31,1.31,0,0,1,1.85,0h0l3.51,3.51a1.31,1.31,0,0,1,0,1.85h0a18.09,18.09,0,0,0-7.41,7.4,1.31,1.31,0,0,1-1.85,0h0l-3.51-3.51a1.31,1.31,0,0,1,0-1.85Z"/><path id="Path_916-2" data-name="Path 916-2" class="cls-3" d="M27,273h0a1.5,1.5,0,0,0-1.5-1.5H18a1.5,1.5,0,0,0-1.5,1.5h0v1.5H27Z"/><line id="Line_225-2" data-name="Line 225-2" class="cls-3" x1="15" y1="274.47" x2="28.5" y2="274.47"/></g><g id="check-shield-2"><path id="Path_935-2" data-name="Path 935-2" class="cls-3" d="M70.6,263.06l1.67,2.38a.73.73,0,0,0,1,.2.66.66,0,0,0,.17-.16l5.37-6.8"/><path id="Path_936-2" data-name="Path 936-2" class="cls-3" d="M68,256a1,1,0,0,0-1,1h0v6.16c0,3.3,5,7,6.64,8.06a1,1,0,0,0,1.1,0c1.69-1.09,6.64-4.76,6.64-8.06V257a1,1,0,0,0-1-1Z"/></g><g id="money-wallet-2"><path id="Path_973-2" data-name="Path 973-2" class="cls-3" d="M131.23,266.51v1.16a2.32,2.32,0,0,1-2.32,2.32H117.32a2.32,2.32,0,0,1-2.32-2.32h0v-8.11a2.32,2.32,0,0,1,2.32-2.32h11.59a2.32,2.32,0,0,1,2.32,2.32h0v1.16"/><path id="Path_974-2" data-name="Path 974-2" class="cls-3" d="M128.91,257.24l-1.8-3.6a1.17,1.17,0,0,0-1.56-.52l-8.23,4.12"/><path id="Path_975-2" data-name="Path 975-2" class="cls-3" d="M131.23,266.51a1.16,1.16,0,0,0,1.15-1.16v-3.47a1.16,1.16,0,0,0-1.15-1.16h-2.9a2.9,2.9,0,1,0-.25,5.79h3.15Z"/><path id="Path_976-2" data-name="Path 976-2" class="cls-3" d="M128.33,263.32a.29.29,0,1,1-.29.29.29.29,0,0,1,.29-.29h0"/></g><g id="app-window-mail-2"><path id="Path_971-2" data-name="Path 971-2" class="cls-6" d="M178.41,258.55v8a2,2,0,0,1-2,2H164.49a2,2,0,0,1-2-2h0v-8"/><path id="Path_972-2" data-name="Path 972-2" class="cls-6" d="M178.41,258.55a2,2,0,0,0-2-2H164.49a2,2,0,0,0-2,2h0l6.9,4.32a2,2,0,0,0,2.11,0Z"/></g></g><g id="Group_458" data-name="Group 458"><path id="Path_951" data-name="Path 951" class="cls-1" d="M3,146H43.15L49,166.2l-5.88,20H3l5.88-20Z"/><path id="Path_952" data-name="Path 952" class="cls-2" d="M51,146H91.15L97,166.2l-5.88,20H51l5.88-20Z"/><g id="Path_953" data-name="Path 953"><path class="cls-4" d="M138.4,185.15H100.34l5.5-18.66.08-.28-.08-.29L100.33,147H138.4L144,166.2Z"/><path class="cls-5" d="M101.67,148l5.13,17.64.17.57-.17.56-5.13,17.38h36l5.29-18-5.3-18.2h-36M99,146h40.15L145,166.2l-5.88,20H99l5.88-20Z"/></g><g id="Path_954" data-name="Path 954"><path class="cls-4" d="M186.4,185.15H148.34l5.5-18.66.08-.28-.08-.29L148.33,147H186.4L192,166.2Z"/><path class="cls-5" d="M149.67,148l5.13,17.64.17.57-.17.56-5.13,17.38h36l5.29-18-5.3-18.2h-36M147,146h40.15L193,166.2l-5.88,20H147l5.88-20Z"/></g><g id="legal-hammer-3"><path id="Path_914-3" data-name="Path 914-3" class="cls-3" d="M28.52,162.83l9.33,8.79a1.31,1.31,0,0,1,0,1.85h0l-.93.93a1.3,1.3,0,0,1-1.84,0h0l-8.79-9.33"/><path id="Path_915-3" data-name="Path 915-3" class="cls-3" d="M18.83,162.79a19.06,19.06,0,0,0,7.41-7.41,1.31,1.31,0,0,1,1.85,0h0l3.51,3.51a1.31,1.31,0,0,1,0,1.85h0a18.09,18.09,0,0,0-7.41,7.4,1.31,1.31,0,0,1-1.85,0h0l-3.51-3.51a1.31,1.31,0,0,1,0-1.85Z"/><path id="Path_916-3" data-name="Path 916-3" class="cls-3" d="M28,176h0a1.5,1.5,0,0,0-1.5-1.5H19a1.5,1.5,0,0,0-1.5,1.5h0v1.5H28Z"/><line id="Line_225-3" data-name="Line 225-3" class="cls-3" x1="16" y1="177.47" x2="29.5" y2="177.47"/></g><g id="check-shield-3"><path id="Path_935-3" data-name="Path 935-3" class="cls-3" d="M71.6,166.06l1.67,2.38a.73.73,0,0,0,1,.2.66.66,0,0,0,.17-.16l5.37-6.8"/><path id="Path_936-3" data-name="Path 936-3" class="cls-3" d="M69,159a1,1,0,0,0-1,1h0v6.16c0,3.3,5,7,6.64,8.06a1,1,0,0,0,1.1,0c1.69-1.09,6.64-4.76,6.64-8.06V160a1,1,0,0,0-1-1Z"/></g><g id="app-window-mail-3"><path id="Path_971-3" data-name="Path 971-3" class="cls-6" d="M179.41,161.55v8a2,2,0,0,1-2,2H165.49a2,2,0,0,1-2-2h0v-8"/><path id="Path_972-3" data-name="Path 972-3" class="cls-6" d="M179.41,161.55a2,2,0,0,0-2-2H165.49a2,2,0,0,0-2,2h0l6.9,4.32a2,2,0,0,0,2.11,0Z"/></g><g id="money-wallet-3"><path id="Path_973-3" data-name="Path 973-3" class="cls-6" d="M132.23,170.51v1.16a2.32,2.32,0,0,1-2.32,2.32H118.32a2.32,2.32,0,0,1-2.32-2.32h0v-8.11a2.32,2.32,0,0,1,2.32-2.32h11.59a2.32,2.32,0,0,1,2.32,2.32h0v1.16"/><path id="Path_974-3" data-name="Path 974-3" class="cls-6" d="M129.91,161.24l-1.8-3.6a1.17,1.17,0,0,0-1.56-.52l-8.23,4.12"/><path id="Path_975-3" data-name="Path 975-3" class="cls-6" d="M132.23,170.51a1.16,1.16,0,0,0,1.15-1.16v-3.47a1.16,1.16,0,0,0-1.15-1.16h-2.9a2.9,2.9,0,1,0-.25,5.79,1,1,0,0,0,.25,0Z"/><path id="Path_976-3" data-name="Path 976-3" class="cls-6" d="M129.33,167.32a.29.29,0,1,1-.29.29.29.29,0,0,1,.29-.29h0"/></g></g><g id="Group_457" data-name="Group 457"><path id="Path_967" data-name="Path 967" class="cls-2" d="M2,49H42.15L48,69.2l-5.88,20H2l5.88-20Z"/><g id="Path_968" data-name="Path 968"><path class="cls-4" d="M89.4,88.15H51.34l5.5-18.66.08-.28-.08-.29L51.33,50H89.4L95,69.2Z"/><path class="cls-5" d="M52.67,51,57.8,68.64l.17.57-.17.56L52.67,87.15h36L94,69.2,88.65,51h-36M50,49H90.15L96,69.2l-5.88,20H50l5.88-20Z"/></g><g id="Path_969" data-name="Path 969"><path class="cls-4" d="M137.4,88.15H99.34l5.5-18.66.08-.28-.08-.29L99.33,50H137.4L143,69.2Z"/><path class="cls-5" d="M100.67,51l5.13,17.64.17.57-.17.56-5.13,17.38h36l5.29-18L136.65,51h-36M98,49h40.15L144,69.2l-5.88,20H98l5.88-20Z"/></g><g id="Path_970" data-name="Path 970"><path class="cls-4" d="M185.4,88.15H147.34l5.5-18.66.08-.28-.08-.29L147.33,50H185.4L191,69.2Z"/><path class="cls-5" d="M148.67,51l5.13,17.64.17.57-.17.56-5.13,17.38h36l5.29-18L184.65,51h-36M146,49h40.15L192,69.2l-5.88,20H146l5.88-20Z"/></g><g id="legal-hammer-4"><path id="Path_914-4" data-name="Path 914-4" class="cls-3" d="M27.52,65.83l9.33,8.79a1.31,1.31,0,0,1,0,1.85h0l-.93.93a1.3,1.3,0,0,1-1.84,0h0l-8.79-9.33"/><path id="Path_915-4" data-name="Path 915-4" class="cls-3" d="M17.83,65.79a19.06,19.06,0,0,0,7.41-7.41,1.31,1.31,0,0,1,1.85,0h0l3.51,3.51a1.31,1.31,0,0,1,0,1.85h0a18.09,18.09,0,0,0-7.41,7.4,1.31,1.31,0,0,1-1.85,0h0l-3.51-3.51a1.31,1.31,0,0,1,0-1.85Z"/><path id="Path_916-4" data-name="Path 916-4" class="cls-3" d="M27,79h0a1.5,1.5,0,0,0-1.5-1.5H18A1.5,1.5,0,0,0,16.5,79h0v1.5H27Z"/><line id="Line_225-4" data-name="Line 225-4" class="cls-3" x1="15" y1="80.47" x2="28.5" y2="80.47"/></g><g id="check-shield-4"><path id="Path_935-4" data-name="Path 935-4" class="cls-6" d="M70.6,69.06l1.67,2.38a.73.73,0,0,0,1,.2.66.66,0,0,0,.17-.16l5.37-6.8"/><path id="Path_936-4" data-name="Path 936-4" class="cls-6" d="M68,62a1,1,0,0,0-1,1h0v6.16c0,3.3,5,7,6.64,8.06a1,1,0,0,0,1.1,0c1.69-1.09,6.64-4.76,6.64-8.06V63a1,1,0,0,0-1-1Z"/></g><g id="app-window-mail-4"><path id="Path_971-4" data-name="Path 971-4" class="cls-6" d="M178.41,64.55v8a2,2,0,0,1-2,2H164.49a2,2,0,0,1-2-2h0v-8"/><path id="Path_972-4" data-name="Path 972-4" class="cls-6" d="M178.41,64.55a2,2,0,0,0-2-2H164.49a2,2,0,0,0-2,2h0l6.9,4.32a2,2,0,0,0,2.11,0Z"/></g><g id="money-wallet-4"><path id="Path_973-4" data-name="Path 973-4" class="cls-6" d="M131.23,73.51v1.16A2.32,2.32,0,0,1,128.91,77H117.32A2.32,2.32,0,0,1,115,74.67h0V66.56a2.32,2.32,0,0,1,2.32-2.32h11.59a2.32,2.32,0,0,1,2.32,2.32h0v1.16"/><path id="Path_974-4" data-name="Path 974-4" class="cls-6" d="M128.91,64.24l-1.8-3.6a1.17,1.17,0,0,0-1.56-.52l-8.23,4.12"/><path id="Path_975-4" data-name="Path 975-4" class="cls-6" d="M131.23,73.51a1.16,1.16,0,0,0,1.15-1.16V68.88a1.16,1.16,0,0,0-1.15-1.16h-2.9a2.9,2.9,0,0,0-.25,5.79h3.15Z"/><path id="Path_976-4" data-name="Path 976-4" class="cls-6" d="M128.33,70.32a.29.29,0,1,1-.29.29.29.29,0,0,1,.29-.29h0"/></g></g><path id="Path_1146" data-name="Path 1146" class="cls-7" d="M2,0H42.15L48,20.2l-5.88,20H2L7.88,20.2Z"/><g id="Path_1147" data-name="Path 1147"><path class="cls-4" d="M89.4,39.15H51.34l5.5-18.66.08-.28-.08-.29L51.33,1H89.4L95,20.2Z"/><path class="cls-5" d="M52.67,2,57.8,19.64l.17.57-.17.56L52.67,38.15h36L94,20.2,88.65,2h-36M50,0H90.15L96,20.2l-5.88,20H50L55.88,20.2Z"/></g><g id="Path_1148" data-name="Path 1148"><path class="cls-4" d="M137.4,39.15H99.34l5.5-18.66.08-.28-.08-.29L99.33,1H137.4L143,20.2Z"/><path class="cls-5" d="M100.67,2l5.13,17.64.17.57-.17.56-5.13,17.38h36L142,20.2,136.65,2h-36M98,0h40.15L144,20.2l-5.88,20H98l5.88-19.95Z"/></g><g id="Path_1149" data-name="Path 1149"><path class="cls-4" d="M185.4,39.15H147.34l5.5-18.66.08-.28-.08-.29L147.33,1H185.4L191,20.2Z"/><path class="cls-5" d="M148.67,2l5.13,17.64.17.57-.17.56-5.13,17.38h36L190,20.2,184.65,2h-36M146,0h40.15L192,20.2l-5.88,20H146l5.88-19.95Z"/></g><g id="legal-hammer-5"><path id="Path_914-5" data-name="Path 914-5" class="cls-3" d="M27.52,16.83l9.33,8.79a1.31,1.31,0,0,1,0,1.85h0l-.93.93a1.3,1.3,0,0,1-1.84,0h0l-8.79-9.33"/><path id="Path_915-5" data-name="Path 915-5" class="cls-3" d="M17.83,16.79a19.06,19.06,0,0,0,7.41-7.41,1.31,1.31,0,0,1,1.85,0h0l3.51,3.51a1.31,1.31,0,0,1,0,1.85h0a18.09,18.09,0,0,0-7.41,7.4,1.31,1.31,0,0,1-1.85,0h0l-3.51-3.51a1.31,1.31,0,0,1,0-1.85Z"/><path id="Path_916-5" data-name="Path 916-5" class="cls-3" d="M27,30h0a1.5,1.5,0,0,0-1.5-1.5H18A1.5,1.5,0,0,0,16.5,30h0v1.5H27Z"/><line id="Line_225-5" data-name="Line 225-5" class="cls-3" x1="15" y1="31.47" x2="28.5" y2="31.47"/></g><g id="check-shield-5"><path id="Path_935-5" data-name="Path 935-5" class="cls-6" d="M70.6,20.06l1.67,2.38a.73.73,0,0,0,1,.2.66.66,0,0,0,.17-.16l5.37-6.8"/><path id="Path_936-5" data-name="Path 936-5" class="cls-6" d="M68,13a1,1,0,0,0-1,1h0v6.16c0,3.3,5,7,6.64,8.06a1,1,0,0,0,1.1,0c1.69-1.09,6.64-4.76,6.64-8.06V14a1,1,0,0,0-1-1Z"/></g><path id="Path_1150" data-name="Path 1150" class="cls-1" d="M3,98H43.15L49,118.2l-5.88,20H3l5.88-20Z"/><path id="Path_1151" data-name="Path 1151" class="cls-7" d="M51,98H91.15L97,118.2l-5.88,20H51l5.88-20Z"/><g id="Path_1152" data-name="Path 1152"><path class="cls-4" d="M138.4,137.15H100.34l5.5-18.66.08-.28-.08-.29L100.33,99H138.4L144,118.2Z"/><path class="cls-5" d="M101.67,100l5.13,17.64.17.57-.17.56-5.13,17.38h36l5.29-18-5.3-18.2h-36M99,98h40.15L145,118.2l-5.88,20H99l5.88-20Z"/></g><g id="Path_1153" data-name="Path 1153"><path class="cls-4" d="M186.4,137.15H148.34l5.5-18.66.08-.28-.08-.29L148.33,99H186.4L192,118.2Z"/><path class="cls-5" d="M149.67,100l5.13,17.64.17.57-.17.56-5.13,17.38h36l5.29-18-5.3-18.2h-36M147,98h40.15L193,118.2l-5.88,20H147l5.88-20Z"/></g><g id="legal-hammer-6"><path id="Path_914-6" data-name="Path 914-6" class="cls-3" d="M28.52,114.83l9.33,8.79a1.31,1.31,0,0,1,0,1.85h0l-.93.93a1.3,1.3,0,0,1-1.84,0h0l-8.79-9.33"/><path id="Path_915-6" data-name="Path 915-6" class="cls-3" d="M18.83,114.79a19.06,19.06,0,0,0,7.41-7.41,1.31,1.31,0,0,1,1.85,0h0l3.51,3.51a1.31,1.31,0,0,1,0,1.85h0a18.09,18.09,0,0,0-7.41,7.4,1.31,1.31,0,0,1-1.85,0h0l-3.51-3.51a1.31,1.31,0,0,1,0-1.85Z"/><path id="Path_916-6" data-name="Path 916-6" class="cls-3" d="M28,128h0a1.5,1.5,0,0,0-1.5-1.5H19a1.5,1.5,0,0,0-1.5,1.5h0v1.5H28Z"/><line id="Line_225-6" data-name="Line 225-6" class="cls-3" x1="16" y1="129.47" x2="29.5" y2="129.47"/></g><g id="check-shield-6"><path id="Path_935-6" data-name="Path 935-6" class="cls-3" d="M71.6,118.06l1.67,2.38a.73.73,0,0,0,1,.2.66.66,0,0,0,.17-.16l5.37-6.8"/><path id="Path_936-6" data-name="Path 936-6" class="cls-3" d="M69,111a1,1,0,0,0-1,1h0v6.16c0,3.3,5,7,6.64,8.06a1,1,0,0,0,1.1,0c1.69-1.09,6.64-4.76,6.64-8.06V112a1,1,0,0,0-1-1Z"/></g><path id="Path_1154" data-name="Path 1154" class="cls-1" d="M1,292H41.15L47,312.2l-5.88,19.95H1L6.88,312.2Z"/><path id="Path_1155" data-name="Path 1155" class="cls-1" d="M49,292H89.15L95,312.2l-5.88,19.95H49l5.88-19.95Z"/><path id="Path_1156" data-name="Path 1156" class="cls-1" d="M97,292h40.15L143,312.2l-5.88,19.95H97l5.88-19.95Z"/><path id="Path_1157" data-name="Path 1157" class="cls-7" d="M145,292h40.15L191,312.2l-5.88,19.95H145l5.88-19.95Z"/><g id="legal-hammer-7"><path id="Path_914-7" data-name="Path 914-7" class="cls-3" d="M26.52,308.83l9.33,8.79a1.31,1.31,0,0,1,0,1.85h0l-.93.93a1.3,1.3,0,0,1-1.84,0h0l-8.79-9.33"/><path id="Path_915-7" data-name="Path 915-7" class="cls-3" d="M16.83,308.79a19.06,19.06,0,0,0,7.41-7.41,1.31,1.31,0,0,1,1.85,0h0l3.51,3.51a1.31,1.31,0,0,1,0,1.85h0a18.09,18.09,0,0,0-7.41,7.4,1.31,1.31,0,0,1-1.85,0h0l-3.51-3.51a1.31,1.31,0,0,1,0-1.85Z"/><path id="Path_916-7" data-name="Path 916-7" class="cls-3" d="M26,322h0a1.5,1.5,0,0,0-1.5-1.5H17a1.5,1.5,0,0,0-1.5,1.5h0v1.5H26Z"/><line id="Line_225-7" data-name="Line 225-7" class="cls-3" x1="14" y1="323.47" x2="27.5" y2="323.47"/></g><g id="check-shield-7"><path id="Path_935-7" data-name="Path 935-7" class="cls-3" d="M69.6,312.06l1.67,2.38a.73.73,0,0,0,1,.2.66.66,0,0,0,.17-.16l5.37-6.8"/><path id="Path_936-7" data-name="Path 936-7" class="cls-3" d="M67,305a1,1,0,0,0-1,1h0v6.16c0,3.3,5,7,6.64,8.06a1,1,0,0,0,1.1,0c1.69-1.09,6.64-4.76,6.64-8.06V306a1,1,0,0,0-1-1Z"/></g><g id="app-window-mail-5"><path id="Path_971-5" data-name="Path 971-5" class="cls-3" d="M177.41,307.55v8a2,2,0,0,1-2,2H163.49a2,2,0,0,1-2-2h0v-8"/><path id="Path_972-5" data-name="Path 972-5" class="cls-3" d="M177.41,307.55a2,2,0,0,0-2-2H163.49a2,2,0,0,0-2,2h0l6.9,4.32a2,2,0,0,0,2.11,0Z"/></g><g id="money-wallet-5"><path id="Path_973-5" data-name="Path 973-5" class="cls-3" d="M130.23,316.51v1.16a2.32,2.32,0,0,1-2.32,2.32H116.32a2.32,2.32,0,0,1-2.32-2.32h0v-8.11a2.32,2.32,0,0,1,2.32-2.32h11.59a2.32,2.32,0,0,1,2.32,2.32h0v1.16"/><path id="Path_974-5" data-name="Path 974-5" class="cls-3" d="M127.91,307.24l-1.8-3.6a1.17,1.17,0,0,0-1.56-.52l-8.23,4.12"/><path id="Path_975-5" data-name="Path 975-5" class="cls-3" d="M130.23,316.51a1.16,1.16,0,0,0,1.15-1.16v-3.47a1.16,1.16,0,0,0-1.15-1.16h-2.9a2.9,2.9,0,1,0-.25,5.79h3.15Z"/><path id="Path_976-5" data-name="Path 976-5" class="cls-3" d="M127.33,313.32a.29.29,0,1,1-.29.29.29.29,0,0,1,.29-.29h0"/></g><path id="Path_1158" data-name="Path 1158" class="cls-1" d="M2,195H42.15L48,215.2l-5.88,20H2l5.88-20Z"/><path id="Path_1159" data-name="Path 1159" class="cls-1" d="M50,195H90.15L96,215.2l-5.88,20H50l5.88-20Z"/><path id="Path_1160" data-name="Path 1160" class="cls-7" d="M98,195h40.15L144,215.2l-5.88,20H98l5.88-20Z"/><g id="Path_1161" data-name="Path 1161"><path class="cls-4" d="M185.4,234.15H147.34l5.5-18.66.08-.28-.08-.29L147.33,196H185.4L191,215.2Z"/><path class="cls-5" d="M148.67,197l5.13,17.64.17.57-.17.56-5.13,17.38h36l5.29-18-5.3-18.2h-36M146,195h40.15L192,215.2l-5.88,20H146l5.88-20Z"/></g><g id="legal-hammer-8"><path id="Path_914-8" data-name="Path 914-8" class="cls-3" d="M27.52,211.83l9.33,8.79a1.31,1.31,0,0,1,0,1.85h0l-.93.93a1.3,1.3,0,0,1-1.84,0h0l-8.79-9.33"/><path id="Path_915-8" data-name="Path 915-8" class="cls-3" d="M17.83,211.79a19.06,19.06,0,0,0,7.41-7.41,1.31,1.31,0,0,1,1.85,0h0l3.51,3.51a1.31,1.31,0,0,1,0,1.85h0a18.09,18.09,0,0,0-7.41,7.4,1.31,1.31,0,0,1-1.85,0h0l-3.51-3.51a1.31,1.31,0,0,1,0-1.85Z"/><path id="Path_916-8" data-name="Path 916-8" class="cls-3" d="M27,225h0a1.5,1.5,0,0,0-1.5-1.5H18a1.5,1.5,0,0,0-1.5,1.5h0v1.5H27Z"/><line id="Line_225-8" data-name="Line 225-8" class="cls-3" x1="15" y1="226.47" x2="28.5" y2="226.47"/></g><g id="check-shield-8"><path id="Path_935-8" data-name="Path 935-8" class="cls-3" d="M70.6,215.06l1.67,2.38a.73.73,0,0,0,1,.2.66.66,0,0,0,.17-.16l5.37-6.8"/><path id="Path_936-8" data-name="Path 936-8" class="cls-3" d="M68,208a1,1,0,0,0-1,1h0v6.16c0,3.3,5,7,6.64,8.06a1,1,0,0,0,1.1,0c1.69-1.09,6.64-4.76,6.64-8.06V209a1,1,0,0,0-1-1Z"/></g><g id="money-wallet-6"><path id="Path_973-6" data-name="Path 973-6" class="cls-3" d="M131.23,218.51v1.16a2.32,2.32,0,0,1-2.32,2.32H117.32a2.32,2.32,0,0,1-2.32-2.32h0v-8.11a2.32,2.32,0,0,1,2.32-2.32h11.59a2.32,2.32,0,0,1,2.32,2.32h0v1.16"/><path id="Path_974-6" data-name="Path 974-6" class="cls-3" d="M128.91,209.24l-1.8-3.6a1.17,1.17,0,0,0-1.56-.52l-8.23,4.12"/><path id="Path_975-6" data-name="Path 975-6" class="cls-3" d="M131.23,218.51a1.16,1.16,0,0,0,1.15-1.16v-3.47a1.16,1.16,0,0,0-1.15-1.16h-2.9a2.9,2.9,0,1,0-.25,5.79,1,1,0,0,0,.25,0Z"/><path id="Path_976-6" data-name="Path 976-6" class="cls-3" d="M128.33,215.32a.29.29,0,1,1-.29.29.29.29,0,0,1,.29-.29h0"/></g><g id="app-window-mail-6"><path id="Path_971-6" data-name="Path 971-6" class="cls-6" d="M178.41,210.55v8a2,2,0,0,1-2,2H164.49a2,2,0,0,1-2-2h0v-8"/><path id="Path_972-6" data-name="Path 972-6" class="cls-6" d="M178.41,210.55a2,2,0,0,0-2-2H164.49a2,2,0,0,0-2,2h0l6.9,4.32a2,2,0,0,0,2.11,0Z"/></g><g id="app-window-mail-7"><path id="Path_971-7" data-name="Path 971-7" class="cls-6" d="M179.41,113.55v8a2,2,0,0,1-2,2H165.49a2,2,0,0,1-2-2h0v-8"/><path id="Path_972-7" data-name="Path 972-7" class="cls-6" d="M179.41,113.55a2,2,0,0,0-2-2H165.49a2,2,0,0,0-2,2h0l6.9,4.32a2,2,0,0,0,2.11,0Z"/></g><g id="money-wallet-7"><path id="Path_973-7" data-name="Path 973-7" class="cls-6" d="M132.23,122.51v1.16a2.32,2.32,0,0,1-2.32,2.32H118.32a2.32,2.32,0,0,1-2.32-2.32h0v-8.11a2.32,2.32,0,0,1,2.32-2.32h11.59a2.32,2.32,0,0,1,2.32,2.32h0v1.16"/><path id="Path_974-7" data-name="Path 974-7" class="cls-6" d="M129.91,113.24l-1.8-3.6a1.17,1.17,0,0,0-1.56-.52l-8.23,4.12"/><path id="Path_975-7" data-name="Path 975-7" class="cls-6" d="M132.23,122.51a1.16,1.16,0,0,0,1.15-1.16v-3.47a1.16,1.16,0,0,0-1.15-1.16h-2.9a2.9,2.9,0,0,0-.25,5.79h3.15Z"/><path id="Path_976-7" data-name="Path 976-7" class="cls-6" d="M129.33,119.32a.29.29,0,1,1-.29.29.29.29,0,0,1,.29-.29h0"/></g><g id="app-window-mail-8"><path id="Path_971-8" data-name="Path 971-8" class="cls-6" d="M178.41,16.55v8a2,2,0,0,1-2,2H164.49a2,2,0,0,1-2-2h0v-8"/><path id="Path_972-8" data-name="Path 972-8" class="cls-6" d="M178.41,16.55a2,2,0,0,0-2-2H164.49a2,2,0,0,0-2,2h0l6.9,4.32a2,2,0,0,0,2.11,0Z"/></g><g id="money-wallet-8"><path id="Path_973-8" data-name="Path 973-8" class="cls-6" d="M131.23,25.51v1.16A2.32,2.32,0,0,1,128.91,29H117.32A2.32,2.32,0,0,1,115,26.67h0V18.56a2.32,2.32,0,0,1,2.32-2.32h11.59a2.32,2.32,0,0,1,2.32,2.32h0v1.16"/><path id="Path_974-8" data-name="Path 974-8" class="cls-6" d="M128.91,16.24l-1.8-3.6a1.17,1.17,0,0,0-1.56-.52l-8.23,4.12"/><path id="Path_975-8" data-name="Path 975-8" class="cls-6" d="M131.23,25.51a1.16,1.16,0,0,0,1.15-1.16V20.88a1.16,1.16,0,0,0-1.15-1.16h-2.9a2.9,2.9,0,1,0-.25,5.79h3.15Z"/><path id="Path_976-8" data-name="Path 976-8" class="cls-6" d="M128.33,22.32a.29.29,0,1,1-.29.29.29.29,0,0,1,.29-.29h0"/></g><g id="Group_461" data-name="Group 461"><path id="Path_959-2" data-name="Path 959-2" class="cls-1" d="M0,389H40.15L46,409.2l-5.88,19.95H0L5.88,409.2Z"/><path id="Path_960-2" data-name="Path 960-2" class="cls-1" d="M48,389H88.15L94,409.2l-5.88,19.95H48l5.88-19.95Z"/><path id="Path_961-2" data-name="Path 961-2" class="cls-1" d="M96,389h40.15L142,409.2l-5.88,19.95H96l5.88-19.95Z"/><path id="Path_962-2" data-name="Path 962-2" class="cls-1" d="M144,389h40.15L190,409.2l-5.88,19.95H144l5.88-19.95Z"/><g id="legal-hammer-9"><path id="Path_914-9" data-name="Path 914-9" class="cls-3" d="M25.52,405.83l9.33,8.79a1.31,1.31,0,0,1,0,1.85h0l-.93.93a1.3,1.3,0,0,1-1.84,0h0l-8.79-9.33"/><path id="Path_915-9" data-name="Path 915-9" class="cls-3" d="M15.83,405.79a19.06,19.06,0,0,0,7.41-7.41,1.31,1.31,0,0,1,1.85,0h0l3.51,3.51a1.31,1.31,0,0,1,0,1.85h0a18.09,18.09,0,0,0-7.41,7.4,1.31,1.31,0,0,1-1.85,0h0l-3.51-3.51a1.31,1.31,0,0,1,0-1.85Z"/><path id="Path_916-9" data-name="Path 916-9" class="cls-3" d="M25,419h0a1.5,1.5,0,0,0-1.5-1.5H16a1.5,1.5,0,0,0-1.5,1.5h0v1.5H25Z"/><line id="Line_225-9" data-name="Line 225-9" class="cls-3" x1="13" y1="420.47" x2="26.5" y2="420.47"/></g><g id="check-shield-9"><path id="Path_935-9" data-name="Path 935-9" class="cls-3" d="M68.6,409.06l1.67,2.38a.73.73,0,0,0,1,.2.66.66,0,0,0,.17-.16l5.37-6.8"/><path id="Path_936-9" data-name="Path 936-9" class="cls-3" d="M66,402a1,1,0,0,0-1,1h0v6.16c0,3.3,5,7,6.64,8.06a1,1,0,0,0,1.1,0c1.69-1.09,6.64-4.76,6.64-8.06V403a1,1,0,0,0-1-1Z"/></g><g id="app-window-mail-9"><path id="Path_971-9" data-name="Path 971-9" class="cls-3" d="M176.41,404.55v8a2,2,0,0,1-2,2H162.49a2,2,0,0,1-2-2h0v-8"/><path id="Path_972-9" data-name="Path 972-9" class="cls-3" d="M176.41,404.55a2,2,0,0,0-2-2H162.49a2,2,0,0,0-2,2h0l6.9,4.32a2,2,0,0,0,2.11,0Z"/></g><g id="money-wallet-9"><path id="Path_973-9" data-name="Path 973-9" class="cls-3" d="M129.23,413.51v1.16a2.32,2.32,0,0,1-2.32,2.32H115.32a2.32,2.32,0,0,1-2.32-2.32h0v-8.11a2.32,2.32,0,0,1,2.32-2.32h11.59a2.32,2.32,0,0,1,2.32,2.32h0v1.16"/><path id="Path_974-9" data-name="Path 974-9" class="cls-3" d="M126.91,404.24l-1.8-3.6a1.17,1.17,0,0,0-1.56-.52l-8.23,4.12"/><path id="Path_975-9" data-name="Path 975-9" class="cls-3" d="M129.23,413.51a1.16,1.16,0,0,0,1.15-1.16v-3.47a1.16,1.16,0,0,0-1.15-1.16h-2.9a2.9,2.9,0,0,0-.25,5.79h3.15Z"/><path id="Path_976-9" data-name="Path 976-9" class="cls-3" d="M126.33,410.32a.29.29,0,1,1-.29.29.29.29,0,0,1,.29-.29h0"/></g></g></g></g></g></svg>