<?xml version="1.0" encoding="UTF-8"?>
<svg width="20px" height="20px" viewBox="0 0 20 20" version="1.1" xmlns="http://www.w3.org/2000/svg" xmlns:xlink="http://www.w3.org/1999/xlink">
    <!-- Generator: Sketch 50.2 (55047) - http://www.bohemiancoding.com/sketch -->
    <title>Shape</title>
    <desc>Created with Sketch.</desc>
    <defs></defs>
    <g id="2.0" stroke="none" stroke-width="1" fill="none" fill-rule="evenodd">
        <g id="HomepageV2_Comp_SignedOut_mobile" transform="translate(-298.000000, -30.000000)" fill="#FFFFFF" fill-rule="nonzero">
            <g id="Header" transform="translate(-5.000000, 0.000000)">
                <path d="M313.000792,50 L313,50 L312.999208,50 C307.476515,49.9995628 302.999781,45.5222971 303,39.9996042 C303.000219,34.4769113 307.477307,30 313,30 C318.522693,30 322.999781,34.4769113 323,39.9996042 C323.000219,45.5222971 318.523485,49.9995628 313.000792,50 Z M308.639542,46.627125 C308.392231,46.1468671 308.17901,45.649807 308.001458,45.139625 C307.972884,45.0566246 307.89503,45.0007021 307.80725,45.000125 L306.774333,45.000125 C306.694102,44.9997134 306.620781,45.0454655 306.58589,45.1177138 C306.550998,45.1899622 306.560752,45.2758343 306.610958,45.3384167 C307.112481,45.936244 307.695137,46.4610055 308.342,46.8974583 C308.421125,46.9497493 308.52564,46.9417095 308.595836,46.8779319 C308.666033,46.8141543 308.684028,46.7108871 308.639542,46.627125 Z M305.509583,43.333375 L307.254917,43.333375 C307.316432,43.3337535 307.374862,43.3064703 307.414064,43.2590628 C307.453266,43.2116552 307.469091,43.1491414 307.457167,43.0887917 C307.328202,42.4083559 307.242889,41.7203682 307.20175,41.0290417 C307.196072,40.9196554 307.105991,40.833724 306.996458,40.8332083 L304.945667,40.8332083 C304.885436,40.8332574 304.828091,40.8590193 304.788052,40.904016 C304.748013,40.9490127 304.729091,41.008963 304.736042,41.0687917 C304.832464,41.8034539 305.027048,42.5218524 305.314583,43.20475 C305.347818,43.2829252 305.424637,43.3335964 305.509583,43.333375 Z M304.945792,39.1667083 L306.996458,39.1667083 C307.105914,39.1661988 307.195966,39.0803876 307.20175,38.9710833 C307.242886,38.2797427 307.328199,37.591741 307.457167,36.9112916 C307.469105,36.8509356 307.453287,36.7884097 307.414083,36.740992 C307.374879,36.6935743 307.316441,36.6662856 307.254917,36.6666666 L305.509583,36.6666666 C305.424713,36.6664742 305.347964,36.7170823 305.314708,36.7951666 C305.027183,37.4780679 304.8326,38.1964649 304.736167,38.931125 C304.729218,38.990932 304.748125,39.0508618 304.788135,39.095854 C304.828146,39.1408463 304.885457,39.1666236 304.945667,39.1667083 L304.945792,39.1667083 Z M306.774333,35.0000416 L307.80725,35.0000416 C307.895023,34.9994833 307.97288,34.9435751 308.001458,34.8605833 C308.178963,34.350383 308.392185,33.8533196 308.639542,33.3730833 C308.68395,33.2893274 308.66592,33.1861217 308.595745,33.1223833 C308.52557,33.0586449 308.421111,33.0505968 308.342,33.1028333 C307.695147,33.5392661 307.112492,34.0639987 306.610958,34.6617916 C306.560778,34.7243746 306.551039,34.8102292 306.585927,34.8824617 C306.620816,34.9546942 306.694118,35.0004402 306.774333,35.0000416 Z M311.849833,31.98925 C311.029,32.461 310.314125,33.4272916 309.785583,34.7125416 C309.759921,34.7771142 309.767868,34.850201 309.806809,34.9077491 C309.84575,34.9652972 309.91064,34.9998521 309.980125,35.0000416 L311.958167,35.0000416 C312.073226,35.0000416 312.1665,34.9067676 312.1665,34.7917083 L312.1665,32.1702916 C312.166113,32.0950824 312.125667,32.0257817 312.060374,31.9884531 C311.995081,31.9511245 311.914842,31.9514282 311.849833,31.98925 Z M311.958167,36.6666666 L309.353,36.6666666 C309.253766,36.6660543 309.167778,36.7352943 309.147208,36.832375 C309.004797,37.5286653 308.911153,38.2340456 308.866958,38.943375 C308.863642,39.0012408 308.884248,39.0579274 308.923948,39.1001568 C308.963649,39.1423863 309.018956,39.1664488 309.076917,39.1667083 L311.958167,39.1667083 C312.073226,39.1667083 312.1665,39.0734343 312.1665,38.958375 L312.1665,36.8750416 C312.166511,36.819781 312.144567,36.7667799 312.105495,36.7277008 C312.066424,36.6886217 312.013427,36.6666666 311.958167,36.6666666 Z M311.958167,40.8333333 L309.076917,40.8333333 C309.018953,40.8336042 308.963645,40.8576761 308.923946,40.8999121 C308.884247,40.942148 308.863643,40.9988386 308.866958,41.0567083 C308.911153,41.7660239 309.004797,42.4713903 309.147208,43.1676667 C309.167795,43.2647308 309.253779,43.3339498 309.353,43.3333333 L311.958167,43.3333333 C312.073226,43.3333333 312.1665,43.2400593 312.1665,43.125 L312.1665,41.0416667 C312.166477,40.9266236 312.07321,40.833375 311.958167,40.833375 L311.958167,40.8333333 Z M311.958167,45 L309.98,45 C309.910523,45.0002098 309.845647,45.0347691 309.80671,45.0923107 C309.767774,45.1498523 309.759818,45.2229272 309.785458,45.2875 C310.314,46.57275 311.028917,47.5390417 311.849708,48.0107917 C311.914734,48.0487629 311.995081,48.0491471 312.060467,48.0117995 C312.125853,47.9744519 312.166339,47.90505 312.166667,47.82975 L312.166667,45.208375 C312.166667,45.1530927 312.144694,45.100077 312.105588,45.0610021 C312.066482,45.0219272 312.013449,44.9999974 311.958167,45.0000417 L311.958167,45 Z M321.054,40.8333333 L319.003542,40.8333333 C318.894079,40.8338612 318.804014,40.9196502 318.798167,41.0289583 C318.757072,41.7203027 318.671758,42.408307 318.54275,43.08875 C318.530855,43.1491096 318.546702,43.21162 318.585916,43.2590227 C318.625131,43.3064254 318.683564,43.3337063 318.745083,43.3333333 L320.490292,43.3333333 C320.575174,43.3335718 320.651952,43.2829718 320.685208,43.204875 C320.972806,42.5219989 321.167393,41.8035918 321.26375,41.0689167 C321.270705,41.0090702 321.251764,40.949103 321.211697,40.9041082 C321.171629,40.8591135 321.114249,40.8333765 321.054,40.833375 L321.054,40.8333333 Z M319.225542,45 L318.19275,45 C318.104975,45.0005896 318.027127,45.0565075 317.998542,45.1395 C317.82099,45.649682 317.607769,46.1467421 317.360458,46.627 C317.316004,46.7107547 317.33402,46.8139936 317.404216,46.8777405 C317.474411,46.9414875 317.578903,46.9495031 317.658,46.8972083 C318.30485,46.4607708 318.887492,45.936023 319.389,45.3382083 C319.439124,45.2756299 319.448835,45.1898202 319.413964,45.1176227 C319.379093,45.0454253 319.305844,44.9996852 319.225667,45.0000417 L319.225542,45 Z M314.15025,48.0108333 C314.971083,47.5390833 315.686,46.5728333 316.214583,45.2875833 C316.240224,45.2230106 316.232268,45.1499356 316.193331,45.092394 C316.154395,45.0348524 316.089519,45.0002931 316.020042,45.0000833 L314.0415,45.0000833 C313.926441,45.0000833 313.833167,45.0933573 313.833167,45.2084167 L313.833167,47.8298333 C313.833457,47.9051758 313.873962,47.9746275 313.939395,48.0119785 C314.004828,48.0493295 314.085227,48.0488929 314.15025,48.0108333 Z M314.0415,43.333375 L316.646875,43.333375 C316.746105,43.3339665 316.832099,43.2647674 316.85275,43.1677083 C316.995112,42.4714265 317.088729,41.7660615 317.132917,41.05675 C317.136268,40.9988853 317.115687,40.9421868 317.075999,40.8999451 C317.03631,40.8577034 316.981003,40.8336325 316.923042,40.833375 L314.0415,40.833375 C313.926441,40.833375 313.833167,40.926649 313.833167,41.0417083 L313.833167,43.1250417 C313.833167,43.240101 313.926441,43.333375 314.0415,43.333375 Z M313.833167,32.1702916 L313.833167,34.79175 C313.833167,34.9068093 313.926441,35.0000833 314.0415,35.0000833 L316.019917,35.0000833 C316.089402,34.9998937 316.154292,34.9653389 316.193233,34.9077908 C316.232174,34.8502427 316.240121,34.7771559 316.214458,34.7125833 C315.685958,33.4273333 314.971,32.4610833 314.150125,31.9892916 C314.085105,31.9513241 314.004768,31.9509359 313.939384,31.9882733 C313.874001,32.0256108 313.833509,32.0949991 313.833167,32.1702916 Z M313.833167,36.875 L313.833167,38.9583333 C313.833167,39.0733926 313.926441,39.1666666 314.0415,39.1666666 L316.923167,39.1666666 C316.98112,39.1664085 317.03642,39.1423433 317.076108,39.1001109 C317.115795,39.0578785 317.136381,39.001191 317.133042,38.9433333 C317.088812,38.234012 316.995197,37.5286361 316.852875,36.8323333 C316.832241,36.7352576 316.746243,36.6660376 316.647,36.666625 L314.0415,36.666625 C313.986239,36.666625 313.933243,36.68858 313.894171,36.7276591 C313.8551,36.7667382 313.833156,36.8197393 313.833167,36.875 Z M317.360292,33.3730416 C317.607612,33.8532952 317.820833,34.350356 317.998375,34.8605416 C318.026964,34.9435256 318.104815,34.9994291 318.192583,35 L319.2255,35 C319.305708,35.0003824 319.378995,34.9546302 319.413873,34.8824011 C319.448751,34.810172 319.439009,34.7243271 319.388833,34.66175 C318.887413,34.0639848 318.304886,33.5392536 317.658167,33.1027916 C317.579056,33.0503863 317.47447,33.0583515 317.404208,33.122133 C317.333946,33.1859144 317.315929,33.2892447 317.360458,33.3730416 L317.360292,33.3730416 Z M318.542583,36.9112916 C318.671592,37.5917347 318.756905,38.279739 318.798,38.9710833 C318.803847,39.0803914 318.893912,39.1661804 319.003375,39.1667083 L321.054,39.1667083 C321.114236,39.1666726 321.171589,39.1409145 321.21163,39.0959146 C321.251672,39.0509146 321.27059,38.9909565 321.263625,38.931125 C321.167241,38.1964283 320.972656,37.4779972 320.685083,36.7950833 C320.651797,36.7170177 320.575032,36.6664433 320.490167,36.6666666 L318.745083,36.6666666 C318.68355,36.6662758 318.625098,36.693558 318.585879,36.740975 C318.546659,36.7883919 318.530825,36.8509235 318.54275,36.9112916 L318.542583,36.9112916 Z" id="Shape"></path>
            </g>
        </g>
    </g>
</svg>