<?xml version="1.0" encoding="UTF-8"?>
<svg width="24px" height="17px" viewBox="0 0 24 17" version="1.1" xmlns="http://www.w3.org/2000/svg" xmlns:xlink="http://www.w3.org/1999/xlink">
    <!-- Generator: Sketch 50.2 (55047) - http://www.bohemiancoding.com/sketch -->
    <title>Combined Shape</title>
    <desc>Created with Sketch.</desc>
    <defs></defs>
    <g id="2.0" stroke="none" stroke-width="1" fill="none" fill-rule="evenodd">
        <g id="HomepageV2_Comp_SignedOut_mobile" transform="translate(-15.000000, -97.000000)" fill="#FFFFFF">
            <g id="Nav" transform="translate(-5.000000, 80.000000)">
                <path d="M21.5,17 L42.5,17 C43.3284271,17 44,17.6715729 44,18.5 C44,19.3284271 43.3284271,20 42.5,20 L21.5,20 C20.6715729,20 20,19.3284271 20,18.5 C20,17.6715729 20.6715729,17 21.5,17 Z M21.5,24 L40.5,24 C41.3284271,24 42,24.6715729 42,25.5 C42,26.3284271 41.3284271,27 40.5,27 L21.5,27 C20.6715729,27 20,26.3284271 20,25.5 C20,24.6715729 20.6715729,24 21.5,24 Z M21.5,31 L42.5,31 C43.3284271,31 44,31.6715729 44,32.5 C44,33.3284271 43.3284271,34 42.5,34 L21.5,34 C20.6715729,34 20,33.3284271 20,32.5 C20,31.6715729 20.6715729,31 21.5,31 Z" id="Combined-Shape"></path>
            </g>
        </g>
    </g>
</svg>