<?xml version="1.0" encoding="UTF-8"?>
<svg width="20px" height="20px" viewBox="0 0 20 20" version="1.1" xmlns="http://www.w3.org/2000/svg" xmlns:xlink="http://www.w3.org/1999/xlink">
    <!-- Generator: Sketch 50.2 (55047) - http://www.bohemiancoding.com/sketch -->
    <title>Shape</title>
    <desc>Created with Sketch.</desc>
    <defs></defs>
    <g id="2.0" stroke="none" stroke-width="1" fill="none" fill-rule="evenodd">
        <g id="HomepageV2_Comp_SignedOut_mobile" transform="translate(-245.000000, -30.000000)" fill="#FFFFFF" fill-rule="nonzero">
            <g id="Header" transform="translate(-5.000000, 0.000000)">
                <path d="M258.282832,30.0000079 C261.412178,29.9956901 264.276009,31.7578424 265.682665,34.5532206 C267.089321,37.3485989 266.797911,40.6984926 264.929693,43.2089873 L269.400936,46.9908714 C269.889918,47.4081645 270.103382,48.064547 269.953398,48.6896401 C269.803415,49.3147331 269.315355,49.802793 268.690262,49.9527768 C268.065169,50.1027607 267.408786,49.8892964 266.991493,49.4003149 L263.208693,44.9297692 C260.319154,47.0713459 256.377441,47.1022455 253.454683,45.0062323 C250.531925,42.9102191 249.296861,39.1668688 250.39844,35.7430831 C251.500019,32.3192974 254.686197,29.9984514 258.282832,30.0000079 Z M258.282832,44.8211823 C261.894086,44.8211823 264.821586,41.8936827 264.821586,38.2824289 C264.821586,34.6711751 261.894086,31.7436755 258.282832,31.7436755 C254.671579,31.7436755 251.744079,34.6711751 251.744079,38.2824289 C251.744103,41.8936657 254.671596,44.8211387 258.282832,44.8211387 L258.282832,44.8211823 Z" id="Shape"></path>
            </g>
        </g>
    </g>
</svg>