<?xml version="1.0" encoding="UTF-8"?>
<svg width="22px" height="22px" viewBox="0 0 22 22" version="1.1" xmlns="http://www.w3.org/2000/svg" xmlns:xlink="http://www.w3.org/1999/xlink">
    <!-- Generator: Sketch 50.2 (55047) - http://www.bohemiancoding.com/sketch -->
    <title>Oval 4</title>
    <desc>Created with Sketch.</desc>
    <defs></defs>
    <g id="2.0" stroke="none" stroke-width="1" fill="none" fill-rule="evenodd">
        <g id="HomepageV2_Comp_SignedOut_mobile" transform="translate(-338.000000, -29.000000)" fill="#FFFFFF" fill-rule="nonzero">
            <g id="Header" transform="translate(-5.000000, 0.000000)">
                <path d="M351.8263,48.8130114 C350.413835,48.4658068 349.131396,47.7879041 348.065773,46.8660937 C348.349958,47.0503532 349.941106,47.8705532 351.8,48.8 C351.808649,48.8043247 351.817417,48.8086623 351.8263,48.8130114 Z M348.021233,46.8273121 C348.257678,45.8721867 348.973779,45.5480357 350.315605,45.1062949 C351.940439,44.5713658 352.331351,44.0458415 352.353076,42.608061 C352.192706,42.4813715 352.047318,42.3367948 351.919732,42.1771367 C351.572495,41.6945621 351.36016,41.1281563 351.304585,40.5362417 C351.279595,40.5427055 351.253893,40.5460129 351.22808,40.5460867 C350.929843,40.5460867 350.704123,39.8141202 350.704123,39.2992934 C350.704123,38.7844666 350.857298,38.6279918 351.003488,38.6279918 C351.042133,38.6280627 351.080725,38.6308193 351.118988,38.6362418 C351.031661,38.27209 350.984701,37.899427 350.978958,37.5249958 C350.978958,36.2038151 351.32774,35.2892489 352.392456,35.1264216 C352.981753,34.6919222 353.872834,34.5 355.01092,34.5 C355.739119,34.5 355.132497,35.0294843 355.816669,35.1840341 C356.240168,35.2796789 357.02884,35.598816 357.02884,37.5249958 C357.023081,37.8994134 356.97615,38.2720709 356.888894,38.6362336 C356.927156,38.6308046 356.965749,38.6280479 357.004394,38.6279836 C357.150556,38.6279836 357.303841,38.7845409 357.303841,39.2992852 C357.303841,39.8140295 357.078038,40.5460785 356.779801,40.5460785 C356.753989,40.5460013 356.728288,40.5426939 356.703296,40.5362335 C356.647704,41.1281482 356.435359,41.6945511 356.088122,42.1771287 C355.960579,42.3368053 355.815217,42.4813938 355.65486,42.6080806 C355.67642,44.0458336 356.06736,44.5713579 357.692168,45.1062871 C359.030036,45.5467894 359.745906,45.8703434 359.984571,46.8189953 C359.9848,46.8199056 359.984943,46.8208553 359.985,46.8218443 C361.87928,45.1586122 363.075,42.7189438 363.075,40 C363.075,34.9880159 359.011984,30.925 354,30.925 C348.988016,30.925 344.925,34.9880159 344.925,40 C344.925,42.7219248 346.123344,45.1639614 348.021233,46.8273121 Z M359.766636,47.0075813 C358.710384,47.8777889 357.453986,48.5138226 356.076879,48.8362451 C356.489936,48.4011127 357.665468,48.0276642 358.4,47.7 C359.047914,47.4109748 359.513932,47.1674994 359.766636,47.0075813 Z M354,51 C347.924868,51 343,46.0751322 343,40 C343,33.9248678 347.924868,29 354,29 C360.075132,29 365,33.9248678 365,40 C365,46.0751322 360.075132,51 354,51 Z M351.8263,48.8130114 C352.522724,48.9842028 353.250759,49.075 354,49.075 C354.714592,49.075 355.409894,48.9924065 356.076879,48.8362451 C356.073489,48.8398168 356.070149,48.8433927 356.066862,48.8469728 C355.108846,49.8903659 352.788358,49.2840326 351.8263,48.8130114 Z M348.065773,46.8660937 C348.050884,46.853214 348.036037,46.8402867 348.021233,46.8273121 C348.021068,46.8279801 348.020903,46.8286485 348.020738,46.8293173 C348.019651,46.8337251 348.035098,46.8462047 348.065773,46.8660937 Z M359.985,46.8218443 C359.98669,46.8513271 359.911913,46.9156465 359.766636,47.0075813 C359.84041,46.9468023 359.913206,46.884881 359.985,46.8218443 Z" id="Oval-4"></path>
            </g>
        </g>
    </g>
</svg>