<?xml version="1.0" encoding="UTF-8"?>
<svg width="171px" height="32px" viewBox="0 0 171 32" version="1.1" xmlns="http://www.w3.org/2000/svg" xmlns:xlink="http://www.w3.org/1999/xlink">
    <!-- Generator: Sketch 51.3 (57544) - http://www.bohemiancoding.com/sketch -->
    <title>CrashedToysLogo-wSlogan-white@2x</title>
    <desc>Created with Sketch.</desc>
    <defs>
        <polygon id="path-1" points="0.0391836735 0.143020408 16.9234286 0.143020408 16.9234286 18.7180408 0.0391836735 18.7180408"></polygon>
        <polygon id="path-3" points="0.649795918 0.0228571429 10.6076735 0.0228571429 10.6076735 5.18530612 0.649795918 5.18530612"></polygon>
        <polygon id="path-5" points="0.382693878 0.0228571429 20.3049796 0.0228571429 20.3049796 5.18530612 0.382693878 5.18530612"></polygon>
        <polygon id="path-7" points="0.254040816 0.0372244898 8.87314286 0.0372244898 8.87314286 5.18530612 0.254040816 5.18530612"></polygon>
        <polygon id="path-9" points="0.0881632653 0.0228571429 10.5299592 0.0228571429 10.5299592 5.18530612 0.0881632653 5.18530612"></polygon>
        <polygon id="path-11" points="0.497632653 0.0228571429 11.8622041 0.0228571429 11.8622041 5.18530612 0.497632653 5.18530612"></polygon>
        <polygon id="path-13" points="0.579918367 0.109061224 8.73730612 0.109061224 8.73730612 5.18530612 0.579918367 5.18530612"></polygon>
        <polygon id="path-15" points="0.540081633 0.0228571429 10.8427755 0.0228571429 10.8427755 5.18530612 0.540081633 5.18530612"></polygon>
        <polygon id="path-17" points="0.13844898 0.0372244898 8.7562449 0.0372244898 8.7562449 5.18530612 0.13844898 5.18530612"></polygon>
    </defs>
    <g id="DRIVE-+-CT" stroke="none" stroke-width="1" fill="none" fill-rule="evenodd">
        <g id="HomepageV2_CrashedToys_SignedOut_desktop" transform="translate(-8.000000, -29.000000)">
            <g id="Header">
                <g id="CrashedToysLogo-wSlogan-white" transform="translate(8.000000, 29.000000)">
                    <g id="Group-3" transform="translate(0.000000, 1.959184)">
                        <mask id="mask-2" fill="white">
                            <use xlink:href="#path-1"></use>
                        </mask>
                        <g id="Clip-2"></g>
                        <path d="M16.9234286,7.12555102 L12.0633469,7.40506122 C11.9934694,4.85942857 10.9041633,3.58922449 8.79346939,3.58922449 C6.37583673,3.58922449 5.16767347,5.54840816 5.16767347,9.46416327 C5.16767347,11.7257143 5.49420408,13.258449 6.1524898,14.0643265 C6.81208163,14.8702041 7.72832653,15.2718367 8.91232653,15.2718367 C10.8251429,15.2718367 11.9993469,14.1361633 12.4251429,11.8654694 L16.9234286,12.116898 C16.6315102,14.2713469 15.7492245,15.9105306 14.2733061,17.0331429 C12.7967347,18.155102 10.9929796,18.7180408 8.85355102,18.7180408 C6.2315102,18.7180408 4.10187755,17.8938776 2.46204082,16.2488163 C0.816979592,14.5998367 0,12.3291429 0,9.42367347 C0,6.70628571 0.792816327,4.47673469 2.37779592,2.74612245 C3.968,1.01159184 6.13355102,0.143020408 8.88228571,0.143020408 C13.6437551,0.143020408 16.3239184,2.47183673 16.9234286,7.12555102" id="Fill-1" fill="#FFFFFE" mask="url(#mask-2)"></path>
                    </g>
                    <path d="M22.8519184,5.65420408 L22.8519184,10.1609796 L25.7985306,10.1609796 C26.7252245,10.1609796 27.4044082,10.1106939 27.8249796,9.99444898 C28.2462041,9.87232653 28.618449,9.61632653 28.949551,9.20685714 C29.2767347,8.79673469 29.4406531,8.32979592 29.4406531,7.80342857 C29.4406531,7.30318367 29.2767347,6.85322449 28.949551,6.45746939 C28.618449,6.06040816 28.2612245,5.85077551 27.8752653,5.76065306 C27.4886531,5.66595918 26.7598367,5.65420408 25.6953469,5.65420408 L22.8519184,5.65420408 Z M22.8519184,13.3786122 L22.8519184,20.4604082 L18.3457959,20.4604082 L18.3457959,2.43526531 L26.9877551,2.43526531 C28.5929796,2.43526531 29.8866939,2.57959184 30.8571429,2.91722449 C31.8282449,3.25485714 32.6360816,3.8635102 33.2747755,4.76865306 C33.9134694,5.67444898 34.2308571,6.67755102 34.2308571,7.78579592 C34.2308571,9.95265306 33.0860408,11.530449 30.7924898,12.4721633 L34.4489796,20.4604082 L29.3263673,20.4604082 L26.2798367,13.3786122 L22.8519184,13.3786122 Z" id="Fill-4" fill="#FFFFFE"></path>
                    <path d="M40.3474286,13.3786122 L44.5531429,13.3786122 L42.4522449,7.05893878 L40.3474286,13.3786122 Z M45.643102,2.43526531 L51.8406531,20.4604082 L46.8466939,20.4604082 L45.643102,16.596898 L39.2274286,16.596898 L37.9787755,20.4604082 L33.9160816,20.4604082 L40.2573061,2.43526531 L45.643102,2.43526531 Z" id="Fill-5" fill="#FFFFFE"></path>
                    <path d="M66.0466939,6.34187755 L62.0976327,7.53959184 C61.5686531,6.11591837 60.4382041,5.40408163 58.72,5.40408163 C56.8764082,5.40408163 55.9601633,5.94481633 55.9601633,7.02693878 C55.9601633,7.45861224 56.1332245,7.82367347 56.4754286,8.12016327 C56.8169796,8.42253061 57.5947755,8.67983673 58.8042449,8.90057143 C60.8248163,9.26955102 62.3066122,9.6437551 63.2483265,10.0231837 C64.1848163,10.4006531 64.9763265,11.0086531 65.620898,11.850449 C66.2648163,12.693551 66.5822041,13.6300408 66.5822041,14.6723265 C66.5822041,16.298449 65.8938776,17.7031837 64.5159184,18.8930612 C63.1386122,20.0829388 61.0932245,20.6772245 58.3830204,20.6772245 C56.352,20.6772245 54.6226939,20.2546939 53.1964082,19.4168163 C51.7688163,18.5737143 50.8277551,17.3263673 50.3719184,15.6715102 L54.667102,14.7879184 C55.1529796,16.469551 56.4956735,17.3074286 58.7056327,17.3074286 C59.765551,17.3074286 60.5622857,17.1226122 61.0827755,16.7484082 C61.6071837,16.373551 61.8651429,15.9294694 61.8651429,15.4109388 C61.8651429,14.8793469 61.6274286,14.4737959 61.1578776,14.1799184 C60.6811429,13.8919184 59.765551,13.6169796 58.4124082,13.3596735 C55.8863673,12.8881633 54.0871837,12.2390204 53.0122449,11.413551 C51.9373061,10.5946122 51.4017959,9.39167347 51.4017959,7.80604082 C51.4017959,6.20538776 52.0417959,4.85485714 53.3250612,3.75510204 C54.6076735,2.65534694 56.3467755,2.10220408 58.5417143,2.10220408 C62.4359184,2.10220408 64.9325714,3.51673469 66.0466939,6.34187755" id="Fill-6" fill="#FFFFFE"></path>
                    <polyline id="Fill-7" fill="#FFFFFE" points="82.3960816 3.40114286 82.3960816 21.4249796 77.8899592 21.4249796 77.8899592 14.0231837 71.7740408 14.0231837 71.7740408 21.4249796 67.2672653 21.4249796 67.2672653 3.40114286 71.7740408 3.40114286 71.7740408 10.4822857 77.8899592 10.4822857 77.8899592 3.40114286 82.3960816 3.40114286"></polyline>
                    <polyline id="Fill-8" fill="#FFFFFE" points="98.3216327 6.25959184 88.8875102 5.74759184 88.6883265 9.43673469 96.107102 9.83902041 95.924898 13.2277551 88.5035102 12.8254694 88.2912653 16.7510204 97.7247347 17.2630204 97.5314286 20.821551 83.3835102 20.0548571 84.3598367 2.06367347 98.507102 2.83102041 98.3216327 6.25959184"></polyline>
                    <path d="M104.385306,5.48114286 L104.016327,16.7869388 L105.932408,16.8496327 C107.626449,16.9051429 108.901878,16.373551 109.761306,15.253551 C110.621388,14.1315918 111.075918,12.7986939 111.12751,11.2489796 C111.162122,10.1596735 110.957061,9.13893878 110.522776,8.19657143 C110.081959,7.25355102 109.517714,6.58546939 108.838531,6.18971429 C108.15151,5.792 107.320816,5.5764898 106.346449,5.54383673 L104.385306,5.48114286 Z M99.9373061,2.02253061 L105.987918,2.21910204 C108.454531,2.29942857 110.28049,2.67102041 111.469061,3.33191837 C112.65698,3.98693878 113.708408,5.00506122 114.625959,6.37844898 C115.537633,7.75053061 115.962776,9.45959184 115.897469,11.508898 C115.811918,14.0839184 114.904816,16.213551 113.17551,17.8840816 C111.445551,19.5591837 109.109551,20.3480816 106.169469,20.2527347 L99.3502041,20.0293878 L99.9373061,2.02253061 Z" id="Fill-9" fill="#FFFFFE"></path>
                    <path d="M129.272816,2.68212245 L129.701224,6.2197551 L124.826776,6.81012245 L124.94498,7.86089796 L124.645878,7.89485714 C124.581878,7.89485714 124.310204,8.00261224 124.26449,8 C123.605551,7.97061224 123.510857,8.19265306 122.79249,8.10057143 C122.718041,8.06987755 122.642286,8.2122449 122.562612,8.18220408 L121.458939,8.88163265 C121.535347,8.90906122 122.70302,8.65697959 122.778776,8.68897959 C123.234612,8.87510204 123.218286,8.57861224 123.782531,8.61779592 C123.932082,8.62759184 124.077714,8.89077551 124.099265,8.74122449 C124.129306,8.54791837 124.130612,8.48718367 124.293224,8.49502041 C124.359184,8.55967347 124.621714,8.58253061 124.681143,8.58253061 L125.050776,8.63542857 L126.561306,21.1578776 L121.893224,21.7234286 L120.158694,7.37371429 L115.260082,7.96538776 L114.834286,4.42710204 L129.272816,2.68212245" id="Fill-10" fill="#FFFFFE"></path>
                    <path d="M129.340082,7.35608163 C129.658122,6.71804082 130.048653,6.12506122 130.512327,5.57322449 C131.994122,3.8164898 134.105469,2.93289796 136.843755,2.93289796 C139.609469,2.93289796 141.698612,3.87526531 143.105959,5.75412245 C144.512653,7.63232653 145.216653,9.78220408 145.216653,12.2017959 C145.216653,13.6019592 145.007673,14.8852245 144.590367,16.0522449 C144.569469,16.1090612 144.244898,15.9386122 144.234449,15.850449 L143.864816,15.7446531 C143.723102,15.6342857 143.137959,15.6519184 143.046531,15.572898 C142.693224,15.2666122 142.502531,15.3201633 142.081306,15.0844082 C141.600653,15.0844082 141.583673,15.253551 141.513796,15.018449 C141.492245,14.9433469 141.415184,14.7781224 141.368816,14.6618776 C141.176816,14.1557551 140.256653,14.0173061 140.263837,13.9487347 C140.325878,13.4256327 140.357224,12.8522449 140.357224,12.2285714 C140.357224,8.33044898 139.172571,6.3797551 136.815673,6.3797551 C134.829714,6.3797551 133.651592,7.66693878 133.281959,10.2386939 C133.274122,10.2909388 133.169633,10.1590204 133.088653,10.0793469 C132.864,9.85926531 133.112816,9.92718367 132.942367,9.65681633 L132.969796,9.34073469 C132.851592,9.13828571 132.617796,8.95673469 132.587102,8.8117551 C132.59102,8.53616327 132.346122,8.36963265 132.122122,8.52832653 L132.120816,8.52636735 L132.17698,8.44212245 L132.204408,8.25665306 C132.041143,8.12473469 131.529143,8.34938776 131.147755,8.21812245 C130.89698,8.224 130.727837,8.2357551 130.727837,8.21420408 L130.727837,8.21159184 L130.825143,8.28930612 C130.804898,8.21420408 130.688653,8.04506122 130.646857,7.9797551 C130.602449,7.91640816 130.561306,7.86089796 130.500571,7.80865306 C130.223673,7.56636735 129.308735,7.41681633 129.340082,7.35608163 Z M136.681796,21.5098776 C134.010122,21.5098776 131.943837,20.5955918 130.482939,18.7755102 C129.021388,16.9541224 128.293224,14.7526531 128.293224,12.1606531 C128.293224,10.6207347 128.545959,9.23102041 129.053388,7.98955102 C129.07298,7.94253061 129.84098,8.00653061 129.84098,8.00653061 C129.84098,8.00653061 130.332082,8.13910204 130.366694,8.19069388 C130.401959,8.24228571 130.460082,8.28212245 130.475102,8.34155102 L130.475102,8.34416327 C130.51102,8.47934694 130.869551,8.77191837 131.183673,8.76538776 C131.544816,8.75559184 131.668245,8.71706122 131.770122,8.87510204 L131.960816,8.89338776 C132.038531,9.01812245 132.216163,8.93191837 132.252082,9.09322449 C132.361796,9.58432653 132.210939,9.59216327 132.468898,9.64179592 C132.531592,9.86122449 132.798694,10.4666122 132.798694,10.4666122 C132.798694,10.4666122 133.217306,10.7689796 133.212082,10.836898 C133.172245,11.264 133.153306,11.723102 133.153306,12.2142041 C133.153306,16.1116735 134.372571,18.0617143 136.815673,18.0617143 C138.652082,18.0617143 139.776653,16.8803265 140.184163,14.517551 C140.519184,14.676898 140.929306,14.5417143 141.082122,14.944 C141.123918,15.050449 141.246041,15.0791837 141.266286,15.1529796 C141.364898,15.4808163 141.379918,15.5330612 141.972245,15.5330612 C142.574367,15.957551 142.939429,15.7897143 143.261388,16.0685714 C143.474286,16.3990204 144.02351,16.1201633 144.443429,16.436898 C144.094694,17.2943673 143.625143,18.0884898 143.041306,18.8140408 C141.592163,20.6073469 139.469714,21.5098776 136.681796,21.5098776 Z" id="Fill-11" fill="#FFFFFE"></path>
                    <path d="M158.480327,0.504816327 L152.970449,11.3260408 L153.04751,12.4832653 C153.04751,12.4832653 152.547265,12.5923265 152.487837,12.628898 L152.172408,12.8130612 L151.24702,12.9978776 C151.064816,13.0462041 150.73698,13.3165714 150.467918,13.1428571 C150.294204,13.1428571 149.756735,13.2133878 149.530122,13.0115918 L148.725551,13.2133878 L149.108245,13.2760816 L149.453061,13.2662857 C149.507265,13.5444898 149.845551,13.4713469 150.144653,13.4948571 C150.443755,13.5164082 150.817306,13.6084898 150.899592,13.5817143 C151.068735,13.5275102 152.487837,13.4733061 152.487837,13.4733061 L153.099755,13.2512653 L153.481796,18.9002449 L148.849633,19.2130612 L148.338286,11.6401633 L141.42302,1.65812245 L146.793796,1.29436735 L151.032816,7.8635102 L154.324245,0.785632653 L158.480327,0.504816327" id="Fill-12" fill="#FFFFFE"></path>
                    <path d="M170.528653,8.352 L166.405878,8.53812245 C166.243918,7.02693878 165.325714,6.05910204 163.660408,5.63395918 C161.874939,5.17877551 160.851592,5.47591837 160.585143,6.52408163 C160.477388,6.94334694 160.556408,7.33910204 160.813714,7.712 C161.07102,8.08946939 161.761306,8.53028571 162.877388,9.04228571 C164.745143,9.8997551 166.08849,10.6279184 166.906776,11.2267755 C167.721143,11.8256327 168.338939,12.6099592 168.754939,13.5856327 C168.813061,13.7253878 168.867265,13.8631837 168.912327,14.0035918 C168.777796,14.2837551 168.632816,14.5273469 168.50351,14.5012245 C168.451918,14.4901224 168.059429,14.6324898 167.845224,14.6122449 L167.783184,14.5619592 L167.483429,14.5319184 C167.37502,14.4783673 167.078531,14.6951837 167.009959,14.6507755 C166.759184,14.4862041 166.649469,14.1472653 166.32098,14.4757551 C166.118531,14.677551 165.811592,14.8865306 165.811592,14.8865306 C165.811592,14.8865306 165.362286,15.0458776 165.231673,15.1007347 L165.063184,15.3097143 L165.404082,15.3097143 L165.680327,15.296 C165.805714,15.2437551 166.040816,15.179102 166.195592,15.1235918 C166.588735,14.9838367 166.631184,15.4808163 166.855837,15.2561633 C166.955755,15.156898 167.049143,15.0915918 167.049143,15.0915918 C167.049143,15.0915918 167.150367,15.146449 167.292735,15.296 C167.414857,15.3776327 167.993469,15.1588571 168.145633,15.114449 C168.404245,15.0341224 168.623673,15.2019592 168.796735,14.8199184 C168.877714,14.7167347 169.072327,14.6324898 169.088653,14.7422041 C169.179429,15.3404082 169.144163,15.9438367 168.990041,16.5557551 C168.587102,18.132898 167.573551,19.3253878 165.945469,20.1364898 C164.315429,20.948898 162.186449,21.0187755 159.559837,20.3493878 C157.592163,19.8478367 156.019592,19.0106122 154.845388,17.8462041 C153.671184,16.6785306 153.067755,15.2359184 153.033796,13.5216327 L157.415837,13.7266939 C157.470041,15.4742857 158.563918,16.619102 160.705959,17.1644082 C161.731265,17.4269388 162.549551,17.4439184 163.147755,17.2101224 C163.748571,16.9769796 164.107755,16.6099592 164.236408,16.107102 C164.367673,15.5931429 164.236408,15.1405714 163.852408,14.740898 C163.463837,14.3431837 162.644245,13.8514286 161.396898,13.2682449 C159.064816,12.1854694 157.483102,11.1124898 156.644571,10.0486531 C155.804735,8.98873469 155.582694,7.68979592 155.97649,6.15314286 C156.371592,4.60408163 157.325061,3.45142857 158.838857,2.70432653 C160.353959,1.95526531 162.177306,1.84685714 164.302367,2.39020408 C168.075755,3.3515102 170.145306,5.33942857 170.528653,8.352" id="Fill-13" fill="#FFFFFE"></path>
                    <g id="Group-17" transform="translate(0.653061, 26.122449)">
                        <mask id="mask-4" fill="white">
                            <use xlink:href="#path-3"></use>
                        </mask>
                        <g id="Clip-15"></g>
                        <path d="M2.56065306,2.72457143 C3.22938776,2.72457143 3.64604082,2.35102041 3.64604082,1.82661224 L3.64604082,1.81159184 C3.64604082,1.22253061 3.22220408,0.913632653 2.56065306,0.913632653 L1.53338776,0.913632653 L1.53338776,2.72457143 L2.56065306,2.72457143 Z M0.649795918,0.109061224 L2.6324898,0.109061224 C3.81126531,0.109061224 4.544,0.777142857 4.544,1.79004082 L4.544,1.80506122 C4.544,2.9322449 3.63885714,3.52130612 2.53191837,3.52130612 L1.53338776,3.52130612 L1.53338776,5.13828571 L0.649795918,5.13828571 L0.649795918,0.109061224 Z" id="Fill-14" fill="#FFFFFE" mask="url(#mask-4)"></path>
                        <path d="M9.68097959,2.63771429 L9.68097959,2.62334694 C9.68097959,1.64636735 8.96979592,0.834612245 7.97126531,0.834612245 C6.97208163,0.834612245 6.27526531,1.63265306 6.27526531,2.60963265 L6.27526531,2.62334694 C6.27526531,3.60097959 6.98644898,4.40555102 7.98563265,4.40555102 C8.98416327,4.40555102 9.68097959,3.61469388 9.68097959,2.63771429 Z M5.34857143,2.63771429 L5.34857143,2.62334694 C5.34857143,1.20816327 6.4404898,0.0228571429 7.98563265,0.0228571429 C9.53012245,0.0228571429 10.6076735,1.19379592 10.6076735,2.60963265 L10.6076735,2.62334694 C10.6076735,4.03983673 9.5157551,5.2244898 7.97126531,5.2244898 C6.42612245,5.2244898 5.34857143,4.05355102 5.34857143,2.63771429 Z" id="Fill-16" fill="#FFFFFE" mask="url(#mask-4)"></path>
                    </g>
                    <polyline id="Fill-18" fill="#FFFFFE" points="11.796898 26.2315102 12.7523265 26.2315102 13.952 29.9604898 15.1875918 26.2171429 15.9346939 26.2171429 17.1709388 29.9604898 18.3706122 26.2315102 19.2973061 26.2315102 17.5516735 31.2973061 16.7830204 31.2973061 15.5467755 27.6826122 14.3111837 31.2973061 13.5497143 31.2973061 11.796898 26.2315102"></polyline>
                    <polyline id="Fill-19" fill="#FFFFFE" points="20.2494694 26.2315102 23.978449 26.2315102 23.978449 27.0217143 21.1330612 27.0217143 21.1330612 28.3291429 23.6551837 28.3291429 23.6551837 29.12 21.1330612 29.12 21.1330612 30.4705306 24.0143673 30.4705306 24.0143673 31.2607347 20.2494694 31.2607347 20.2494694 26.2315102"></polyline>
                    <g id="Group-25" transform="translate(24.816327, 26.122449)">
                        <mask id="mask-6" fill="white">
                            <use xlink:href="#path-5"></use>
                        </mask>
                        <g id="Clip-21"></g>
                        <path d="M2.56,2.60179592 C3.19216327,2.60179592 3.59444898,2.27134694 3.59444898,1.76130612 L3.59444898,1.74759184 C3.59444898,1.20816327 3.20653061,0.913632653 2.55281633,0.913632653 L1.26628571,0.913632653 L1.26628571,2.60179592 L2.56,2.60179592 Z M0.382693878,0.109061224 L2.62465306,0.109061224 C3.25681633,0.109061224 3.7524898,0.295836735 4.0757551,0.612571429 C4.34155102,0.884897959 4.49240816,1.25910204 4.49240816,1.69730612 L4.49240816,1.71167347 C4.49240816,2.53779592 3.99673469,3.03346939 3.29991837,3.23461224 L4.65763265,5.13828571 L3.60881633,5.13828571 L2.37322449,3.38546939 L1.26628571,3.38546939 L1.26628571,5.13828571 L0.382693878,5.13828571 L0.382693878,0.109061224 Z" id="Fill-20" fill="#FFFFFE" mask="url(#mask-6)"></path>
                        <path d="M5.3002449,4.40555102 L5.83183673,3.77273469 C6.31314286,4.19004082 6.80163265,4.42710204 7.41942857,4.42710204 C7.96538776,4.42710204 8.31020408,4.1684898 8.31020408,3.79493878 L8.31020408,3.78057143 C8.31020408,3.42073469 8.10971429,3.22677551 7.17518367,3.01126531 C6.10481633,2.75330612 5.50138776,2.43657143 5.50138776,1.50987755 L5.50138776,1.49616327 C5.50138776,0.634122449 6.2197551,0.0372244898 7.21828571,0.0372244898 C7.95102041,0.0372244898 8.53289796,0.259918367 9.04359184,0.669387755 L8.56946939,1.33812245 C8.1162449,0.999836735 7.66367347,0.820244898 7.20391837,0.820244898 C6.68669388,0.820244898 6.38497959,1.08604082 6.38497959,1.41714286 L6.38497959,1.43085714 C6.38497959,1.81877551 6.61485714,1.99118367 7.58465306,2.22106122 C8.64783673,2.47967347 9.19444898,2.86106122 9.19444898,3.69371429 L9.19444898,3.70873469 C9.19444898,4.64979592 8.45387755,5.21012245 7.39787755,5.21012245 C6.62922449,5.21012245 5.90367347,4.94432653 5.3002449,4.40555102" id="Fill-22" fill="#FFFFFE" mask="url(#mask-6)"></path>
                        <path d="M12.2586122,2.72457143 C12.9266939,2.72457143 13.3433469,2.35102041 13.3433469,1.82661224 L13.3433469,1.81159184 C13.3433469,1.22253061 12.9195102,0.913632653 12.2586122,0.913632653 L11.2306939,0.913632653 L11.2306939,2.72457143 L12.2586122,2.72457143 Z M10.347102,0.109061224 L12.3297959,0.109061224 C13.5085714,0.109061224 14.2413061,0.777142857 14.2413061,1.79004082 L14.2413061,1.80506122 C14.2413061,2.9322449 13.3361633,3.52130612 12.2298776,3.52130612 L11.2306939,3.52130612 L11.2306939,5.13828571 L10.347102,5.13828571 L10.347102,0.109061224 Z" id="Fill-23" fill="#FFFFFE" mask="url(#mask-6)"></path>
                        <path d="M19.3782857,2.63771429 L19.3782857,2.62334694 C19.3782857,1.64636735 18.667102,0.834612245 17.6685714,0.834612245 C16.6693878,0.834612245 15.9732245,1.63265306 15.9732245,2.60963265 L15.9732245,2.62334694 C15.9732245,3.60097959 16.6837551,4.40555102 17.6829388,4.40555102 C18.6814694,4.40555102 19.3782857,3.61469388 19.3782857,2.63771429 Z M15.0458776,2.63771429 L15.0458776,2.62334694 C15.0458776,1.20816327 16.1377959,0.0228571429 17.6829388,0.0228571429 C19.2274286,0.0228571429 20.3049796,1.19379592 20.3049796,2.60963265 L20.3049796,2.62334694 C20.3049796,4.03983673 19.2130612,5.2244898 17.6685714,5.2244898 C16.1240816,5.2244898 15.0458776,4.05355102 15.0458776,2.63771429 Z" id="Fill-24" fill="#FFFFFE" mask="url(#mask-6)"></path>
                    </g>
                    <path d="M48.4839184,28.7242449 C49.1167347,28.7242449 49.5183673,28.3937959 49.5183673,27.8837551 L49.5183673,27.8700408 C49.5183673,27.3306122 49.130449,27.0360816 48.4767347,27.0360816 L47.1908571,27.0360816 L47.1908571,28.7242449 L48.4839184,28.7242449 Z M46.3072653,26.2315102 L48.5485714,26.2315102 C49.1807347,26.2315102 49.6764082,26.4182857 50.0003265,26.7350204 C50.2661224,27.0073469 50.4169796,27.381551 50.4169796,27.8197551 L50.4169796,27.8341224 C50.4169796,28.6602449 49.9206531,29.1559184 49.2238367,29.3570612 L50.5822041,31.2607347 L49.5327347,31.2607347 L48.2971429,29.5079184 L47.1908571,29.5079184 L47.1908571,31.2607347 L46.3072653,31.2607347 L46.3072653,26.2315102 Z" id="Fill-26" fill="#FFFFFE"></path>
                    <g id="Group-30" transform="translate(50.938776, 26.122449)">
                        <mask id="mask-8" fill="white">
                            <use xlink:href="#path-7"></use>
                        </mask>
                        <g id="Clip-28"></g>
                        <polyline id="Fill-27" fill="#FFFFFE" mask="url(#mask-8)" points="1.84881633 0.928653061 0.254040816 0.928653061 0.254040816 0.109061224 4.33502041 0.109061224 4.33502041 0.928653061 2.7402449 0.928653061 2.7402449 5.13828571 1.84881633 5.13828571 1.84881633 0.928653061"></polyline>
                        <path d="M4.97893878,4.40555102 L5.51053061,3.77273469 C5.99183673,4.19004082 6.48032653,4.42710204 7.09877551,4.42710204 C7.64473469,4.42710204 7.98889796,4.1684898 7.98889796,3.79493878 L7.98889796,3.78057143 C7.98889796,3.42073469 7.78840816,3.22677551 6.85387755,3.01126531 C5.7835102,2.75330612 5.18008163,2.43657143 5.18008163,1.50987755 L5.18008163,1.49616327 C5.18008163,0.634122449 5.89844898,0.0372244898 6.89763265,0.0372244898 C7.63036735,0.0372244898 8.2122449,0.259918367 8.72228571,0.669387755 L8.24816327,1.33812245 C7.79559184,0.999836735 7.34302041,0.820244898 6.88326531,0.820244898 C6.36538776,0.820244898 6.06367347,1.08604082 6.06367347,1.41714286 L6.06367347,1.43085714 C6.06367347,1.81877551 6.29355102,1.99118367 7.264,2.22106122 C8.32718367,2.47967347 8.87314286,2.86106122 8.87314286,3.69371429 L8.87314286,3.70873469 C8.87314286,4.64979592 8.13322449,5.21012245 7.07657143,5.21012245 C6.30791837,5.21012245 5.58236735,4.94432653 4.97893878,4.40555102" id="Fill-29" fill="#FFFFFE" mask="url(#mask-8)"></path>
                    </g>
                    <path d="M65.3714286,28.7392653 L65.3714286,28.7242449 C65.3714286,28.1645714 65.8383673,27.712 66.3915102,27.712 C66.9374694,27.712 67.4044082,28.1645714 67.4044082,28.7242449 L67.4044082,28.7392653 C67.4044082,29.2995918 66.9446531,29.7449796 66.3915102,29.7449796 C65.8311837,29.7449796 65.3714286,29.2995918 65.3714286,28.7392653" id="Fill-31" fill="#FFFFFE"></path>
                    <polyline id="Fill-32" fill="#FFFFFE" points="73.216 26.2315102 76.9449796 26.2315102 76.9449796 27.0217143 74.0995918 27.0217143 74.0995918 28.3291429 76.6217143 28.3291429 76.6217143 29.12 74.0995918 29.12 74.0995918 30.4705306 76.9802449 30.4705306 76.9802449 31.2607347 73.216 31.2607347 73.216 26.2315102"></polyline>
                    <g id="Group-36" transform="translate(77.714286, 26.122449)">
                        <mask id="mask-10" fill="white">
                            <use xlink:href="#path-9"></use>
                        </mask>
                        <g id="Clip-34"></g>
                        <polyline id="Fill-33" fill="#FFFFFE" mask="url(#mask-10)" points="4.72228571 0.109061224 2.96946939 2.56653061 4.79412245 5.13828571 3.7524898 5.13828571 2.42285714 3.2202449 1.10171429 5.13828571 0.0881632653 5.13828571 1.90563265 2.5802449 0.16 0.109061224 1.20163265 0.109061224 2.45159184 1.93371429 3.70938776 0.109061224 4.72228571 0.109061224"></polyline>
                        <path d="M9.60261224,2.63771429 L9.60261224,2.62334694 C9.60261224,1.64636735 8.89142857,0.834612245 7.89289796,0.834612245 C6.89436735,0.834612245 6.19755102,1.63265306 6.19755102,2.60963265 L6.19755102,2.62334694 C6.19755102,3.60097959 6.90808163,4.40555102 7.90726531,4.40555102 C8.90644898,4.40555102 9.60261224,3.61469388 9.60261224,2.63771429 Z M5.27020408,2.63771429 L5.27020408,2.62334694 C5.27020408,1.20816327 6.36277551,0.0228571429 7.90726531,0.0228571429 C9.45240816,0.0228571429 10.5299592,1.19379592 10.5299592,2.60963265 L10.5299592,2.62334694 C10.5299592,4.03983673 9.43738776,5.2244898 7.89289796,5.2244898 C6.34840816,5.2244898 5.27020408,4.05355102 5.27020408,2.63771429 Z" id="Fill-35" fill="#FFFFFE" mask="url(#mask-10)"></path>
                    </g>
                    <polyline id="Fill-37" fill="#FFFFFE" points="90.4169796 27.051102 88.8222041 27.051102 88.8222041 26.2315102 92.9031837 26.2315102 92.9031837 27.051102 91.3077551 27.051102 91.3077551 31.2607347 90.4169796 31.2607347 90.4169796 27.051102"></polyline>
                    <g id="Group-42" transform="translate(93.387755, 26.122449)">
                        <mask id="mask-12" fill="white">
                            <use xlink:href="#path-11"></use>
                        </mask>
                        <g id="Clip-39"></g>
                        <polygon id="Fill-38" fill="#FFFFFE" mask="url(#mask-12)" points="0.497632653 5.13828571 1.38057143 5.13828571 1.38057143 0.109061224 0.497632653 0.109061224"></polygon>
                        <path d="M2.58873469,2.63771429 L2.58873469,2.62334694 C2.58873469,1.19379592 3.65910204,0.0228571429 5.18269388,0.0228571429 C6.10873469,0.0228571429 6.66971429,0.346122449 7.15036735,0.805877551 L6.58285714,1.45959184 C6.18057143,1.08604082 5.75020408,0.834612245 5.17485714,0.834612245 C4.21942857,0.834612245 3.51542857,1.62481633 3.51542857,2.60963265 L3.51542857,2.62334694 C3.51542857,3.60816327 4.2122449,4.40555102 5.17485714,4.40555102 C5.79265306,4.40555102 6.18840816,4.16130612 6.61942857,3.75902041 L7.18693878,4.33371429 C6.66187755,4.88032653 6.08718367,5.2244898 5.14612245,5.2244898 C3.68065306,5.2244898 2.58873469,4.08228571 2.58873469,2.63771429" id="Fill-40" fill="#FFFFFE" mask="url(#mask-12)"></path>
                        <path d="M7.968,4.40555102 L8.5002449,3.77273469 C8.98155102,4.19004082 9.47004082,4.42710204 10.0878367,4.42710204 C10.6337959,4.42710204 10.9792653,4.1684898 10.9792653,3.79493878 L10.9792653,3.78057143 C10.9792653,3.42073469 10.7774694,3.22677551 9.84359184,3.01126531 C8.77322449,2.75330612 8.16979592,2.43657143 8.16979592,1.50987755 L8.16979592,1.49616327 C8.16979592,0.634122449 8.8875102,0.0372244898 9.88669388,0.0372244898 C10.6194286,0.0372244898 11.2013061,0.259918367 11.712,0.669387755 L11.2372245,1.33812245 C10.7853061,0.999836735 10.3320816,0.820244898 9.87232653,0.820244898 C9.35510204,0.820244898 9.05338776,1.08604082 9.05338776,1.41714286 L9.05338776,1.43085714 C9.05338776,1.81877551 9.28326531,1.99118367 10.2530612,2.22106122 C11.3162449,2.47967347 11.8622041,2.86106122 11.8622041,3.69371429 L11.8622041,3.70873469 C11.8622041,4.64979592 11.1222857,5.21012245 10.0662857,5.21012245 C9.29763265,5.21012245 8.57208163,4.94432653 7.968,4.40555102" id="Fill-41" fill="#FFFFFE" mask="url(#mask-12)"></path>
                    </g>
                    <path d="M110.810122,28.7392653 L110.810122,28.7242449 C110.810122,28.1645714 111.277061,27.712 111.829551,27.712 C112.376163,27.712 112.843102,28.1645714 112.843102,28.7242449 L112.843102,28.7392653 C112.843102,29.2995918 112.383347,29.7449796 111.829551,29.7449796 C111.269878,29.7449796 110.810122,29.2995918 110.810122,28.7392653" id="Fill-43" fill="#FFFFFE"></path>
                    <path d="M120.830041,28.7242449 C121.462857,28.7242449 121.865143,28.3937959 121.865143,27.8837551 L121.865143,27.8700408 C121.865143,27.3306122 121.477224,27.0360816 120.82351,27.0360816 L119.537633,27.0360816 L119.537633,28.7242449 L120.830041,28.7242449 Z M118.653388,26.2315102 L120.895347,26.2315102 C121.52751,26.2315102 122.023184,26.4182857 122.346449,26.7350204 C122.612245,27.0073469 122.763102,27.381551 122.763102,27.8197551 L122.763102,27.8341224 C122.763102,28.6602449 122.268082,29.1559184 121.570612,29.3570612 L122.928327,31.2607347 L121.87951,31.2607347 L120.643265,29.5079184 L119.537633,29.5079184 L119.537633,31.2607347 L118.653388,31.2607347 L118.653388,26.2315102 Z" id="Fill-44" fill="#FFFFFE"></path>
                    <g id="Group-48" transform="translate(122.775510, 26.122449)">
                        <mask id="mask-14" fill="white">
                            <use xlink:href="#path-13"></use>
                        </mask>
                        <g id="Clip-46"></g>
                        <polyline id="Fill-45" fill="#FFFFFE" mask="url(#mask-14)" points="0.579918367 0.109061224 1.55689796 0.109061224 3.07265306 3.97453061 4.58187755 0.109061224 5.53730612 0.109061224 3.45338776 5.17485714 2.67036735 5.17485714 0.579918367 0.109061224"></polyline>
                        <path d="M5.72016327,4.64261224 L6.10808163,4.05355102 C6.52473469,4.36244898 6.96293878,4.5204898 7.35085714,4.5204898 C7.72440816,4.5204898 7.93991837,4.36244898 7.93991837,4.11102041 L7.93991837,4.09665306 C7.93991837,3.80212245 7.53763265,3.70155102 7.09159184,3.56506122 C6.53191837,3.40702041 5.90693878,3.17714286 5.90693878,2.45159184 L5.90693878,2.43657143 C5.90693878,1.71820408 6.50318367,1.28065306 7.25746939,1.28065306 C7.73159184,1.28065306 8.24881633,1.44522449 8.65110204,1.71167347 L8.30628571,2.32881633 C7.93991837,2.10612245 7.552,1.97028571 7.23591837,1.97028571 C6.89828571,1.97028571 6.70432653,2.12767347 6.70432653,2.34318367 L6.70432653,2.35755102 C6.70432653,2.63771429 7.11379592,2.75330612 7.55918367,2.89632653 C8.11232653,3.06873469 8.73730612,3.32081633 8.73730612,4.00326531 L8.73730612,4.01763265 C8.73730612,4.81502041 8.1195102,5.21012245 7.32930612,5.21012245 C6.78987755,5.21012245 6.19363265,5.01681633 5.72016327,4.64261224" id="Fill-47" fill="#FFFFFE" mask="url(#mask-14)"></path>
                    </g>
                    <path d="M137.022041,28.7392653 L137.022041,28.7242449 C137.022041,28.1645714 137.48898,27.712 138.042122,27.712 C138.588735,27.712 139.055673,28.1645714 139.055673,28.7242449 L139.055673,28.7392653 C139.055673,29.2995918 138.595918,29.7449796 138.042122,29.7449796 C137.482449,29.7449796 137.022041,29.2995918 137.022041,28.7392653" id="Fill-49" fill="#FFFFFE"></path>
                    <g id="Group-53" transform="translate(144.326531, 26.122449)">
                        <mask id="mask-16" fill="white">
                            <use xlink:href="#path-15"></use>
                        </mask>
                        <g id="Clip-51"></g>
                        <path d="M2.81077551,2.976 L1.40930612,2.976 L1.40930612,4.35526531 L2.87477551,4.35526531 C3.47885714,4.35526531 3.84522449,4.11885714 3.84522449,3.66563265 L3.84522449,3.65126531 C3.84522449,3.22677551 3.50759184,2.976 2.81077551,2.976 Z M3.56506122,1.53208163 C3.56506122,1.13632653 3.24897959,0.892081633 2.68081633,0.892081633 L1.40930612,0.892081633 L1.40930612,2.2282449 L2.61681633,2.2282449 C3.18432653,2.2282449 3.56506122,2.00555102 3.56506122,1.54579592 L3.56506122,1.53208163 Z M0.540081633,0.109061224 L2.7957551,0.109061224 C3.37110204,0.109061224 3.82302041,0.267102041 4.11102041,0.555102041 C4.33371429,0.777142857 4.44865306,1.05012245 4.44865306,1.3877551 L4.44865306,1.40212245 C4.44865306,2.00555102 4.10383673,2.32881633 3.73028571,2.52277551 C4.31934694,2.72457143 4.72881633,3.06155102 4.72881633,3.74465306 L4.72881633,3.75902041 C4.72881633,4.65697959 3.9882449,5.13828571 2.8682449,5.13828571 L0.540081633,5.13828571 L0.540081633,0.109061224 Z" id="Fill-50" fill="#FFFFFE" mask="url(#mask-16)"></path>
                        <path d="M9.91608163,2.63771429 L9.91608163,2.62334694 C9.91608163,1.64636735 9.20489796,0.834612245 8.20571429,0.834612245 C7.20718367,0.834612245 6.51036735,1.63265306 6.51036735,2.60963265 L6.51036735,2.62334694 C6.51036735,3.60097959 7.22155102,4.40555102 8.22008163,4.40555102 C9.21861224,4.40555102 9.91608163,3.61469388 9.91608163,2.63771429 Z M5.58367347,2.63771429 L5.58367347,2.62334694 C5.58367347,1.20816327 6.67559184,0.0228571429 8.22008163,0.0228571429 C9.76457143,0.0228571429 10.8427755,1.19379592 10.8427755,2.60963265 L10.8427755,2.62334694 C10.8427755,4.03983673 9.75085714,5.2244898 8.20571429,5.2244898 C6.66122449,5.2244898 5.58367347,4.05355102 5.58367347,2.63771429 Z" id="Fill-52" fill="#FFFFFE" mask="url(#mask-16)"></path>
                    </g>
                    <path d="M159.070041,29.2630204 L158.200163,27.2515918 L157.338776,29.2630204 L159.070041,29.2630204 Z M157.805714,26.1949388 L158.624653,26.1949388 L160.837224,31.2607347 L159.903347,31.2607347 L159.392653,30.0466939 L157.01551,30.0466939 L156.497633,31.2607347 L155.59249,31.2607347 L157.805714,26.1949388 Z" id="Fill-54" fill="#FFFFFE"></path>
                    <g id="Group-58" transform="translate(160.653061, 26.122449)">
                        <mask id="mask-18" fill="white">
                            <use xlink:href="#path-17"></use>
                        </mask>
                        <g id="Clip-56"></g>
                        <polyline id="Fill-55" fill="#FFFFFE" mask="url(#mask-18)" points="1.73322449 0.928653061 0.13844898 0.928653061 0.13844898 0.109061224 4.21942857 0.109061224 4.21942857 0.928653061 2.62465306 0.928653061 2.62465306 5.13828571 1.73322449 5.13828571 1.73322449 0.928653061"></polyline>
                        <path d="M4.86204082,4.40555102 L5.39428571,3.77273469 C5.87559184,4.19004082 6.36408163,4.42710204 6.98187755,4.42710204 C7.52783673,4.42710204 7.87330612,4.1684898 7.87330612,3.79493878 L7.87330612,3.78057143 C7.87330612,3.42073469 7.6715102,3.22677551 6.73763265,3.01126531 C5.66726531,2.75330612 5.06383673,2.43657143 5.06383673,1.50987755 L5.06383673,1.49616327 C5.06383673,0.634122449 5.78220408,0.0372244898 6.78073469,0.0372244898 C7.51346939,0.0372244898 8.09534694,0.259918367 8.60604082,0.669387755 L8.13126531,1.33812245 C7.67934694,0.999836735 7.22612245,0.820244898 6.76636735,0.820244898 C6.24914286,0.820244898 5.94742857,1.08604082 5.94742857,1.41714286 L5.94742857,1.43085714 C5.94742857,1.81877551 6.17730612,1.99118367 7.14710204,2.22106122 C8.21028571,2.47967347 8.7562449,2.86106122 8.7562449,3.69371429 L8.7562449,3.70873469 C8.7562449,4.64979592 8.01632653,5.21012245 6.96032653,5.21012245 C6.19167347,5.21012245 5.46612245,4.94432653 4.86204082,4.40555102" id="Fill-57" fill="#FFFFFE" mask="url(#mask-18)"></path>
                    </g>
                </g>
            </g>
        </g>
    </g>
</svg>