<?xml version="1.0" encoding="UTF-8"?>
<svg width="125px" height="180px" viewBox="0 0 125 180" version="1.1" xmlns="http://www.w3.org/2000/svg" xmlns:xlink="http://www.w3.org/1999/xlink">
    <!-- Generator: Sketch 48.2 (47327) - http://www.bohemiancoding.com/sketch -->
    <title>Footer Logos</title>
    <desc>Created with Sketch.</desc>
    <defs>
        <polygon id="path-1" points="0 18.8904 79.9092 18.8904 79.9092 -0.0001 0 -0.0001"></polygon>
        <polygon id="path-3" points="0.284 13.552 16.9272 13.552 16.9272 0.2067 0.284 0.2067"></polygon>
        <polygon id="path-5" points="58.5032 0.1328 0.048 0.1328 0.048 19.7208 116.9584 19.7208 116.9584 0.1328"></polygon>
    </defs>
    <g id="Sprites" stroke="none" stroke-width="1" fill="none" fill-rule="evenodd">
        <g id="Footer-Logos">
            <path d="M54.9563253,49.2372 C72.9094948,49.2372 84.2302988,56.0383726 80.1774428,64.3389458 C76.1213302,72.6723566 58.1836296,79.4569747 40.2475573,79.4569747 C24.1126638,79.4569747 13.3359858,73.9771743 14.2608641,66.8180453 C14.4437772,67.1863144 14.6866664,67.529616 14.9914311,67.8446937 C15.0747462,67.9282802 15.16566,68.0042679 15.2568452,68.0802556 C16.117134,73.957906 25.9887448,78.2674955 40.1807967,78.2674955 C57.3887444,78.2674955 74.5977777,71.9198067 78.4883458,64.1242805 C82.378371,56.3591494 71.5153927,49.9973486 54.2917047,49.9973486 C41.9203713,49.9973486 29.5411678,53.2851746 22.1193448,58.0186669 C22.0452568,58.01731 21.9746968,58.0118823 21.8987092,58.0118823 C21.6153838,58.0118823 21.3385716,58.0276226 21.0644733,58.0506903 C28.7565952,52.8628999 41.8598526,49.2372 54.9563253,49.2372 Z M25.3894614,66.4872783 L24.7519636,68.5229357 C24.4824721,68.2553503 24.2444621,67.9788092 24.0395617,67.6946693 C24.5484202,67.3334561 24.9994723,66.9307211 25.3894614,66.4872783 Z M38.730512,76.634114 C27.0181051,76.634114 18.5734375,73.4097868 16.6153992,68.842103 C17.3085149,69.0887921 18.1161548,69.2158004 19.0380476,69.2158004 C19.137917,69.2158004 19.2342585,69.2087444 19.3324996,69.2060305 C21.9337189,72.9128806 29.3194446,75.4364913 39.2222605,75.4364913 C49.3877765,75.4364913 59.5625195,72.7799018 65.8328555,68.9050644 L66.4703374,68.4979866 C67.2407976,67.9891394 67.9485681,67.4621094 68.5770943,66.9177108 C69.2194611,66.3654419 69.9709244,65.5838527 70.5611855,64.7517857 C70.8046173,64.4152681 71.0187395,64.074137 71.1970391,63.7300206 C72.2150019,61.7535224 72.0204193,59.8817788 70.8081452,58.264866 C71.5547237,59.505639 71.6925869,60.9011015 71.1015118,62.3646818 C70.548159,63.4722046 69.9125768,64.3639763 68.9665309,65.241636 C68.338276,65.8218575 67.6082521,66.383082 66.7919279,66.9209674 L67.3545077,64.1642368 L65.754154,64.6340046 C65.6692107,64.658972 65.5913234,64.6806828 65.5199493,64.6996798 L66.1468472,62.6805741 L68.1284959,62.6805741 L69.5250399,58.2122173 L67.5561463,58.2122173 L68.6992173,54.5455322 C73.3168224,56.865604 75.2626484,60.2356651 73.3616008,63.9718247 C69.8365892,70.943167 54.2612971,76.634114 38.730512,76.634114 Z M59.4768861,67.0472638 C59.5816406,67.7753859 59.9732486,68.3786715 60.5773507,68.744768 C61.0188934,69.0147946 61.6343937,69.1621559 62.4854558,69.202592 C56.9125731,71.6100356 49.4424406,73.1607213 41.9763789,73.1607213 C37.0477632,73.1607213 32.8098213,72.485519 29.6069402,71.3340385 L30.3955839,68.829711 C30.4094245,68.8359528 30.4229937,68.8419233 30.4368343,68.8478937 C30.9684767,69.0918675 31.5907616,69.2156184 32.2857776,69.2156184 C33.6573554,69.2156184 34.9415473,68.7561661 36.1038875,67.8483881 C36.5239909,67.518657 36.8979589,67.1433336 37.2309478,66.7235032 C37.2968942,67.2464593 37.5110167,67.7243658 37.8809139,68.1349691 C38.5181249,68.8620057 39.524419,69.2156184 40.9584152,69.2156184 C41.9155887,69.2156184 42.8130576,69.0725993 43.6282969,68.7892749 C43.8060538,68.7263139 43.9884243,68.6519548 44.1743227,68.5659262 L44.3246698,69.015066 L48.8008874,69.015066 L49.597944,69.015066 L54.5195037,69.015066 L55.6631184,65.3598008 C56.1388556,63.8476516 56.5727995,63.1860184 56.8561251,62.8972663 C57.1095983,62.6663189 57.2876266,62.6342956 57.441773,62.6342956 C57.4813952,62.6342956 57.6368986,62.6459651 57.9731441,62.7946833 L58.6912277,63.1116593 L59.1590948,62.5083737 L59.1053606,62.6804309 L60.4411156,62.6804309 L59.8861341,64.4533797 C59.5023963,65.6243997 59.3732172,66.4548335 59.4768861,67.0472638 Z M38.1739244,53.698856 C32.9025474,54.8620116 28.094967,56.4374008 24.5295145,58.4261093 C24.1140245,58.2708771 23.6532132,58.1587951 23.1459951,58.0909489 C26.4468476,56.1358922 30.7029742,54.48153 35.4511214,53.2928642 C36.091318,53.1240628 36.7477976,52.9870135 37.4034631,52.8342238 C41.8886385,51.8737927 46.7249857,51.3247811 51.545864,51.3247811 C58.5044397,51.3247811 64.3080021,52.4629693 68.283517,54.3428523 L62.2663748,56.8382363 L61.8381297,58.212258 L60.5012886,58.212258 L60.4291002,58.4437493 C59.8358532,58.154453 59.2480339,58.0119759 58.6412176,58.0119759 C58.1880052,58.0119759 57.7635594,58.0800935 57.3776504,58.212258 L52.1825325,58.212258 L49.3397775,67.294153 C49.3376065,67.2417757 49.3378778,67.2016108 49.3397775,67.172844 C49.345748,67.0816586 49.3812994,66.8778486 49.5112927,66.4354912 L50.7232969,62.559301 C50.89834,62.027658 50.9640151,61.4753898 50.9241216,60.869116 C50.8782576,60.2025947 50.6521941,59.6343147 50.2708985,59.2242522 C49.8022171,58.6907095 49.1354248,58.3455079 48.3055303,58.2014026 C47.661263,58.071952 46.7874042,58.0119759 45.5555889,58.0119759 C44.8356052,58.0119759 44.1579576,58.0608252 43.4813955,58.1617804 C42.7198899,58.2784759 42.1670792,58.4304514 41.7442618,58.638875 C41.0970092,58.91813 40.5596675,59.2595322 40.1582895,59.6435418 C39.7265164,60.0378641 39.3368079,60.5616369 38.9674533,61.2455268 L38.9525271,61.2729367 C38.898793,60.8009983 38.7801978,60.3537561 38.5932138,59.928496 C38.1847798,59.0540939 37.2607148,58.0119759 35.1770228,58.0119759 C34.5702066,58.0119759 33.991343,58.1031612 33.4233347,58.2882457 L33.4469452,58.212258 L28.2694674,58.212258 C31.4910755,56.1413199 35.9626816,54.4106986 40.9279366,53.3400852 C41.9005794,53.1305761 42.8884198,52.9661168 43.890915,52.8163124 C41.9469862,53.0111667 40.0448507,53.2950353 38.1739244,53.698856 Z M26.5431712,59.9997587 C26.466911,59.8800804 26.3825092,59.7674579 26.2945793,59.6583634 C26.7844355,59.2455952 27.3215133,58.8415113 27.9058127,58.4496394 L27.0370982,61.2250368 C26.9402125,60.7943577 26.778465,60.3845747 26.5431712,59.9997587 Z M39.7203802,62.7186269 C39.3871185,62.8716878 39.0967358,63.0445598 38.8503175,63.2367 C38.8397335,63.2451129 38.830235,63.25434 38.8193796,63.2627529 C38.8663293,63.0499875 38.9016094,62.8418355 38.9284766,62.6382971 L39.7203802,62.7186269 Z M9.8908492,63.3775352 L9.98691929,63.2266457 L14.4449513,63.2266457 L14.2465693,63.6822995 C13.7762601,64.7626793 12.7911346,65.9483562 12.0749511,66.5928932 C11.3205024,67.2493712 10.4995645,67.7403049 9.63086292,68.0564673 C8.76867458,68.384842 7.71516023,68.5525574 6.50559983,68.5525574 C5.0577639,68.5525574 3.90709392,68.3446772 3.08507049,67.9335304 C2.24079353,67.5199411 1.61715211,66.7758061 1.23368592,65.7244643 C0.866502783,64.6926622 0.932449199,63.3759069 1.42853994,61.8086641 C2.05706627,59.7526587 3.1580729,58.1387378 4.70007923,57.0154793 C6.25619754,55.8924921 8.12576487,55.3231284 10.2580323,55.3231284 C11.9900078,55.3231284 13.2210075,55.6558453 14.0215916,56.3389189 C14.9136322,57.0662281 15.3500184,58.2451203 15.3500184,59.9390995 L15.3500184,60.2644889 L10.9280805,60.2644889 L10.9025703,59.9667807 C10.8610485,59.4818174 10.6841059,59.1767817 10.3294064,58.9773145 C10.1036146,58.8516637 9.81486156,58.787617 9.47318856,58.787617 C8.64438052,58.787617 7.90974287,59.1024225 7.28962945,59.7228064 C6.8111787,60.1876873 6.39948852,60.9505478 6.06188629,61.9921197 C5.57882201,63.5487785 5.67163548,64.2139408 5.83446614,64.4975371 C6.05510168,64.889687 6.49772968,65.087526 7.15176616,65.087526 C7.83348384,65.087526 8.4128896,64.9040704 8.87288621,64.5420441 C9.22025827,64.2874859 9.56003158,63.897507 9.8908492,63.3775352 Z M26.2060113,63.6822556 C25.7530711,65.1067593 24.8786714,66.2810453 23.6072366,67.1711905 C22.3116486,68.0778902 20.7745288,68.5373462 19.0382129,68.5373462 C17.4484446,68.5373462 16.2483838,68.1432942 15.471411,67.3655027 C14.5128821,66.3738592 14.2803059,65.0842343 14.7761248,63.5294654 C15.2095253,62.1310148 16.0893527,60.956186 17.3903683,60.0410733 C18.6713016,59.1446862 20.1877962,58.6903865 21.8988733,58.6903865 C23.8943611,58.6903865 25.2645797,59.2532405 25.9704499,60.3637509 C26.5373714,61.2899904 26.61553,62.4051144 26.2060113,63.6822556 Z M19.0121383,63.7198907 C18.794759,64.4138145 18.7741338,64.9093581 18.9480914,65.1981086 C19.1101082,65.4770893 19.3749797,65.6100665 19.7600747,65.6100665 C20.1880485,65.6100665 20.5997392,65.4472373 21.0179431,65.1120805 C21.4133508,64.7858793 21.7354845,64.2374162 21.9718606,63.4851453 C22.1734995,62.8267725 22.1911395,62.3347569 22.0220668,62.0639176 C21.8608643,61.7884649 21.6133613,61.6644433 21.2374934,61.6644433 C20.774511,61.6644433 20.3530504,61.8215735 19.9484157,62.1456036 C19.5342826,62.4913443 19.2178479,63.0224389 19.0121383,63.7198907 Z M37.9782145,60.2155693 C38.4186701,61.2164366 38.4175845,62.3877335 37.9782145,63.8021913 C37.4946089,65.3344301 36.744776,66.4832021 35.6847517,67.3147252 C34.6464381,68.1256231 33.5025562,68.5373139 32.2856721,68.5373139 C31.689171,68.5373139 31.1624154,68.434459 30.7197888,68.2311918 C30.4549184,68.1185671 30.2174577,67.9709337 30.0112062,67.791277 L28.7878089,71.6750654 L24.4763377,71.6750654 L28.4784316,58.8906685 L32.5266608,58.8906685 L32.3054831,59.6068531 C32.6327718,59.3772616 32.9264088,59.2095457 33.1920934,59.0999063 C33.8371722,58.8249934 34.4874073,58.6903865 35.176993,58.6903865 C36.562949,58.6903865 37.5054643,59.2033039 37.9782145,60.2155693 Z M33.7867133,63.4610558 C33.986455,62.8496227 34.013051,62.399393 33.8656873,62.1489036 C33.7788431,61.9901426 33.6341932,61.8178124 33.2385094,61.8178124 C32.8398403,61.8178124 32.4854075,61.955948 32.122833,62.2523017 C31.7616155,62.5318295 31.4731299,63.0257523 31.2584619,63.7237576 C31.0725611,64.324878 31.0546495,64.768323 31.2066268,65.0071428 C31.3504625,65.2503049 31.5960687,65.3642871 31.962714,65.3642871 C32.29625,65.3642871 32.6197446,65.2280512 32.9519236,64.9485234 C33.3028284,64.653798 33.5837151,64.1536333 33.7867133,63.4610558 Z M48.8640659,66.23301 C48.7400432,66.6542007 48.6754537,66.9394271 48.6626986,67.127226 C48.6504863,67.313668 48.6740968,67.5853251 48.7357011,67.9579377 L48.7981195,68.3367922 L44.8131099,68.3367922 L44.7384791,68.1142559 C44.6668336,67.8995898 44.6266687,67.7180327 44.6168989,67.5622573 C44.1921822,67.8176313 43.7853769,68.014386 43.4024534,68.149536 C42.6618451,68.4070811 41.8403643,68.5373462 40.9583648,68.5373462 C39.7311642,68.5373462 38.8915006,68.2594473 38.3913391,67.6879089 C37.8795079,67.1198986 37.7530428,66.4080538 38.0184568,65.5757138 C38.2363785,64.8549133 38.6570245,64.2464665 39.2668254,63.7723557 C39.8673992,63.3039439 40.8015046,62.9614551 42.0422744,62.7541164 C43.3934977,62.5079696 44.3039926,62.3269553 44.8285788,62.2186724 C45.1916912,62.1272154 45.6006676,62.0069915 46.0248416,61.8788974 C46.0973012,61.5586623 46.0386822,61.4650342 46.030812,61.4539074 C46.0234846,61.4457658 45.912217,61.3410109 45.4020142,61.3410109 C44.8741714,61.3410109 44.4456553,61.4180845 44.1270499,61.5703319 C43.913199,61.6775292 43.6914778,61.8987086 43.4548306,62.2449968 L43.345734,62.4043002 L39.3325004,61.9972216 L39.5642628,61.567618 C39.8972515,60.9521152 40.2410956,60.4866887 40.6158776,60.1444713 C40.9716626,59.8041536 41.4490279,59.5034582 42.0295193,59.2548689 C42.3831333,59.0773826 42.8824807,58.9400614 43.5840096,58.8323213 C44.2252911,58.7367935 44.8695578,58.6903865 45.5556178,58.6903865 C46.7410252,58.6903865 47.5725472,58.746292 48.1720355,58.8665159 C48.8637945,58.9870111 49.4033069,59.260568 49.7677762,59.6795875 C50.0473022,59.9762121 50.2112185,60.3952317 50.2473126,60.9160209 C50.2812356,61.4316538 50.2261446,61.8997941 50.0787828,62.3475806 L48.8640659,66.23301 Z M45.2628261,64.3094599 C44.8744774,64.4152983 44.4975268,64.5072963 44.1387588,64.591967 C43.8538069,64.6587266 42.9875532,64.8628048 42.7069434,65.0731247 C42.4922797,65.2250978 42.3723285,65.3667584 42.3327066,65.5135753 C42.2518346,65.7447915 42.3194089,65.8191498 42.3522462,65.8544293 C42.398924,65.9116905 42.519418,66.0104731 42.8944689,66.0104731 C43.2608356,66.0104731 43.6139046,65.9296017 43.9737581,65.7632454 C44.3349685,65.596075 44.6063513,65.4055659 44.8033752,65.1824911 C44.9786884,64.9832978 45.1290345,64.6975341 45.2628261,64.3094599 Z M60.400723,59.19489 L60.7261143,59.3805169 L58.4801267,62.2767305 L58.2470064,62.1741472 C57.9205295,62.0294994 57.6494152,61.9559542 57.4418052,61.9559542 C57.055352,61.9559542 56.7199194,62.0995165 56.3853009,62.4083519 C55.8989778,62.8957582 55.4351797,63.8236212 55.0158889,65.1563897 L54.0209891,68.3367427 L49.7241401,68.3367427 L52.6811581,58.8906682 L56.7310462,58.8906682 L56.5508461,59.4673599 C56.7419016,59.309957 56.9248155,59.1815922 57.0998593,59.0849794 C57.544389,58.8211938 58.0513374,58.6903865 58.6413298,58.6903865 C59.2315936,58.6903865 59.8072025,58.8553882 60.400723,59.19489 Z M65.6474216,62.0020282 L64.7488651,64.8944413 C64.6313553,65.2472408 64.6275559,65.4019298 64.629727,65.4456227 C64.662836,65.4950146 64.7808886,65.5028848 64.8519915,65.5028848 C65.0123802,65.5028848 65.3323433,65.4651624 65.945674,65.2849632 L66.4645625,65.1324453 L65.8360343,68.2126563 L65.6232683,68.2544495 C64.6647357,68.441976 63.7797485,68.5372319 62.9932741,68.5372319 C62.0135734,68.5372319 61.3394525,68.4156517 60.9312891,68.1659782 C60.4962586,67.9021928 60.2248734,67.4818186 60.1483428,66.9507197 C60.0631278,66.4616853 60.187965,65.7107651 60.5307245,64.6651216 L61.36442,62.0020282 L60.0281191,62.0020282 L61.000221,58.8906079 L62.337336,58.8906079 L62.8195875,57.3434464 L67.7544565,55.2969379 L66.6339069,58.8906079 L68.6022639,58.8906079 L67.6298907,62.0020282 L65.6474216,62.0020282 Z" id="Copart-Logo" fill="#FEFEFE"></path>
            <g id="CopartDirect-SolidLogo" transform="translate(1.000000, 20.000000)">
                <path d="M14.0767855,9.81421305 C13.8062537,11.3325687 12.6409382,15.8058 6.46165474,15.8058 C2.15512736,15.8058 0.0744,13.0183155 0.0744,9.04455215 C0.0744,4.23822946 3.07053919,0.2435 8.12610136,0.2435 C11.4340284,0.2435 14.3885733,1.67832918 14.4721,6.13160881 L10.1446064,6.13160881 C10.1858625,4.73735929 9.52001623,3.94673223 8.10513515,3.94673223 C5.56720912,3.94673223 4.65145913,6.85967556 4.65145913,8.96102568 C4.65145913,10.1888986 4.9429571,12.1025678 7.0443125,12.1025678 C8.48015979,12.1025678 9.29141689,11.1249361 9.58257669,9.81421305 L14.0767855,9.81421305" id="Fill-1" fill="#FFFFFE"></path>
                <path d="M14.0767855,9.81421305 C13.8062537,11.3325687 12.6409382,15.8058 6.46165474,15.8058 C2.15512736,15.8058 0.0744,13.0183155 0.0744,9.04455215 C0.0744,4.23822946 3.07053919,0.2435 8.12610136,0.2435 C11.4340284,0.2435 14.3885733,1.67832918 14.4721,6.13160881 L10.1446064,6.13160881 C10.1858625,4.73735929 9.52001623,3.94673223 8.10513515,3.94673223 C5.56720912,3.94673223 4.65145913,6.85967556 4.65145913,8.96102568 C4.65145913,10.1888986 4.9429571,12.1025678 7.0443125,12.1025678 C8.48015979,12.1025678 9.29141689,11.1249361 9.58257669,9.81421305 L14.0767855,9.81421305 L14.0767855,9.81421305 Z" id="Stroke-2"></path>
                <path d="M20.1917811,12.7269 C21.8146399,12.7269 22.3973,10.334367 22.3973,9.39764377 C22.3973,8.10753585 22.0642065,7.3798 20.961447,7.3798 C19.3179601,7.3798 18.7353,9.85586035 18.7353,10.97959 C18.7353,11.8527377 19.0267991,12.7269 20.1917811,12.7269 L20.1917811,12.7269 Z M21.2735697,4.3833 C24.4357397,4.3833 26.5168,5.84011159 26.5168,9.10711643 C26.5168,11.8736382 24.9768019,15.7233 20.0041026,15.7233 C17.0292753,15.7233 14.6158,14.2874546 14.6158,10.6670681 C14.6158,7.21373478 16.8625605,4.3833 21.2735697,4.3833 L21.2735697,4.3833 Z" id="Fill-4" fill="#FFFFFE"></path>
                <path d="M20.1917811,12.7269 C21.8146399,12.7269 22.3973,10.334367 22.3973,9.39764377 C22.3973,8.10753585 22.0642065,7.3798 20.961447,7.3798 C19.3179601,7.3798 18.7353,9.85586035 18.7353,10.97959 C18.7353,11.8527377 19.0267991,12.7269 20.1917811,12.7269 L20.1917811,12.7269 Z M21.2735697,4.3833 C24.4357397,4.3833 26.5168,5.84011159 26.5168,9.10711643 C26.5168,11.8736382 24.9768019,15.7233 20.0041026,15.7233 C17.0292753,15.7233 14.6158,14.2874546 14.6158,10.6670681 C14.6158,7.21373478 16.8625605,4.3833 21.2735697,4.3833 L21.2735697,4.3833 Z" id="Stroke-5"></path>
                <path d="M34.7541,9.2941646 C34.7541,8.23299588 34.4626028,7.3798 33.2560341,7.3798 C31.4252151,7.3798 31.0928,10.0012722 31.0928,10.9589618 C31.0928,11.3536029 31.2375341,12.7269 32.5905277,12.7269 C34.2336658,12.7269 34.7541,10.688428 34.7541,9.2941646 L34.7541,9.2941646 Z M28.2630837,4.65383076 L32.2574936,4.65383076 L32.0082657,5.88204043 L32.0491837,5.88204043 C32.756964,4.88242926 33.6723777,4.3833 34.9415125,4.3833 C37.9792525,4.3833 38.8737,6.90126508 38.8737,8.8156084 C38.8737,12.0197071 37.2714723,15.7232733 33.6101553,15.7232733 C32.4242092,15.7232733 31.258553,15.5768485 30.3644436,14.142021 L29.3861311,18.948 L25.2666,18.948 L28.2630837,4.65383076 L28.2630837,4.65383076 Z" id="Fill-6" fill="#FFFFFE"></path>
                <path d="M34.7541,9.2941646 C34.7541,8.23299588 34.4626028,7.3798 33.2560341,7.3798 C31.4252151,7.3798 31.0928,10.0012722 31.0928,10.9589618 C31.0928,11.3536029 31.2375341,12.7269 32.5905277,12.7269 C34.2336658,12.7269 34.7541,10.688428 34.7541,9.2941646 L34.7541,9.2941646 Z M28.2630837,4.65383076 L32.2574936,4.65383076 L32.0082657,5.88204043 L32.0491837,5.88204043 C32.756964,4.88242926 33.6723777,4.3833 34.9415125,4.3833 C37.9792525,4.3833 38.8737,6.90126508 38.8737,8.8156084 C38.8737,12.0197071 37.2714723,15.7232733 33.6101553,15.7232733 C32.4242092,15.7232733 31.258553,15.5768485 30.3644436,14.142021 L29.3861311,18.948 L25.2666,18.948 L28.2630837,4.65383076 L28.2630837,4.65383076 Z" id="Stroke-7"></path>
                <path d="M44.3025746,13.2885 C45.6968132,13.2885 46.2581607,12.2696303 46.5084,10.6671 C45.8428988,10.9995092 45.0722294,11.0830342 44.3235406,11.1455934 C43.6367352,11.2084908 42.9922,11.5611895 42.9922,12.3518026 C42.9922,13.1018368 43.6367352,13.2885 44.3025746,13.2885 L44.3025746,13.2885 Z M40.3078103,7.92049807 C40.9530291,5.04948357 43.1795073,4.3833 45.8215902,4.3833 C47.7771983,4.3833 51.0645,4.63286522 51.0645,7.25566715 C51.0645,8.94006329 49.7537726,13.787986 49.7537726,14.4950874 C49.7537726,14.8910778 49.8166712,15.2032034 49.9201497,15.4527686 L45.8838126,15.4527686 C45.7799959,15.1193386 45.7170973,14.7656188 45.7380635,14.4125754 L45.6968074,14.4125754 C44.9687382,15.2857155 43.574484,15.7233 42.3679113,15.7233 C40.5164581,15.7233 38.8723,14.9117058 38.8723,12.8519473 C38.8723,10.0012227 40.9946234,9.23122271 44.0949199,9.00262367 C45.2598982,8.9190971 47.1113514,9.08615024 47.1113514,7.75445942 C47.1113514,7.00441111 46.4458428,6.81774444 45.8215902,6.81774444 C44.9893662,6.81774444 44.4063698,7.10924203 44.1781085,7.92049807 L40.3078103,7.92049807 L40.3078103,7.92049807 Z" id="Fill-8" fill="#FFFFFE"></path>
                <path d="M44.3025746,13.2885 C45.6968132,13.2885 46.2581607,12.2696303 46.5084,10.6671 C45.8428988,10.9995092 45.0722294,11.0830342 44.3235406,11.1455934 C43.6367352,11.2084908 42.9922,11.5611895 42.9922,12.3518026 C42.9922,13.1018368 43.6367352,13.2885 44.3025746,13.2885 L44.3025746,13.2885 Z M40.3078103,7.92049807 C40.9530291,5.04948357 43.1795073,4.3833 45.8215902,4.3833 C47.7771983,4.3833 51.0645,4.63286522 51.0645,7.25566715 C51.0645,8.94006329 49.7537726,13.787986 49.7537726,14.4950874 C49.7537726,14.8910778 49.8166712,15.2032034 49.9201497,15.4527686 L45.8838126,15.4527686 C45.7799959,15.1193386 45.7170973,14.7656188 45.7380635,14.4125754 L45.6968074,14.4125754 C44.9687382,15.2857155 43.574484,15.7233 42.3679113,15.7233 C40.5164581,15.7233 38.8723,14.9117058 38.8723,12.8519473 C38.8723,10.0012227 40.9946234,9.23122271 44.0949199,9.00262367 C45.2598982,8.9190971 47.1113514,9.08615024 47.1113514,7.75445942 C47.1113514,7.00441111 46.4458428,6.81774444 45.8215902,6.81774444 C44.9893662,6.81774444 44.4063698,7.10924203 44.1781085,7.92049807 L40.3078103,7.92049807 L40.3078103,7.92049807 Z" id="Stroke-9"></path>
                <path d="M52.727543,4.65383217 L56.7219531,4.65383217 L56.3685703,6.33958574 L56.4101646,6.33958574 C57.138573,5.19489651 58.4908965,4.3833 59.5520596,4.3833 C60.2385355,4.3833 60.6338509,4.42489432 61.0082,4.55069178 L60.2385355,8.19104027 C59.738727,8.00403491 59.1773723,7.9205081 58.6572739,7.9205081 C56.909635,7.9205081 56.0354773,8.66920588 55.5573114,10.9379563 L54.6209313,15.4528 L50.5014,15.4528 L52.727543,4.65383217" id="Fill-10" fill="#FFFFFE"></path>
                <path d="M52.727543,4.65383217 L56.7219531,4.65383217 L56.3685703,6.33958574 L56.4101646,6.33958574 C57.138573,5.19489651 58.4908965,4.3833 59.5520596,4.3833 C60.2385355,4.3833 60.6338509,4.42489432 61.0082,4.55069178 L60.2385355,8.19104027 C59.738727,8.00403491 59.1773723,7.9205081 58.6572739,7.9205081 C56.909635,7.9205081 56.0354773,8.66920588 55.5573114,10.9379563 L54.6209313,15.4528 L50.5014,15.4528 L52.727543,4.65383217 L52.727543,4.65383217 Z" id="Stroke-11"></path>
                <path d="M67.6649916,4.65385317 L69.8918,4.65385317 L69.3088057,7.19279115 L67.1239296,7.19279115 L66.3962012,10.6670917 C66.3126747,11.0201353 66.2085203,11.3954978 66.2085203,11.7495558 C66.2085203,12.1025994 66.3962012,12.3937589 67.0410795,12.3937589 C67.7069239,12.3937589 68.0603051,12.3518265 68.3933964,12.3308604 L67.7694842,15.3063685 C67.0410795,15.4318275 66.2920467,15.5353058 65.5426758,15.5769 C64.6691988,15.5769 63.7331615,15.5769 62.9425346,15.1403298 C62.2347579,14.7446775 61.8188165,13.8925033 61.8188165,13.1018751 C61.8188165,12.5192179 61.9435989,12.1232274 62.047077,11.6240969 L63.0047568,7.19279115 L61.1736,7.19279115 L61.7565943,4.65385317 L63.5454806,4.65385317 L64.2738854,1.3882 L68.3933964,1.3882 L67.6649916,4.65385317" id="Fill-12" fill="#FFFFFE"></path>
                <path d="M67.6649916,4.65385317 L69.8918,4.65385317 L69.3088057,7.19279115 L67.1239296,7.19279115 L66.3962012,10.6670917 C66.3126747,11.0201353 66.2085203,11.3954978 66.2085203,11.7495558 C66.2085203,12.1025994 66.3962012,12.3937589 67.0410795,12.3937589 C67.7069239,12.3937589 68.0603051,12.3518265 68.3933964,12.3308604 L67.7694842,15.3063685 C67.0410795,15.4318275 66.2920467,15.5353058 65.5426758,15.5769 C64.6691988,15.5769 63.7331615,15.5769 62.9425346,15.1403298 C62.2347579,14.7446775 61.8188165,13.8925033 61.8188165,13.1018751 C61.8188165,12.5192179 61.9435989,12.1232274 62.047077,11.6240969 L63.0047568,7.19279115 L61.1736,7.19279115 L61.7565943,4.65385317 L63.5454806,4.65385317 L64.2738854,1.3882 L68.3933964,1.3882 L67.6649916,4.65385317 L67.6649916,4.65385317 Z" id="Stroke-13"></path>
                <path d="M33.6156,23.7776 L34.6273972,23.7776 C35.9672169,23.7776 36.7122,22.7232031 36.7122,21.4594823 C36.7122,20.5971628 36.3439356,20.0118 35.4058589,20.0118 L34.4180715,20.0118 L33.6156,23.7776 L33.6156,23.7776 Z M33.3308482,18.9074 L35.4893587,18.9074 C37.155162,18.9074 38.0256,19.7690445 38.0256,21.2332992 C38.0256,23.3174103 36.8707648,24.8821 34.5692103,24.8821 L32.0678,24.8821 L33.3308482,18.9074 L33.3308482,18.9074 Z" id="Fill-15" fill="#FFFFFE"></path>
                <polyline id="Fill-16" fill="#FFFFFE" points="40.1621174 18.9074 41.4847 18.9074 40.220959 24.8821 38.8977 24.8821 40.1621174 18.9074"></polyline>
                <path d="M44.2035,21.6098 L45.4175049,21.6098 C46.1117533,21.6013457 46.7732,21.3341884 46.7732,20.6649425 C46.7732,20.0203833 46.3214143,19.9284 45.8023343,19.9284 L44.5551894,19.9284 L44.2035,21.6098 L44.2035,21.6098 Z M43.4500899,18.9074806 L46.3041973,18.9074806 C47.3839562,18.8905723 48.087,19.3180143 48.087,20.4725135 C48.087,21.2837741 47.5175312,21.961459 46.7150671,22.0788027 L46.7150671,22.095711 C47.2084489,22.2458568 47.3335697,22.6814148 47.3335697,23.1497749 C47.3335697,23.4176024 47.2919755,23.8193438 47.2919755,24.1879449 C47.2919755,24.4554343 47.3085456,24.7060154 47.3755021,24.8822 L46.0952117,24.8822 C46.0613953,24.7398321 46.0367093,24.6136961 46.0367093,24.4804586 C46.0367093,24.0790554 46.1033277,23.6688599 46.1033277,23.2671185 C46.1033277,22.6898689 45.7597527,22.5478391 45.2410085,22.5478391 L44.0029887,22.5478391 L43.5092687,24.8822 L42.1955,24.8822 L43.4500899,18.9074806 L43.4500899,18.9074806 Z" id="Fill-17" fill="#FFFFFE"></path>
                <polyline id="Fill-18" fill="#FFFFFE" points="50.2522634 18.9074 54.8124 18.9074 54.5865067 20.011847 51.3394595 20.011847 51.0719721 21.2914636 54.0758796 21.2914636 53.8587786 22.3130602 50.854871 22.3130602 50.5451131 23.777653 53.8422085 23.777653 53.607523 24.8821 48.997 24.8821 50.2522634 18.9074"></polyline>
                <path d="M59.6958281,20.982434 C59.6958281,20.2459074 59.2524924,19.8698663 58.6248563,19.8698663 C57.2776028,19.8698663 56.6665368,21.2333536 56.6665368,22.3800762 C56.6665368,23.2001299 57.0679399,23.9197482 58.0225826,23.9197482 C58.7503159,23.9197482 59.310657,23.35873 59.4280006,22.7317693 L60.7417756,22.7317693 C60.2064587,24.396563 59.3028791,25.0242 58.0053361,25.0242 C56.3317525,25.0242 55.3531,24.0621163 55.3531,22.3800762 C55.3531,20.4471165 56.59958,18.7644 58.6167403,18.7644 C59.997134,18.7644 61.0434197,19.5262891 61.009603,20.982434 L59.6958281,20.982434" id="Fill-19" fill="#FFFFFE"></path>
                <polyline id="Fill-20" fill="#FFFFFE" points="63.8190221 20.011847 61.9449 20.011847 62.1789116 18.9074 67.1662 18.9074 66.9321884 20.011847 65.1412554 20.011847 64.1206671 24.8821 62.7980956 24.8821 63.8190221 20.011847"></polyline>
            </g>
            <g id="CrashedToysLogo-white" transform="translate(1.000000, 0.000000)" fill="#FFFFFE">
                <path d="M11.7042,5.94504034 L8.34299347,6.1380046 C8.29513593,4.37794547 7.54154412,3.49904841 6.08170658,3.49904841 C4.40961538,3.49904841 3.57367938,4.85440135 3.57367938,7.56240382 C3.57367938,9.12650302 3.79988844,10.1863086 4.25508303,10.7438665 C4.71108133,11.3014244 5.34484664,11.5786324 6.16375851,11.5786324 C7.48652622,11.5786324 8.29842386,10.7938429 8.59353316,9.22316782 L11.7042,9.39698909 C11.5020293,10.8872197 10.8923024,12.0211131 9.8712198,12.7970618 C8.85013723,13.5730836 7.60284561,13.9623 6.12298827,13.9623 C4.31010093,13.9623 2.83681944,13.3924672 1.70248621,12.2546284 C0.565157327,11.1144514 0,9.54377637 0,7.53412772 C0,5.65541128 0.54835239,4.11330459 1.64447265,2.91650238 C2.74431922,1.71655838 4.24171215,1.1156 6.14300807,1.1156 C9.43582581,1.1156 11.2895565,2.72638764 11.7042,5.94504034" id="Fill-1"></path>
                <path d="M15.8046,3.5724 L15.8046,6.689 L17.842514,6.689 C18.4833625,6.689 18.9527286,6.65480544 19.2440366,6.57392217 C19.5353446,6.48967789 19.7924585,6.31256762 20.0216617,6.02878203 C20.2479423,5.74572709 20.3609,5.42285157 20.3609,5.05869416 C20.3609,4.71265694 20.2479423,4.40176412 20.0216617,4.12791541 C19.7924585,3.85333605 19.5457198,3.70830144 19.2782308,3.64626901 C19.010961,3.58065638 18.5071815,3.5724 17.7707647,3.5724 L15.8046,3.5724 L15.8046,3.5724 Z M15.8045784,8.91447605 L15.8045784,13.8123 L12.688,13.8123 L12.688,1.3465 L18.6647726,1.3465 C19.774992,1.3465 20.669378,1.44579503 21.3406973,1.6796023 C22.0124549,1.9133365 22.5709621,2.33389733 23.0127849,2.95984324 C23.4548269,3.58659285 23.6741673,4.28005061 23.6741673,5.04642701 C23.6741673,6.54513162 22.8823643,7.63628093 21.2961278,8.28750724 L23.8249,13.8123 L20.2820616,13.8123 L18.1750193,8.91447605 L15.8045784,8.91447605 L15.8045784,8.91447605 Z" id="Fill-2"></path>
                <path d="M27.9041,8.9145 L30.8131,8.9145 L29.3599152,4.5435 L27.9041,8.9145 L27.9041,8.9145 Z M31.5667149,1.3465 L35.853,13.8123 L32.3993636,13.8123 L31.5667149,11.1405405 L27.1295506,11.1405405 L26.2659953,13.8123 L23.4565,13.8123 L27.8420804,1.3465 L31.5667149,1.3465 L31.5667149,1.3465 Z" id="Fill-3"></path>
                <path d="M45.6779342,4.04747316 L42.9470618,4.87610161 C42.5810068,3.89206423 41.7992858,3.39953409 40.6109588,3.39953409 C39.3358307,3.39953409 38.7022853,3.77362611 38.7022853,4.52137177 C38.7022853,4.820207 38.8216733,5.07279218 39.0584765,5.27825053 C39.2948414,5.4869968 39.8325988,5.66461745 40.6689723,5.81746911 C42.0667762,6.07290382 43.0914379,6.33140725 43.7424459,6.59349086 C44.3900929,6.85484383 44.9377871,7.27533203 45.3836289,7.85802419 C45.8288862,8.44057023 46.0483,9.08843624 46.0483,9.8091479 C46.0483,10.9339082 45.5722824,11.9055245 44.6193704,12.7283078 C43.6669699,13.5513833 42.2521418,13.9623 40.3779549,13.9623 C38.9730637,13.9623 37.7767726,13.6698214 36.7903239,13.0905633 C35.8034367,12.5079442 35.1524288,11.644683 34.8373,10.5002683 L37.8078983,9.88951923 C38.1437775,11.0523463 39.0726511,11.6318967 40.6005836,11.6318967 C41.3336434,11.6318967 41.885137,11.5035948 42.2451276,11.2448722 C42.6078216,10.9861495 42.7861729,10.6784735 42.7861729,10.3200173 C42.7861729,9.9525742 42.6215578,9.67207824 42.2964922,9.46895797 C41.9672619,9.26992932 41.3336434,9.07974152 40.3981939,8.90153635 C38.6509207,8.575521 37.4069183,8.12661057 36.6634102,7.55582798 C35.9199752,6.98906395 35.5496094,6.15707453 35.5496094,5.06029809 C35.5496094,3.95380403 35.9920902,3.01930462 36.8795361,2.25884568 C37.7668358,1.49860593 38.9693374,1.1156 40.4874061,1.1156 C43.1805771,1.1156 44.9076113,2.09371912 45.6779342,4.04747316" id="Fill-4"></path>
                <polyline id="Fill-5" points="56.9853 2.0143 56.9853 14.4794 53.8684819 14.4794 53.8684819 9.36025027 49.6393181 9.36025027 49.6393181 14.4794 46.5225 14.4794 46.5225 2.0143 49.6393181 2.0143 49.6393181 6.91147841 53.8684819 6.91147841 53.8684819 2.0143 56.9853 2.0143"></polyline>
                <polyline id="Fill-6" points="67.9991322 3.99087424 61.4752882 3.63709472 61.3366105 6.18851575 66.4682705 6.46681937 66.3418678 8.81022506 61.2092579 8.53184837 61.0620316 11.2470075 67.5867523 11.6012254 67.4532622 14.0619 57.6683 13.5315961 58.3434223 1.0894 68.1278 1.61992314 67.9991322 3.99087424"></polyline>
                <path d="M72.1928758,3.4524 L71.9381,11.272 L73.2629779,11.3154004 C74.4342012,11.3536133 75.3168199,10.986171 75.910834,10.2113202 C76.5063094,9.43522732 76.8204866,8.51351653 76.8555575,7.4419501 C76.8796688,6.6885803 76.7386544,5.98262947 76.4376288,5.33038118 C76.13295,4.67842514 75.7427857,4.21636417 75.2729812,3.9425178 C74.7980622,3.66801384 74.2230449,3.51866965 73.5493906,3.4962388 L72.1928758,3.4524 L72.1928758,3.4524 Z M69.1170339,1.0607 L73.3017611,1.19703908 C75.0070992,1.25242227 76.2703937,1.50909922 77.0923754,1.96590091 C77.9143572,2.41978 78.6413543,3.12361407 79.2755589,4.07301924 C79.9061102,5.0224244 80.2005623,6.20432204 80.1545313,7.62119637 C80.0960793,9.40244529 79.4684506,10.8752873 78.2723759,12.0305893 C77.0755705,13.1891793 75.4601024,13.734974 73.4267023,13.668485 L68.7105,13.514245 L69.1170339,1.0607 L69.1170339,1.0607 Z" id="Fill-7"></path>
                <path d="M89.4052552,1.517 L89.7019,3.96372461 L86.3306704,4.37128067 L86.4125035,5.09856877 L86.2057289,5.12216874 C86.1611591,5.12216874 85.9733815,5.19647575 85.9412328,5.19479526 C85.4860364,5.17426402 85.4202777,5.32806565 84.9241648,5.26435305 C84.8722885,5.24316423 84.8196816,5.3415096 84.764152,5.32097836 L84.001351,5.80488725 C84.0532273,5.82403025 84.8613287,5.64925899 84.9146663,5.67088621 C85.2295775,5.79969964 85.2186177,5.59482564 85.608786,5.62215191 C85.711808,5.62850856 85.812638,5.81080551 85.8279817,5.70741866 C85.8484399,5.57370988 85.8484399,5.53198981 85.961691,5.53695823 C86.0069915,5.58203928 86.1881932,5.5978213 86.2298404,5.5978213 L86.4855687,5.63435375 L87.5304015,14.2948835 L84.3023797,14.686 L83.1026487,4.76144728 L79.7146142,5.17112223 L79.4187,2.72395923 L89.4052552,1.517" id="Fill-8"></path>
                <path d="M89.4520563,4.74895943 C89.6719827,4.30852571 89.9415934,3.89782929 90.2630804,3.51650487 C91.287455,2.30129356 92.7480291,1.6904 94.64188,1.6904 C96.5539973,1.6904 97.9992276,2.3421367 98.9724566,3.64151849 C99.9464162,4.94068108 100.4323,6.42710838 100.4323,8.10043506 C100.4323,9.06949155 100.287631,9.9565695 99.9990231,10.7635686 C99.9851408,10.8028043 99.7600998,10.684951 99.7527933,10.6240882 L99.497065,10.5510235 C99.3991576,10.4748902 98.9943762,10.4865074 98.9308094,10.4322935 C98.6875022,10.2202598 98.5552541,10.2575228 98.2644544,10.0943694 C97.931277,10.0943694 97.9203172,10.2118574 97.8713635,10.048704 C97.8560198,9.99653587 97.8026822,9.88255501 97.7712641,9.80211083 C97.6375547,9.45213114 97.0018872,9.35627031 97.0077324,9.30892442 C97.0501102,8.94696213 97.0712991,8.55029413 97.0712991,8.11884735 C97.0712991,5.42327312 96.2522378,4.07457269 94.6214218,4.07457269 C93.248526,4.07457269 92.4338486,4.96464629 92.1773896,6.74296688 C92.1722751,6.77898775 92.1006711,6.68787613 92.0444109,6.63293151 C91.8887819,6.48037251 92.0612159,6.52749921 91.9443115,6.3406729 L91.9625778,6.12147894 C91.8800141,5.98236384 91.7185399,5.85610812 91.697351,5.75615567 C91.7010043,5.56582225 91.5307623,5.45067236 91.375864,5.55983095 L91.3751333,5.55866192 L91.4145886,5.50042939 L91.4328549,5.37256625 C91.3196037,5.28123543 90.965968,5.43642475 90.7022025,5.345167 C90.5275766,5.34969701 90.4114029,5.35795332 90.4114029,5.34260974 L90.4114029,5.34092925 L90.4786229,5.39521629 C90.4647405,5.34312119 90.3843687,5.22607162 90.3551426,5.18077153 C90.3244552,5.13685968 90.2966904,5.0985738 90.2543126,5.06204147 C90.062151,4.89479648 89.4301367,4.79184839 89.4520563,4.74895943 L89.4520563,4.74895943 Z M94.5293527,14.5384 C92.6822722,14.5384 91.2531228,13.9058035 90.2426353,12.6471133 C89.2314171,11.3873272 88.728,9.86450716 88.728,8.07222353 C88.728,7.00737471 88.9026251,6.04613201 89.2533366,5.18783785 C89.2672189,5.15481249 89.7976701,5.19908986 89.7976701,5.19908986 C89.7976701,5.19908986 90.1381525,5.29078639 90.1615333,5.32658823 C90.1856447,5.36202473 90.2258304,5.38986249 90.2367901,5.43114419 L90.2367901,5.43282469 C90.2616322,5.5266401 90.5100528,5.72881087 90.7270556,5.72413471 C90.9769375,5.7174858 91.0616928,5.69089015 91.1325657,5.80012227 L91.2640825,5.81254332 C91.3181506,5.89846772 91.4408996,5.83928509 91.4664723,5.95100143 C91.5417291,6.29024207 91.437977,6.29616033 91.6155247,6.32984328 C91.6593636,6.48152615 91.8434872,6.90084599 91.8434872,6.90084599 C91.8434872,6.90084599 92.1335548,7.11010406 92.1291709,7.15642725 C92.1028675,7.45248649 92.0889852,7.76980764 92.0889852,8.10926747 C92.0889852,10.8047802 92.9321541,12.1537056 94.6214145,12.1537056 C95.8920131,12.1537056 96.6701542,11.3361817 96.951454,9.7025952 C97.1830698,9.81248491 97.4672922,9.71881562 97.5732363,9.99712008 C97.6017316,10.0709888 97.6864869,10.0905702 97.7003692,10.1417156 C97.7683196,10.3688746 97.7785487,10.4046765 98.1884427,10.4046765 C98.6049126,10.6981784 98.8569865,10.5819321 99.0798345,10.775262 C99.2274256,11.00359 99.6066324,10.810187 99.8967,11.0298203 C99.6563165,11.6230348 99.3319084,12.1720449 98.9278595,12.6740743 C97.9246785,13.914206 96.458266,14.5384 94.5293527,14.5384 L94.5293527,14.5384 Z" id="Fill-9"></path>
                <path d="M109.6056,0.0113 L105.794531,7.49506229 L105.847869,8.29519781 C105.847869,8.29519781 105.502272,8.37074709 105.461355,8.39573534 L105.24216,8.5235992 L104.602842,8.65146306 C104.476439,8.68492686 104.250669,8.87153504 104.063622,8.75192753 C103.943796,8.75192753 103.571895,8.80066193 103.415536,8.6605962 L102.858781,8.80058886 L103.124007,8.84398951 L103.362199,8.83741365 C103.399462,9.0299401 103.634,8.97864842 103.840044,8.99494193 C104.046817,9.0102856 104.305467,9.07326768 104.363189,9.05485529 C104.479362,9.01788436 105.461355,8.98025585 105.461355,8.98025585 L105.883671,8.82652696 L106.148166,12.7339735 L102.944998,12.9501 L102.590633,7.71250392 L97.8078,0.808585983 L101.523154,0.557388292 L104.45452,5.10020867 L106.730494,0.205214681 L109.6056,0.0113" id="Fill-10"></path>
                <path d="M117.9372,5.43826414 L115.086935,5.5670043 C114.974415,4.52188557 114.340211,3.85246598 113.187976,3.55830714 C111.953178,3.24369016 111.245178,3.44914834 111.061054,4.1742433 C110.986528,4.46387212 111.041327,4.73815734 111.219605,4.99578378 C111.396423,5.25662508 111.874268,5.56159751 112.646565,5.91588866 C113.937623,6.50888249 114.867009,7.01244501 115.433263,7.42664929 C115.996594,7.84085358 116.424024,8.38314044 116.71117,9.05811295 C116.752086,9.1549238 116.788618,9.25034641 116.820036,9.34708419 C116.727975,9.54077894 116.627145,9.70912022 116.538006,9.69078095 C116.502204,9.68296302 116.230402,9.78211194 116.08208,9.76786431 L116.039702,9.7330124 L115.832198,9.71240813 C115.756941,9.67551041 115.551628,9.82543936 115.504867,9.79387537 C115.330972,9.68091721 115.254984,9.44616004 115.027752,9.67331847 C114.887468,9.81338367 114.67631,9.95746743 114.67631,9.95746743 C114.67631,9.95746743 114.365053,10.0677222 114.275183,10.105862 L114.158279,10.2505303 L114.394279,10.2505303 L114.584979,10.2405935 C114.671195,10.2047187 114.834861,10.1597838 114.941536,10.1218632 C115.212607,10.0251254 115.242563,10.3686761 115.398192,10.2131942 C115.466873,10.1445133 115.53117,10.0994323 115.53117,10.0994323 C115.53117,10.0994323 115.601312,10.137426 115.69922,10.2405935 C115.783975,10.2969264 116.184371,10.1459746 116.289585,10.1155796 C116.468594,10.0601235 116.620569,10.1760042 116.740396,9.91180194 C116.795925,9.84005232 116.930365,9.78203887 116.942055,9.85780706 C117.004891,10.2714999 116.980779,10.6887729 116.873374,11.1124025 C116.594996,12.2023831 115.894303,13.0274306 114.768372,13.588276 C113.640979,14.1501442 112.16872,14.1992437 110.352324,13.736013 C108.991123,13.3892475 107.904647,12.8099168 107.091434,12.0046697 C106.278951,11.1970116 105.862481,10.1993119 105.8391,9.0136165 L108.868374,9.15580057 C108.906368,10.3644383 109.663321,11.15573 111.144348,11.5328904 C111.85454,11.7146025 112.420063,11.7262929 112.833611,11.5645275 C113.24862,11.4036388 113.497041,11.1493733 113.586911,10.8015119 C113.677511,10.4459786 113.586911,10.1329691 113.321685,9.85707641 C113.052075,9.58198748 112.48436,9.2416517 111.622924,8.8384802 C110.009649,8.08963918 108.915136,7.347374 108.33573,6.61146545 C107.755595,5.87840643 107.602158,4.98065937 107.87396,3.9175667 C108.147223,2.84599852 108.806269,2.049227 109.85329,1.53178217 C110.901042,1.01404508 112.162144,0.939445929 113.632211,1.31499894 C116.242092,1.98010771 117.673435,3.35452944 117.9372,5.43826414" id="Fill-11"></path>
            </g>
            <g id="RMC" transform="translate(1.000000, 83.000000)">
                <path d="M28.6901212,3.29547367 C28.670458,2.93344744 28.421301,2.92240348 28.2898538,2.9207873 C27.6778701,2.91189826 26.924473,2.90785779 26.2184831,2.95957582 C25.5122239,3.01102449 25.4298,3.67016004 25.4298,3.67016004 C25.7320208,3.40752941 26.3006376,3.39890973 26.3006376,3.39890973 C26.3006376,3.39890973 27.211071,3.38167039 27.8190143,3.39890973 C28.1605615,3.40860686 28.1285077,3.6949416 27.9251417,3.79945512 C27.4227872,4.05804529 26.6949792,4.29077643 26.336193,4.36835348 C26.7127569,4.4370415 27.6296549,4.46613289 28.1996185,4.38532346 C28.6863502,4.31663545 28.6901212,4.06235512 28.701973,3.84255348 C28.7122087,3.64914959 28.7003569,3.48079662 28.6901212,3.29547367 L28.6901212,3.29547367 Z" id="Fill-1" fill="#FEFEFE"></path>
                <path d="M1.5249807,7.80614511 C1.53440834,7.93813272 1.55083938,8.13530604 1.57211891,8.27133409 C1.60444226,8.47820446 1.6055197,8.57517495 1.97212032,8.68507483 C2.49010193,8.84022761 5.58533165,9.63700177 6.24445855,9.76629576 C6.55045289,9.81801335 7.06681833,10.0097994 7.49213969,9.58528418 C7.75099582,9.32696558 7.86278072,9.21706569 8.03355573,9.04251882 C8.17658654,8.896255 8.30426376,8.83106929 8.78695905,8.80978965 C9.26938499,8.78877938 9.70305654,8.75807206 9.70305654,8.75807206 L8.12783216,8.52561225 C8.12783216,8.52561225 7.6844636,8.45827164 7.37442884,8.80978965 C7.1920713,9.01666002 7.17914196,9.02204727 7.11557271,9.09423641 C6.90951139,9.32696558 6.76001591,9.42393607 6.33873497,9.35282438 C5.82856483,9.26662839 3.79273277,8.78851002 2.44296372,8.41355747 C2.37400725,8.39443273 2.2576432,8.35860753 2.23717175,8.19699005 C2.2263973,8.11294896 2.23528622,8.08762889 2.23232325,7.9906584 C2.22882155,7.87537127 2.28673422,7.81611152 2.5000683,7.82580857 C4.79125479,7.92924376 10.3805,8.2066871 10.3805,8.2066871 L10.3805,7.82284559 C9.92043105,7.81611152 7.59261143,7.7194104 1.93306294,7.47860036 C1.71326419,7.47860036 1.50154627,7.47644546 1.5249807,7.80614511" id="Fill-3" fill="#FEFEFE"></path>
                <path d="M7.44151496,6.66883312 C6.34280259,6.63597139 2.8433,6.92741722 2.8433,6.92741722 C2.8433,6.92741722 6.31155703,7.06505938 8.47719749,7.13401513 C8.94884381,7.14909921 9.16567722,6.71704828 8.86965248,6.49644373 C7.55141313,5.51436289 5.6211918,4.911 5.6211918,4.911 C6.32717981,5.29025667 7.3631317,6.04850066 7.58265869,6.27260687 C7.80245503,6.49644373 7.6303351,6.67448965 7.44151496,6.66883312" id="Fill-5" fill="#FEFEFE"></path>
                <path d="M14.3987273,3.92861289 C14.3979192,3.92753545 14.3340808,3.92753545 14.3332727,3.92861289 C9.24477883,3.89925265 5.6542001,4.12659244 3.8845,4.2707 C4.49567953,2.81911933 4.99291947,1.88740333 5.25015898,1.46666312 C5.49446917,1.0674717 5.80935189,1.00794315 6.04477318,0.956226048 C9.06780882,0.528751837 14.0951578,0.51716936 14.3658653,0.5169 C14.6365729,0.51716936 19.6641912,0.528751837 22.6872268,0.956226048 C22.9226481,1.00794315 23.2375308,1.0674717 23.481841,1.46666312 C23.7390805,1.88740333 24.2363205,2.81911933 24.8475,4.2707 C23.0777999,4.12659244 19.4869518,3.89925265 14.3987273,3.92861289 M25.3027142,4.30894531 C25.0909971,3.80928327 24.4143645,2.24888319 23.8171931,1.2923873 C23.6289104,1.03380209 23.3716715,0.63245631 22.6400894,0.516901047 C21.2542315,0.297642343 18.1805632,0.0269359587 14.3782757,0 L14.3537639,0 C10.5514764,0.0269359587 7.47780807,0.297642343 6.09195024,0.516901047 C5.36009879,0.63245631 5.10312923,1.03380209 4.91484651,1.2923873 C4.31767512,2.24888319 3.64077313,3.80955263 3.42932543,4.30921467 C1.86892224,4.44982037 1.49316487,5.23931332 1.27390573,5.54880749 C0.536397717,6.63432662 0.206700927,8.32321123 0.143940018,9.23660959 C0.0445461332,10.6836093 0.0184182013,11.4001058 0.0184182013,11.4001058 L0.000101712963,17.6231203 C-0.000437007282,17.7947024 0.12616225,17.9345 0.282391121,17.9345 L4.82057046,17.9345 C4.97652997,17.9345 5.10312923,17.7955105 5.10312923,17.6241978 L5.10312923,15.8116771 L10.3917459,15.8116771 L10.3917459,15.191342 L1.21114482,15.191342 C1.21114482,15.191342 1.51228944,15.8116771 2.24683449,15.8116771 L4.60885341,15.8116771 L4.60885341,16.6784762 C4.60885341,16.7926847 4.52454369,16.8853444 4.42057068,16.8853444 L0.646027287,16.8853444 C0.542054279,16.8853444 0.457744561,16.7926847 0.457744561,16.6784762 L0.457744561,11.3658971 C0.457744561,11.0900729 0.502458341,10.7194341 0.583266378,9.23660959 C0.630404399,8.37492827 0.928586055,6.82395577 1.65047118,5.68645023 C1.88023537,5.32443095 2.46555491,4.7595839 3.53383716,4.68712617 C6.32737099,4.49749702 14.3623834,4.37682392 14.3623834,4.37682392 L14.3696562,4.37682392 C14.3696562,4.37682392 22.4046686,4.49749702 25.1982024,4.68712617 C25.8454748,4.73103178 26.3155082,4.95567768 26.6363161,5.20672081 C26.6417033,5.21183864 27.1987401,5.19998682 27.2114,5.20537401 C26.9401544,4.84631768 26.4720065,4.41426491 25.3027142,4.30894531" id="Fill-7" fill="#FEFEFE"></path>
                <path d="M23.2758102,1.80924608 C23.1109618,1.53126853 22.8992448,1.39578142 22.616686,1.34406466 C20.1463841,0.995515299 14.7753427,0.934640371 14.3783059,0.9306 L14.3540635,0.9306 C13.9567573,0.934640371 8.58571594,0.995515299 6.11541404,1.34406466 C5.83285525,1.39578142 5.62113817,1.53126853 5.45628976,1.80924608 C5.3350777,2.01368887 4.76187931,3.10162618 4.4206,4.0064 C4.95016205,3.10809078 5.42100358,2.33907344 5.70356238,1.91267959 C5.79756907,1.7833877 5.98046461,1.63012295 6.31554863,1.58944988 C7.80861192,1.40871061 10.9924488,1.24090052 14.3661847,1.24063116 C17.7396512,1.24090052 20.9234881,1.40871061 22.4165514,1.58944988 C22.7516354,1.63012295 22.9345309,1.7833877 23.0285376,1.91267959 C23.3110964,2.33907344 23.781938,3.10809078 24.3115,4.0064 C23.9702207,3.10162618 23.3970223,2.01368887 23.2758102,1.80924608" id="Fill-9" fill="#FEFEFE"></path>
                <path d="M0.532330661,4.38544513 C1.10255983,4.46625302 2.01945171,4.43716218 2.39601306,4.36820612 C2.03695992,4.29063054 1.3091568,4.05790382 0.807074995,3.79958794 C0.603710316,3.69480705 0.571387454,3.40847776 0.91293237,3.39878082 C1.5211409,3.3815418 2.43129885,3.39878082 2.43129885,3.39878082 C2.43129885,3.39878082 3.00018123,3.40740032 3.3024,3.67029532 C3.3024,3.67029532 3.2199767,3.01117231 2.51372215,2.95945526 C1.8074676,2.90773822 1.05407554,2.91204797 0.442096003,2.92066748 C0.310649694,2.92255299 0.0614942936,2.93359674 0.0418312187,3.29561608 C0.0318650027,3.4809355 0.0197439292,3.64901591 0.0302488596,3.84268548 C0.0418312187,4.06221358 0.0458715766,4.31648907 0.532330661,4.38544513" id="Fill-11" fill="#FEFEFE"></path>
                <path d="M5.82644024,13.3611 C5.17808738,13.1170625 3.8399,12.5902 3.8399,12.5902 C3.8399,12.5902 4.41929635,13.0195552 5.44017601,13.6245312 C6.26927036,14.1158386 6.69566944,14.132 7.30711979,14.132 L10.4031596,14.132 L10.4072,13.6245312 L7.26132835,13.6245312 C6.7231443,13.6245312 6.15344496,13.4841962 5.82644024,13.3611" id="Fill-13" fill="#FEFEFE"></path>
                <path d="M12.8179,10.7612 L13.9540494,10.7612 C15.1413768,10.7612 15.8945,10.0452464 15.8945,8.96404338 C15.8945,7.74250483 15.0901989,7.20890662 13.9158007,7.1949 C13.3795101,7.1949 12.9967533,7.25119582 12.8179,7.30722229 L12.8179,10.7612 Z M11.7073,6.45093302 C12.2689152,6.32433368 13.0732235,6.2543 13.8392828,6.2543 C15.0263515,6.2543 15.7924107,6.49295323 16.3284367,7.026556 C16.7626447,7.44756616 17.0050685,8.09349218 17.0050685,8.82372797 C17.0050685,10.0730211 16.2901876,10.9015734 15.3837919,11.2382738 L15.3837919,11.2808327 C16.0477638,11.5332233 16.4434534,12.2071628 16.6476281,13.1903279 C16.9285704,14.5099241 17.1327451,15.4225168 17.3116,15.7875 L16.1625111,15.7875 C16.0221746,15.5208333 15.8306598,14.7062877 15.588236,13.5272977 C15.3326135,12.2214389 14.8730857,11.7301257 13.8646026,11.6875668 L12.8178705,11.6875668 L12.8178705,15.7875 L11.7073,15.7875 L11.7073,6.45093302 Z" id="Fill-15" fill="#FEFEFE"></path>
                <path d="M21.8042279,11.7301 C21.8168879,10.9438419 21.5106235,9.7223 20.2467774,9.7223 C19.1106089,9.7223 18.6125588,10.8735392 18.5234,11.7301 L21.8042279,11.7301 Z M18.5104146,12.6144161 C18.5360036,14.2852649 19.5062315,14.9732139 20.6297242,14.9732139 C21.4337582,14.9732139 21.9188721,14.8188698 22.3401482,14.622236 L22.5316618,15.5068188 C22.1359747,15.7034526 21.4593472,15.9281 20.4764594,15.9281 C18.5742525,15.9281 17.4381,14.552202 17.4381,12.5020924 C17.4381,10.4525216 18.5360036,8.8377 20.3361239,8.8377 C22.3530774,8.8377 22.8891,10.7892233 22.8891,12.0387908 C22.8891,12.2917212 22.8637803,12.4880856 22.8508511,12.6144161 L18.5104146,12.6144161 Z" id="Fill-17" fill="#FEFEFE"></path>
                <path d="M24.8544,13.021582 C24.8544,13.2042086 24.879989,13.3728283 24.9053087,13.527172 C25.1097515,14.3834695 25.786379,14.9731 26.5906822,14.9731 C27.7777433,14.9731 28.4673,13.9061624 28.4673,12.3476417 C28.4673,10.9857542 27.8162615,9.8205 26.6289311,9.8205 C25.8628767,9.8205 25.1480003,10.4241372 24.9308977,11.3510073 C24.8926488,11.5053509 24.8544,11.6877081 24.8544,11.8563278 L24.8544,13.021582 Z M23.7437783,11.2103869 C23.7437783,10.3398173 23.7181892,9.63786676 23.6926,8.99221229 L24.7010827,8.99221229 L24.7522611,10.157461 L24.7778502,10.157461 C25.2373779,9.32918089 25.9649184,8.8376 26.9734012,8.8376 C28.46727,8.8376 29.5905,10.2277638 29.5905,12.2915955 C29.5905,14.7344158 28.2375062,15.941954 26.7818864,15.941954 C25.9649184,15.941954 25.2500378,15.5489586 24.8799376,14.8750214 L24.8543484,14.8750214 L24.8543484,18.5674 L23.7437783,18.5674 L23.7437783,11.2103869 Z" id="Fill-19" fill="#FEFEFE"></path>
                <mask id="mask-2" fill="white">
                    <use xlink:href="#path-1"></use>
                </mask>
                <g id="Clip-22"></g>
                <polygon id="Fill-21" fill="#FEFEFE" mask="url(#mask-2)" points="30.5086 15.7877 31.6318 15.7877 31.6318 5.8192 30.5086 5.8192"></polygon>
                <path d="M36.1862,12.3195013 C34.9606272,12.2914882 33.5694,12.5301383 33.5694,13.8499866 C33.5694,14.6502456 34.054242,15.0295 34.6287798,15.0295 C35.4330788,15.0295 35.943779,14.4678911 36.1223625,13.8920063 C36.1606111,13.7656779 36.1862,13.6253431 36.1862,13.4990147 L36.1862,12.3195013 Z M36.352181,15.7875567 L36.2630224,14.930992 L36.224773,14.930992 C35.8799903,15.4645941 35.2160141,15.9419 34.3352018,15.9419 C33.0840175,15.9419 32.4459,14.9732815 32.4459,13.990387 C32.4459,12.3475605 33.773583,11.449245 36.160665,11.4629823 L36.160665,11.3229151 C36.160665,10.7612996 36.0203276,9.7503916 34.7564833,9.7503916 C34.1822045,9.7503916 33.582067,9.94675502 33.1481255,10.2557109 L32.8925014,9.44143571 C33.4032109,9.07645294 34.1436858,8.8378 34.92241,8.8378 C36.8119812,8.8378 37.271512,10.2557109 37.271512,11.6178643 L37.271512,14.158737 C37.271512,14.7486353 37.2971013,15.3242576 37.3736,15.7875567 L36.352181,15.7875567 Z" id="Fill-23" fill="#FEFEFE" mask="url(#mask-2)"></path>
                <path d="M42.9337106,15.534832 C42.640106,15.7034524 41.9890579,15.9281 41.1591534,15.9281 C39.2954373,15.9281 38.0825,14.5381939 38.0825,12.4600687 C38.0825,10.3679367 39.3848655,8.8517 41.4018486,8.8517 C42.0655567,8.8517 42.6530353,9.0343272 42.9593,9.20267823 L42.7039448,10.1575653 C42.4359295,9.9889449 42.0146473,9.83460067 41.4018486,9.83460067 C39.9847348,9.83460067 39.2186691,10.9858524 39.2186691,12.4040415 C39.2186691,13.9765748 40.1380018,14.9454687 41.3633298,14.9454687 C42.0019873,14.9454687 42.4230001,14.7628415 42.7421942,14.6082279 L42.9337106,15.534832 Z" id="Fill-24" fill="#FEFEFE" mask="url(#mask-2)"></path>
                <path d="M47.4547279,11.7301 C47.4673879,10.9438419 47.1611235,9.7223 45.8972774,9.7223 C44.7611089,9.7223 44.2630588,10.8735392 44.1739,11.7301 L47.4547279,11.7301 Z M44.1609146,12.6144161 C44.1865036,14.2852649 45.1567315,14.9732139 46.2802242,14.9732139 C47.0842582,14.9732139 47.5693721,14.8188698 47.9906482,14.622236 L48.1821618,15.5068188 C47.7864747,15.7034526 47.1098472,15.9281 46.1269594,15.9281 C44.2247525,15.9281 43.0886,14.552202 43.0886,12.5020924 C43.0886,10.4525216 44.1865036,8.8377 45.9866239,8.8377 C48.0035774,8.8377 48.5396,10.7892233 48.5396,12.0387908 C48.5396,12.2917212 48.5142803,12.4880856 48.5013511,12.6144161 L44.1609146,12.6144161 Z" id="Fill-25" fill="#FEFEFE" mask="url(#mask-2)"></path>
                <path d="M56.7306476,11.631725 C56.6670788,10.3121242 56.5903114,8.72531696 56.6029713,7.54605334 L56.5647222,7.54605334 C56.2711206,8.65528304 55.9136807,9.83454666 55.4794735,11.1404101 L53.9605561,15.7314035 L53.1180001,15.7314035 L51.7264898,11.2244508 C51.318141,9.89084316 50.9733611,8.66928982 50.7309377,7.54605334 L50.7053485,7.54605334 C50.6797594,8.72531696 50.6159212,10.3121242 50.5394232,11.7300419 L50.3096596,15.7877 L49.25,15.7877 L49.8501326,6.3245 L51.2669627,6.3245 L52.7352405,10.901756 C53.092411,12.0670128 53.3860127,13.1059392 53.6031163,14.0888385 L53.6413653,14.0888385 C53.8584689,13.1339528 54.1649999,12.0950264 54.5477595,10.901756 L56.0796061,6.3245 L57.4967056,6.3245 L58.033,15.7877 L56.9477512,15.7877 L56.7306476,11.631725 Z" id="Fill-26" fill="#FEFEFE" mask="url(#mask-2)"></path>
                <path d="M59.3716231,8.9921 L60.7248926,13.0077427 C60.8652297,13.4570378 61.018496,13.9903738 61.1205839,14.3976485 L61.1461731,14.3976485 C61.2611903,13.9903738 61.388598,13.4707753 61.5421338,12.9794597 L62.7674568,8.9921 L63.9548,8.9921 L62.2696778,13.8360296 C61.4650965,16.1665462 60.9164082,17.3600874 60.150615,18.0903267 C59.6016573,18.6236627 59.0524303,18.8343034 58.7714868,18.8906 L58.4908127,17.851403 C58.7714868,17.753086 59.1418582,17.556452 59.4739802,17.2477636 C59.7802437,16.9810956 60.1630056,16.5035175 60.4186292,15.8718646 C60.4695384,15.745534 60.508057,15.647217 60.508057,15.5769136 C60.508057,15.5066102 60.4824677,15.4085626 60.4312891,15.2542184 L58.1463,8.9921 L59.3716231,8.9921 Z" id="Fill-27" fill="#FEFEFE" mask="url(#mask-2)"></path>
                <path d="M70.6177401,15.4787077 C70.2091203,15.7033539 69.3921501,15.928 68.3451462,15.928 C65.9198249,15.928 64.0941,14.243154 64.0941,11.1403977 C64.0941,8.17797783 65.9198249,6.1699 68.5878399,6.1699 C69.6601638,6.1699 70.3367971,6.42282892 70.6304,6.59117884 L70.3623864,7.58807971 C69.9408373,7.36343358 69.3409717,7.19508366 68.6260891,7.19508366 C66.6091183,7.19508366 65.2687808,8.61299402 65.2687808,11.0981082 C65.2687808,13.4148724 66.4814414,14.9028163 68.57518,14.9028163 C69.2518134,14.9028163 69.9408373,14.7484731 70.3877063,14.5098203 L70.6177401,15.4787077 Z" id="Fill-28" fill="#FEFEFE" mask="url(#mask-2)"></path>
                <path d="M74.4079,12.3195013 C73.1823128,12.2914882 71.7908,12.5301383 71.7908,13.8499866 C71.7908,14.6502456 72.2761864,15.0295 72.8504615,15.0295 C73.6547699,15.0295 74.1654762,14.4678911 74.3443311,13.8920063 C74.3823108,13.7656779 74.4079,13.6253431 74.4079,13.4990147 L74.4079,12.3195013 Z M74.573881,15.7875567 L74.484453,14.930992 L74.446473,14.930992 C74.1014209,15.4645941 73.4377141,15.9419 72.5569018,15.9419 C71.3057175,15.9419 70.6676,14.9732815 70.6676,13.990387 C70.6676,12.3475605 71.995283,11.449245 74.382365,11.4629823 L74.382365,11.3229151 C74.382365,10.7612996 74.2420276,9.7503916 72.9781833,9.7503916 C72.4039045,9.7503916 71.803767,9.94675502 71.3698255,10.2557109 L71.1142014,9.44143571 C71.6249109,9.07645294 72.3653858,8.8378 73.1443794,8.8378 C75.0334118,8.8378 75.4929426,10.2557109 75.4929426,11.6178643 L75.4929426,14.158737 C75.4929426,14.7486353 75.518532,15.3242576 75.5953,15.7875567 L74.573881,15.7875567 Z" id="Fill-29" fill="#FEFEFE" mask="url(#mask-2)"></path>
                <path d="M76.8582099,11.1121898 C76.8582099,10.3119163 76.8452804,9.62396666 76.8073,8.99204423 L77.7902106,8.99204423 L77.8284603,10.3259231 L77.8793702,10.3259231 C78.1603172,9.41332585 78.8369605,8.8377 79.5901032,8.8377 C79.7177819,8.8377 79.8069415,8.85170681 79.9093,8.87972042 L79.9093,10.0452483 C79.7942814,10.0172347 79.6795322,10.0029585 79.5262639,10.0029585 C78.7348714,10.0029585 78.1729773,10.6628946 78.019709,11.5894986 C77.9943887,11.7578497 77.9687991,11.954753 77.9687991,12.1651245 L77.9687991,15.7875 L76.8582099,15.7875 L76.8582099,11.1121898 Z" id="Fill-30" fill="#FEFEFE" mask="url(#mask-2)"></path>
            </g>
            <g id="CopartMobile-white" transform="translate(1.000000, 106.000000)">
                <path d="M29.4344,8.0608 C29.4344,6.148 29.048,5.32 27.852,5.32 C26.5096,5.32 26.1968,6.6632 26.1968,10.3792 C26.1968,14.352 26.7488,15.0704 27.8888,15.0704 C28.8456,15.0704 29.5448,14.5736 29.5448,11.7408 L32.1936,11.7408 C32.1936,14.5736 31.4944,17.02 28.0176,17.02 C24.044,17.02 23.5472,14.1864 23.5472,10.1952 C23.5472,6.2032 24.044,3.3704 28.0176,3.3704 C31.8072,3.3704 32.0832,6.148 32.0832,8.0608 L29.4344,8.0608" id="Fill-1" fill="#FFFFFE"></path>
                <g id="Group-5" transform="translate(32.800000, 6.400000)">
                    <mask id="mask-4" fill="white">
                        <use xlink:href="#path-3"></use>
                    </mask>
                    <g id="Clip-3"></g>
                    <path d="M4.184,8.8904 C5.2144,8.8904 5.5448,7.8792 5.5448,5.4144 C5.5448,2.9488 5.2144,1.9376 4.184,1.9376 C2.9328,1.9376 2.8232,3.3904 2.8232,5.4144 C2.8232,7.4376 2.9328,8.8904 4.184,8.8904 Z M4.184,0.207952998 C7.2376,0.151952845 8.084,1.97435784 8.084,5.41436726 C8.084,8.79917654 7.0904,10.6199815 4.184,10.6199815 C1.1304,10.6751817 0.284,8.85357668 0.284,5.41436726 C0.284,2.02875799 1.2776,0.207952998 4.184,0.207952998 L4.184,0.207952998 Z" id="Fill-2" fill="#FFFFFE" mask="url(#mask-4)"></path>
                    <path d="M13.064,8.6704 C14.168,8.6704 14.3888,7.5664 14.3888,5.4144 C14.3888,3.2616 14.168,2.1576 13.064,2.1576 C11.9416,2.1576 11.7208,3.2616 11.7208,5.4144 C11.7208,7.5664 11.9416,8.6704 13.064,8.6704 Z M9.1824,0.4656 L11.6104,0.4656 L11.6104,1.5144 L11.6472,1.5144 C12.1992,0.5944 12.8984,0.208 13.892,0.208 C15.9704,0.208 16.9272,1.7352 16.9272,5.4144 C16.9272,9.0928 15.9704,10.62 13.892,10.62 C12.9352,10.62 12.2912,10.2336 11.7576,9.4432 L11.7208,9.4432 L11.7208,13.6 L9.1824,13.6 L9.1824,0.4656 L9.1824,0.4656 Z" id="Fill-4" fill="#FFFFFE" mask="url(#mask-4)"></path>
                </g>
                <path d="M55.464,11.8144 C55.1152,12.072 54.692,12.2368 54.3792,12.3112 C53.3496,12.5312 52.944,13.028 52.944,13.9112 C52.944,14.6656 53.2208,15.2904 53.9008,15.2904 C54.5816,15.2904 55.464,14.8488 55.464,13.764 L55.464,11.8144 Z M50.8288,9.9008 L50.8288,9.6616 C50.8288,7.3808 52.3928,6.608 54.3056,6.608 C57.3232,6.608 57.8936,7.8584 57.8936,9.6432 L57.8936,14.8488 C57.8936,15.7688 57.948,16.192 58.2064,16.7624 L55.7776,16.7624 C55.612,16.4504 55.5384,16.0632 55.464,15.732 L55.4272,15.732 C54.8392,16.7624 54.1224,17.02 52.9072,17.02 C51.1416,17.02 50.516,15.512 50.516,14.1864 C50.516,12.3288 51.2704,11.5752 53.0184,11.0968 L54.4528,10.7104 C55.2072,10.508 55.464,10.2136 55.464,9.5512 C55.464,8.7968 55.1336,8.3376 54.2872,8.3376 C53.5144,8.3376 53.1096,8.852 53.1096,9.6248 L53.1096,9.9008 L50.8288,9.9008 L50.8288,9.9008 Z" id="Fill-6" fill="#FFFFFE"></path>
                <path d="M59.3688,6.8656 L61.7968,6.8656 L61.7968,8.1896 L61.8336,8.1896 C62.3488,7.2336 63.0664,6.608 64.1144,6.608 C64.2624,6.608 64.428,6.6264 64.5752,6.6448 L64.5752,9.0728 C64.3168,9.0544 64.0416,9.036 63.7832,9.036 C62.9008,9.036 61.908,9.496 61.908,10.82 L61.908,16.7624 L59.3688,16.7624 L59.3688,6.8656" id="Fill-7" fill="#FFFFFE"></path>
                <path d="M66.228,4.0328 L68.7664,4.0328 L68.7664,6.8656 L70.2384,6.8656 L70.2384,8.5944 L68.7664,8.5944 L68.7664,13.948 C68.7664,14.72 68.932,15.0336 69.668,15.0336 C69.8704,15.0336 70.0728,15.0152 70.2384,14.9968 L70.2384,16.7624 C69.6856,16.8184 69.1712,16.8728 68.5824,16.8728 C66.596,16.8728 66.228,16.2656 66.228,14.2608 L66.228,8.5944 L64.94,8.5944 L64.94,6.8656 L66.228,6.8656 L66.228,4.0328" id="Fill-8" fill="#FFFFFE"></path>
                <polyline id="Fill-9" fill="#FFFFFE" points="75.428 3.628 78.1504 3.628 80.7808 14.04 80.8176 14.04 83.448 3.628 86.1712 3.628 86.1712 16.7624 84.552 16.7624 84.552 5.284 84.5152 5.284 81.6096 16.7624 79.9896 16.7624 77.0832 5.284 77.0464 5.284 77.0464 16.7624 75.428 16.7624 75.428 3.628"></polyline>
                <path d="M93.1176,11.832 C93.1176,9.6984 92.8056,7.8584 91.1488,7.8584 C89.5856,7.8584 89.2544,9.6984 89.2544,11.832 C89.2544,13.9664 89.5672,15.8064 91.1488,15.8064 C92.7864,15.8064 93.1176,13.9664 93.1176,11.832 Z M91.1856,6.6448 C94.0376,6.6448 94.7368,9.0544 94.7368,11.832 C94.7368,14.6104 94.0192,17.02 91.1856,17.02 C88.3352,17.02 87.636,14.6104 87.636,11.832 C87.636,9.0544 88.3528,6.6448 91.1856,6.6448 L91.1856,6.6448 Z" id="Fill-10" fill="#FFFFFE"></path>
                <path d="M99.376,15.6952 C100.8112,15.6952 101.1792,14.0768 101.1792,11.832 C101.1792,9.4776 100.8112,7.9696 99.376,7.9696 C97.72,7.9696 97.3888,9.9192 97.3888,11.832 C97.3888,13.856 97.72,15.6952 99.376,15.6952 Z M95.936,3.628 L97.4808,3.628 L97.4808,8.024 L97.5176,8.024 C97.868,7.1784 98.8056,6.6448 99.7992,6.6448 C102.4664,6.6448 102.7976,9.772 102.7976,11.832 C102.7976,14.6104 101.8592,17.02 99.5784,17.02 C98.512,17.02 97.6464,16.284 97.4448,15.5488 L97.408,15.5488 L97.408,16.7624 L95.936,16.7624 L95.936,3.628 L95.936,3.628 Z" id="Fill-11" fill="#FFFFFE"></path>
                <path d="M104.096,16.7624 L105.6416,16.7624 L105.6416,6.9024 L104.096,6.9024 L104.096,16.7624 Z M104.096,5.3936 L105.6416,5.3936 L105.6416,3.628 L104.096,3.628 L104.096,5.3936 Z" id="Fill-12" fill="#FFFFFE"></path>
                <polygon id="Fill-13" fill="#FFFFFE" points="107.2864 16.7624 108.832 16.7624 108.832 3.628 107.2864 3.628"></polygon>
                <g id="Group-17">
                    <mask id="mask-6" fill="white">
                        <use xlink:href="#path-5"></use>
                    </mask>
                    <g id="Clip-15"></g>
                    <path d="M115.3392,10.8024 L115.3392,10.2688 C115.3392,9.1648 114.9896,7.8584 113.6288,7.8584 C112.0096,7.8584 111.8256,9.8456 111.8256,10.4344 L111.8256,10.8024 L115.3392,10.8024 Z M111.7704,12.0168 C111.7704,13.5248 111.7704,15.8064 113.6656,15.8064 C115.1368,15.8064 115.3392,14.2608 115.3392,13.5248 L116.884,13.5248 C116.884,14.5736 116.2592,17.02 113.5736,17.02 C111.1632,17.02 110.1512,15.3464 110.1512,11.9608 C110.1512,9.496 110.6296,6.6448 113.6656,6.6448 C116.6816,6.6448 116.9584,9.2752 116.9584,11.3904 L116.9584,12.0168 L111.7704,12.0168 L111.7704,12.0168 Z" id="Fill-14" fill="#FFFFFE" mask="url(#mask-6)"></path>
                    <path d="M16.4928213,8.552 L16.4488214,8.9032 L11.9968296,8.9032 L12.0776295,8.4352 C12.1360294,8.0968 12.1592293,7.6384 11.9336298,7.372 C11.7672301,7.1736 11.4616306,7.0736 11.0264315,7.0736 C9.01363521,7.0736 8.12163687,9.5952 7.93123722,10.9288 C7.80963745,11.7824 7.90083728,12.4128 8.19603673,12.752 C8.40083635,12.9888 8.71683576,13.104 9.16243493,13.104 C10.3968326,13.104 10.9600316,12.068 11.1856312,11.4504 L11.281631,11.1872 L15.8728224,11.1872 L15.7048227,11.7104 C15.1928237,13.3024 13.440827,17.0064 8.23123667,17.0064 C6.49123991,17.0064 5.16644238,16.496 4.294444,15.4896 C3.36404574,14.4184 3.01924638,12.8256 3.29604586,10.8856 C3.94564465,6.344 7.31283838,3.172 11.4864306,3.172 C13.3088272,3.172 14.7232246,3.6824 15.576023,4.648 C16.3912215,5.5704 16.7000209,6.884 16.4928213,8.552 Z M16.2608,0.1328 L3.328,0.1328 C1.4976,0.1328 0,1.6304 0,3.4608 L0,16.3936 C0,18.224 1.4976,19.7208 3.328,19.7208 L16.2608,19.7208 C18.0912,19.7208 19.5888,18.224 19.5888,16.3936 L19.5888,3.4608 C19.5888,1.6304 18.0912,0.1328 16.2608,0.1328 L16.2608,0.1328 Z" id="Fill-16" fill="#FFFFFE" mask="url(#mask-6)"></path>
                </g>
            </g>
            <g id="UPI-logo-white" transform="translate(1.000000, 130.000000)" fill="#FFFFFF">
                <g id="Group">
                    <g transform="translate(0.000000, 8.103900)" id="Shape">
                        <path d="M1.28832587,0.166258473 C1.97403957,0.166258473 2.45196124,0.187037709 2.74287009,0.187037709 C3.09611654,0.187037709 3.55325901,0.187037709 4.15585589,0.166258473 L3.61559662,2.82600072 C3.5117006,3.32470239 3.42858379,3.80262482 3.34546698,4.23898878 C3.26235016,4.67535274 3.22079176,4.98704129 3.20001255,5.15327518 C3.15845415,5.46496372 3.15845415,5.73509379 3.17923335,5.94288616 C3.20001255,6.15067852 3.26235016,6.33769165 3.36624618,6.4831463 C3.47014219,6.62860095 3.63637582,6.73249714 3.84416785,6.81561408 C4.05195988,6.89873103 4.30131032,6.91951026 4.52988155,6.91951026 C4.73767358,6.91951026 4.94546561,6.89873103 5.13247844,6.83639332 C5.27793286,6.79483484 5.42338728,6.73249714 5.5480625,6.64938019 C5.65195852,6.56626325 5.75585453,6.4831463 5.83897134,6.37925012 C5.94286736,6.2545747 6.04676337,6.10912005 6.12988019,5.92210692 C6.212997,5.75587303 6.29611381,5.52730143 6.37923062,5.25717136 C6.46234743,4.98704129 6.58702265,4.3636642 6.77403548,3.3870401 C6.9402691,2.55587064 7.06494432,1.80781814 7.18961954,1.12210334 C7.29351556,0.45716778 7.37663237,0.1247 7.39741157,0.1247 L8.976631,0.1247 L10.3065,0.1247 L9.41299427,4.57145656 C9.39221507,4.65457351 9.39221507,4.71691122 9.37143586,4.77924893 C9.24676064,5.65197685 9.10130622,6.2545747 8.976631,6.60782172 C8.83117658,6.96106874 8.64416376,7.27275728 8.39481332,7.54288735 C8.14546288,7.81301742 7.79221643,8.04158902 7.33507396,8.24938138 C6.8779315,8.45717375 6.37923062,8.6026284 5.83897134,8.70652458 C5.29871206,8.78964153 4.73767358,8.8312 4.1974143,8.8312 C3.69871343,8.8312 3.24157096,8.78964153 2.78442849,8.72730382 C2.36884443,8.66496611 1.99481878,8.56106993 1.68313073,8.43639451 C1.35066348,8.31171909 1.08053384,8.16626444 0.851962609,7.97925131 C0.644170578,7.81301742 0.477936954,7.66756277 0.394820141,7.50132888 C0.290924126,7.33509499 0.228586517,7.14808186 0.187028111,6.91951026 C0.145469705,6.67015943 0.145469705,6.37925012 0.166248908,6.08834081 C0.187028111,5.98444463 0.207807314,5.83898998 0.228586517,5.63119761 C0.270144923,5.42340525 0.311703329,5.13249594 0.394820141,4.75846969 L0.602612172,3.76106635 C0.664949781,3.49093628 0.72728739,3.11691002 0.831183406,2.59742912 L1.28832587,0.166258473 Z"></path>
                        <path d="M9.9325,6.2546 C10.0571742,5.6519869 10.1610694,5.07015357 10.2441855,4.5091 C10.8675565,4.52987976 11.4493694,4.52987976 12.0104032,4.52987976 C12.5714371,4.52987976 13.174029,4.52987976 13.7974,4.5091 C13.6727258,5.04937381 13.5688306,5.63120714 13.4857145,6.2546 C12.8623435,6.23382024 12.2805306,6.23382024 11.7194968,6.23382024 C11.1584629,6.23382024 10.555871,6.23382024 9.9325,6.2546 Z"></path>
                        <path d="M13.9429,8.7065 L14.2753664,7.10650728 L14.8364034,3.96885922 L15.1896489,1.74549272 C15.2312072,1.51692233 15.2519864,1.26757282 15.2935447,1.03900243 C15.3143238,0.851990291 15.3558821,0.561082524 15.3974404,0.166279126 C15.9792566,0.187058252 16.4363979,0.187058252 16.7896434,0.187058252 C17.1221098,0.187058252 17.6000302,0.187058252 18.1818464,0.166279126 C18.7636626,0.1455 19.2831413,0.1455 19.6779451,0.1455 C20.2597613,0.1455 20.6961235,0.187058252 20.9662524,0.249395631 C21.2363813,0.31173301 21.4857311,0.436407767 21.6935226,0.58186165 C21.9013141,0.727315534 22.0675473,0.91432767 22.1922222,1.12211893 C22.3168971,1.32991019 22.4000137,1.55848058 22.441572,1.82860922 C22.4831303,2.09873786 22.4831303,2.34808738 22.4623511,2.61821602 C22.4000137,3.17925243 22.1922222,3.67795146 21.8389767,4.15587136 C21.4857311,4.61301214 21.049369,4.96625728 20.5091111,5.19482767 C19.9688532,5.42339806 19.3662579,5.54807282 18.7221043,5.54807282 C18.4935337,5.54807282 18.2234047,5.52729369 17.9117175,5.46495631 C17.8909383,5.27794417 17.8701592,4.98703641 17.8286009,4.61301214 C17.7870426,4.23898786 17.7454843,3.9480801 17.703926,3.76106796 C17.8909383,3.80262621 18.0987298,3.82340534 18.3065213,3.82340534 C18.7428834,3.82340534 19.096129,3.71950971 19.3454788,3.51171845 C19.5948286,3.30392718 19.7195034,3.05457767 19.7610617,2.7636699 C19.7818409,2.61821602 19.7610617,2.49354126 19.7402826,2.38964563 C19.6987243,2.28575 19.6363869,2.18185437 19.5532703,2.11951699 C19.4493745,2.05717961 19.3454788,1.99484223 19.2208039,1.97406311 C19.096129,1.95328398 18.9506749,1.93250485 18.7844417,1.93250485 C18.6182085,1.93250485 18.4519754,1.93250485 18.2857422,1.95328398 L17.7247051,1.99484223 C17.5584719,2.80522816 17.4130179,3.69873058 17.2467847,4.67534951 C16.9558766,6.46235437 16.7896434,7.54286893 16.7480851,7.89611408 L16.6441894,8.7065 L15.335103,8.68572087 C15.1273115,8.68572087 14.6701702,8.68572087 13.9429,8.7065 Z"></path>
                        <path d="M29.8389865,8.70656508 C29.340286,8.70656508 28.9247023,8.68578571 28.5922354,8.68578571 C28.1766517,8.68578571 27.761068,8.68578571 27.3454843,8.70656508 L27.4493802,7.85461111 C27.2623675,8.0416254 27.1169133,8.18708095 26.9922381,8.27019841 C26.867563,8.37409524 26.7428879,8.43643333 26.5974336,8.51955079 C26.4519793,8.60266825 26.306525,8.64422698 26.1402916,8.70656508 C25.9740581,8.76890317 25.7870454,8.78968254 25.5792536,8.83124127 C25.3714617,8.85202063 25.1428907,8.8728 24.9350988,8.8728 C24.5818527,8.8728 24.2701649,8.83124127 23.9584772,8.74812381 C23.6675686,8.66500635 23.3974392,8.54033016 23.1896473,8.35331587 C22.9818555,8.16630159 22.8364012,7.95850794 22.7948428,7.72993492 C22.7325053,7.5013619 22.7325053,7.23123016 22.7740636,6.91953968 C22.7740636,6.83642222 22.7948428,6.7325254 22.8364012,6.56629048 L23.1273098,5.15329365 C23.2312057,4.63380952 23.3351016,4.0519873 23.4389975,3.42860635 C23.5013351,3.03379841 23.5636726,2.68054921 23.605231,2.3273 C24.1454898,2.3273 24.6026319,2.34807937 24.9974364,2.34807937 C25.3922409,2.34807937 25.8078246,2.34807937 26.2857459,2.3273 L25.7870454,4.71692698 C25.7039287,5.07017619 25.6623703,5.31952857 25.6415911,5.46498413 C25.6208119,5.58966032 25.6208119,5.69355714 25.6000328,5.73511587 C25.5376952,6.17148254 25.6000328,6.46239365 25.7662662,6.62862857 C25.9324997,6.77408413 26.1402916,6.85720159 26.410421,6.85720159 C26.5143169,6.85720159 26.6182128,6.83642222 26.7428879,6.81564286 C26.8467839,6.79486349 26.9506798,6.75330476 27.0545757,6.69096667 C27.1376924,6.64940794 27.2208092,6.58706984 27.3039259,6.50395238 C27.3870427,6.42083492 27.4701594,6.33771746 27.532497,6.21304127 C27.6156137,6.06758571 27.6987304,5.92213016 27.7402888,5.7766746 C27.8234055,5.54810159 27.8857431,5.27796984 27.9688598,4.9455 C28.0104182,4.69614762 28.0935349,4.28056032 28.1974309,3.67795873 L28.4052227,2.36885873 C28.9662607,2.36885873 29.444182,2.3896381 29.7974281,2.3896381 C30.2130118,2.3896381 30.6078163,2.3896381 31.0234,2.36885873 C30.794829,3.42860635 30.5870371,4.42601587 30.4000245,5.38186667 C30.2130118,6.29615873 30.0259991,7.41824444 29.8389865,8.70656508 Z"></path>
                        <path d="M31.3143,8.7065 L31.6052118,7.35584428 L32.4571676,2.68049757 L32.8519765,0.1662 C33.4545794,0.1662 33.9117265,0.186979319 34.2234176,0.186979319 C34.6182265,0.186979319 35.0753735,0.186979319 35.5533,0.1662 L35.1584912,2.07789732 L34.3065353,6.815582 L34.0156235,8.7065 L32.7480794,8.7065 L31.3143,8.7065 L31.3143,8.7065 Z"></path>
                        <path d="M35.4909,8.7065 L35.7818118,7.35584428 L36.6337676,2.68049757 L37.0285765,0.1662 C37.6311794,0.1662 38.0883265,0.186979319 38.4000176,0.186979319 C38.7948265,0.186979319 39.2519735,0.186979319 39.7299,0.1662 L39.3350912,2.07789732 L38.4831353,6.815582 L38.1922235,8.7065 L36.9246794,8.7065 L35.4909,8.7065 L35.4909,8.7065 Z"></path>
                        <path d="M39.3974,6.2546 C39.5220742,5.6519869 39.6259694,5.07015357 39.7090855,4.5091 C40.3324565,4.52987976 40.9142694,4.52987976 41.4753032,4.52987976 C42.0363371,4.52987976 42.638929,4.52987976 43.2623,4.5091 C43.1376258,5.04937381 43.0337306,5.63120714 42.9506145,6.2546 C42.3272435,6.23382024 41.7454306,6.23382024 41.1843968,6.23382024 C40.6233629,6.23382024 40.020771,6.23382024 39.3974,6.2546 Z"></path>
                        <path d="M43.387,8.7065 C44.0727151,5.36102968 44.5090792,2.78439416 44.7376509,0.976593431 L44.8415472,0.1662 C45.6103792,0.1662 46.1298604,0.186979319 46.3792113,0.186979319 C46.5038868,0.186979319 46.9610302,0.186979319 47.7922,0.1662 C47.5844075,1.10126934 47.4181736,1.99478005 47.2727189,2.8259528 C47.0649264,3.98959465 46.8779132,5.09089854 46.7324585,6.10908516 C46.5870038,7.12727178 46.4623283,8.00000316 46.3584321,8.7065 L45.0077811,8.68572068 C44.7584302,8.68572068 44.2181698,8.68572068 43.387,8.7065 Z"></path>
                        <path d="M53.049307,6.85718287 C52.9246326,7.21043174 52.8207372,7.54290126 52.7168419,7.87537078 L52.467493,8.64420655 C52.0311326,8.72732393 51.6778884,8.78966196 51.4285395,8.81044131 C51.1791907,8.83122065 50.9506209,8.852 50.7220512,8.852 C50.3480279,8.852 50.0155628,8.83122065 49.7454349,8.76888262 C49.4545279,8.70654458 49.2259581,8.60264786 49.0597256,8.4364131 C48.893493,8.27017834 48.7688186,8.08316423 48.7272605,7.87537078 C48.6857023,7.66757733 48.6857023,7.43900453 48.7064814,7.21043174 C48.7064814,7.16887305 48.7272605,7.08575567 48.7480395,6.98185894 C48.7688186,6.87796222 48.8103767,6.62861008 48.893493,6.27536121 L49.3090744,4.11430932 L48.2909,4.11430932 C48.3532372,3.82339849 48.4155744,3.44937028 48.4986907,2.97144534 L48.581807,2.38962368 L49.6830977,2.38962368 C49.7246558,2.20260957 49.8285512,1.78702267 49.9324465,1.12208363 L51.0960744,0.893510831 C51.3038651,0.851952141 51.7610047,0.768834761 52.446714,0.6026 C52.3428186,1.14286297 52.2597023,1.74546398 52.155807,2.36884433 L53.6519,2.36884433 C53.5064465,3.24157683 53.4233302,3.80261914 53.3817721,4.09352997 L51.8649,4.09352997 L51.5947721,5.65198086 C51.553214,5.88055365 51.5324349,6.02600907 51.5324349,6.10912645 C51.5116558,6.3169199 51.5116558,6.48315466 51.5324349,6.60783073 C51.553214,6.7325068 51.6363302,6.83640353 51.7402256,6.89874156 C51.8441209,6.9610796 51.9687953,6.98185894 52.1142488,6.98185894 C52.2181442,6.98185894 52.3220395,6.98185894 52.446714,6.9610796 C52.5298302,6.98185894 52.7376209,6.94030025 53.049307,6.85718287 Z"></path>
                    </g>
                    <g transform="translate(61.298700, 0.000000)" id="Shape">
                        <path d="M0.39484173,7.7298672 L1.32991363,8.2701264 L0.893546744,8.9973984 C0.893546744,8.9973984 0.810429242,9.1220736 0.789649866,9.163632 C0.76887049,9.2051904 0.561076735,9.5584368 0.498738608,9.683112 C0.436400482,9.8077872 0.374062355,9.9532416 0.332503604,10.0779168 C0.249386102,10.3480464 0.187047975,10.6389552 0.20782735,10.929864 C0.20782735,11.1584352 0.249386102,11.4077856 0.353282979,11.6155776 C0.39484173,11.6779152 0.436400482,11.7402528 0.477959233,11.7818112 C0.519517984,11.8441488 0.561076735,11.8857072 0.623414862,11.9272656 C0.727311739,12.0103824 0.831208617,12.0934992 0.955884871,12.176616 C1.08056112,12.2597328 1.20523738,12.3220704 1.32991363,12.384408 C1.45458988,12.4259664 1.55848676,12.4675248 1.68316302,12.5090832 C1.82861864,12.5298624 1.97407427,12.5506416 2.09875053,12.5714208 C2.24420616,12.5922 2.36888241,12.5922 2.51433804,12.5922 L3.30395431,12.5922 L3.53252744,12.5922 L4.8416281,10.306488 L5.7767,10.8467472 L4.21824683,7.3974 L0.39484173,7.7298672 L0.39484173,7.7298672 Z"></path>
                        <path d="M9.41292086,12.8000282 L9.41292086,12.8000282 L9.41292086,12.8000282 C9.39214172,12.8208073 4.42592766,12.8208073 4.32203197,12.8208073 L3.28307506,12.8208073 C3.01294626,12.8208073 2.74281746,12.8208073 2.47268866,12.8000282 C2.34801383,12.8000282 2.223339,12.779249 2.09866417,12.779249 C1.97398934,12.7584699 1.82853537,12.7376907 1.70386054,12.7169116 C1.43373175,12.6545741 1.18438209,12.5298992 0.955811565,12.363666 C0.851915873,12.2805494 0.748020181,12.1974328 0.64412449,12.1143162 C0.540228798,12.0104205 0.457112245,11.9065247 0.39477483,11.7818498 C0.353216553,11.6987332 0.311658277,11.6363958 0.290879138,11.5532792 C0.290879138,11.5532792 0.290879138,11.5325 0.2701,11.5325 C0.311658277,11.6363958 0.373995692,11.7402915 0.415553968,11.8649664 C0.914253288,12.8000282 1.93243107,14.5454768 2.63892177,15.7091093 C2.70125918,15.813005 2.7635966,15.8961216 2.82593401,16.0000174 C2.88827143,16.083134 2.97138798,16.1870297 3.0337254,16.2493672 C3.22073764,16.4363795 3.44930816,16.5818336 3.69865782,16.6857293 C3.96878662,16.7896251 4.23891542,16.8727417 4.52982336,16.8935208 C4.67527732,16.9143 4.84151043,16.9143 4.9869644,16.9143 L5.44410544,16.9143 L9.4337,16.8935208 L9.4337,12.8000282 L9.41292086,12.8000282 L9.41292086,12.8000282 Z"></path>
                        <g transform="translate(10.389600, 5.402600)">
                            <path d="M4.84153478,7.2104 L4.84153478,7.2104 L5.48569197,7.2104 C5.69348462,7.2104 5.88049799,7.2104 6.08829064,7.18962064 C6.23374548,7.16884128 6.37920033,7.16884128 6.52465518,7.12728256 C6.67011003,7.1065032 6.79478562,7.04416512 6.94024047,6.98182703 C7.06491605,6.91948895 7.18959164,6.85715087 7.31426722,6.77403343 C7.37660502,6.73247471 7.43894281,6.69091599 7.48050134,6.64935727 C7.54283913,6.60779855 7.58439766,6.56623983 7.64673545,6.50390174 C7.70907324,6.4207843 7.77141104,6.35844622 7.83374883,6.27532878 C7.89608662,6.19221134 7.95842441,6.08831453 7.99998294,5.98441773 C8.06232074,5.85974157 8.0831,5.71428605 8.0831,5.56883052 L8.0831,5.34025756 C8.0831,5.25714012 8.06232074,5.19480203 8.06232074,5.11168459 C8.02076221,4.82077355 7.93764515,4.55064186 7.83374883,4.30128953 C7.77141104,4.17661337 7.68829398,4.05193721 7.62595619,3.90648169 C7.54283913,3.78180552 7.48050134,3.63635 7.39738428,3.51167384 L7.39738428,3.51167384 C7.2103709,3.17920407 5.69348462,0.561004651 5.44413344,0.124638081 C5.42335418,0.0830793605 5.40257492,0.0623 5.40257492,0.0623 L1.8701,2.09867733 L4.84153478,7.2104 L4.84153478,7.2104 Z"></path>
                            <path d="M8.18706785,6.31689542 C8.12473011,6.42079085 8.06239238,6.54546536 7.9792754,6.6285817 C7.89615842,6.73247712 7.79226219,6.81559346 7.66758672,6.8987098 C7.56369049,6.98182614 7.43901502,7.0441634 7.31433955,7.10650065 C7.18966408,7.16883791 7.06498861,7.23117516 6.9195339,7.27273333 C6.77407918,7.3142915 6.62862447,7.33507059 6.48316975,7.35584967 C6.33771503,7.37662876 6.19226032,7.39740784 6.02602636,7.39740784 C5.71433768,7.41818693 5.42342825,7.41818693 5.11173957,7.41818693 L2.22342451,7.41818693 L2.22342451,7.39740784 L2.22342451,7.23117516 L2.22342451,6.31689542 L0.1455,9.43375817 L2.22342451,12.5714 L2.22342451,11.4908876 L3.80264713,11.4908876 C4.05199808,11.4701085 4.32212826,11.4285503 4.55069996,11.3662131 C4.82083014,11.2830967 5.07018108,11.1584222 5.29875278,10.9921895 C5.52732448,10.8051778 5.71433768,10.5766078 5.8597924,10.3272588 C6.56628673,9.16363007 7.58446974,7.41818693 8.08317162,6.4831281 C8.14550936,6.35845359 8.18706785,6.29611634 8.20784709,6.213 C8.24940558,6.213 8.22862634,6.25455817 8.18706785,6.31689542 Z"></path>
                        </g>
                        <g transform="translate(2.909100, 0.000000)">
                            <path d="M6.5871,2.61818756 L6.5871,2.61818756 L6.27540968,2.05715053 C6.1715129,1.89091733 6.06761613,1.70390499 5.94294,1.53767179 C5.85982258,1.4129969 5.77670516,1.288322 5.67280839,1.18442626 C5.56891161,1.08053051 5.46501484,0.976634762 5.36111806,0.893518164 C5.23644194,0.810401567 5.11176581,0.72728497 4.98708968,0.664947522 C4.92475161,0.623389223 4.86241355,0.602610074 4.77929613,0.581830924 C4.71695806,0.561051775 4.65462,0.519493476 4.57150258,0.519493476 C4.46760581,0.498714327 4.36370903,0.477935177 4.28059161,0.477935177 C4.17669484,0.457156028 4.05201871,0.477935177 3.94812194,0.477935177 C3.80266645,0.498714327 3.67799032,0.540272626 3.55331419,0.602610074 C3.49097613,0.644168372 3.42863806,0.664947522 3.3663,0.70650582 C3.30396194,0.748064119 3.24162387,0.789622418 3.17928581,0.831180716 C2.9507129,0.997413911 2.76369871,1.2052054 2.59746387,1.43377605 C2.51434645,1.55845094 2.43122903,1.68312584 2.36889097,1.80780074 C2.28577355,1.93247563 2.22343548,2.07792968 2.14031806,2.20260457 L2.14031806,2.20260457 C1.95330387,2.53507096 0.436410968,5.15324378 0.18705871,5.58960592 C0.166279355,5.63116421 0.1455,5.65194336 0.1455,5.65194336 L3.67799032,7.6883 L6.5871,2.61818756 L6.5871,2.61818756 Z"></path>
                            <path d="M4.13505488,0.166230986 C4.25973049,0.166230986 4.3844061,0.166230986 4.50908171,0.187010098 C4.63375732,0.207789209 4.7792122,0.270126544 4.9038878,0.311684767 C5.02856341,0.374022102 5.15323902,0.436359437 5.25713537,0.498696772 C5.38181098,0.581813218 5.48570732,0.664929664 5.58960366,0.748046111 C5.6935,0.851941669 5.79739634,0.955837227 5.88051341,1.0805119 C5.96363049,1.20518657 6.06752683,1.32986124 6.12986463,1.4545359 C6.29609878,1.70388524 6.44155366,1.97401369 6.58700854,2.22336303 L8.04155732,4.71685642 L8.02077805,4.71685642 L7.87532317,4.79997287 L7.08571098,5.25711333 L10.9506549,5.5688 L12.5091,2.11946748 L11.5740329,2.65972438 C11.4909159,2.53504971 10.8675378,1.41297768 10.7844207,1.28830301 C10.6389659,1.0805119 10.4727317,0.87272078 10.2857183,0.706487888 C10.0779256,0.519475883 9.84935366,0.35324299 9.60000244,0.249347432 C9.32987195,0.145451875 9.0389622,0.103893651 8.74805244,0.103893651 C7.3974,0.0623354282 5.36103171,0.0831145398 4.30128902,0.103893651 C4.15583415,0.103893651 4.09349634,0.124672763 3.9896,0.124672763 C4.03115854,0.166230986 4.07271707,0.166230986 4.13505488,0.166230986 Z"></path>
                        </g>
                    </g>
                </g>
            </g>
            <g id="DRIVE" transform="translate(1.000000, 155.000000)" fill="#FEFEFE">
                <path d="M83.8534191,6.20341889 L82.4891472,8.74987749 L84.1634809,8.74987749 L83.8534191,6.20341889 Z M83.8233249,4.99995349 L84.8000196,4.99995349 L85.7381086,10.9999535 L84.4300733,10.9999535 L84.2853778,9.76153014 L81.9477549,9.76153014 L81.3081765,10.9999535 L79.9998372,10.9999535 L83.1472686,5.40120995 C83.3074672,5.13370564 83.532414,4.99995349 83.8233249,4.99995349 Z" id="Fill-32"></path>
                <path d="M88.2133943,4.99995349 L87.456803,8.65434274 C87.3631919,9.10758655 87.3788925,9.442039 87.5044973,9.65710763 C87.6434328,9.86121546 87.9112318,9.96312126 88.3078942,9.96312126 C88.6930033,9.96312126 89.0031642,9.86121546 89.2380808,9.65710763 C89.4614441,9.45329604 89.6217087,9.11913982 89.7176898,8.65434274 L90.4742811,4.99995349 L91.6808575,4.99995349 L90.8964199,8.79031589 C90.7462273,9.51550597 90.4286604,10.0650271 89.9431267,10.4388791 C89.4913641,10.8130274 88.8751895,10.9999535 88.093418,10.9999535 C87.3113503,10.9999535 86.7721975,10.8130274 86.4756635,10.4388791 C86.1453584,10.0650271 86.0550059,9.51550597 86.2051984,8.79031589 L86.8560328,5.64575185 C86.8912851,5.47571136 86.9819339,5.32581505 87.1276829,5.19547042 C87.2734318,5.06542204 87.4316228,4.99995349 87.6016633,4.99995349 L88.2133943,4.99995349 Z" id="Fill-34"></path>
                <path d="M92.7577661,10.9999535 L93.7794501,6.06389107 L92.0005465,6.06389107 L92.0908292,5.62798064 C92.1270031,5.45349488 92.2188057,5.30515158 92.3659331,5.18325473 C92.5130604,5.0610539 92.674475,4.99995349 92.8486567,4.99995349 L96.9998372,4.99995349 L96.7794501,6.06389107 L95.0181775,6.06389107 L93.9961894,10.9999535 L92.7577661,10.9999535 Z" id="Fill-36"></path>
                <path d="M97.7176278,8.01656318 C97.5850391,8.65726416 97.6223026,9.14342275 97.8302848,9.47503894 C98.0353785,9.81763198 98.3921259,9.9889285 98.900527,9.9889285 C99.3976624,9.9889285 99.8251816,9.81763198 100.183662,9.47503894 C100.543876,9.12146906 100.788544,8.63559934 100.916511,8.01656318 C101.044767,7.39781589 101.002592,6.90588002 100.790855,6.5413333 C100.574496,6.19902912 100.217748,6.02744374 99.7203238,6.02744374 C99.2119227,6.02744374 98.7844036,6.19902912 98.4371887,6.5413333 C98.0899738,6.88392634 97.8502165,7.37586221 97.7176278,8.01656318 M96.5407947,8.01656318 C96.7328894,7.08844225 97.1280558,6.35357151 97.7265826,5.81223985 C98.357751,5.27090818 99.0934883,4.99995349 99.9329279,4.99995349 C100.76168,4.99995349 101.385338,5.27090818 101.803902,5.81223985 C102.186647,6.36483722 102.283128,7.09941909 102.093055,8.01656318 C101.903271,8.93399614 101.503772,9.66308959 100.894268,10.2044213 C100.276099,10.7347761 99.5418057,10.9999535 98.6911004,10.9999535 C97.8294182,10.9999535 97.2046048,10.7347761 96.8175267,10.2044213 C96.4408476,9.67377757 96.3486999,8.94468412 96.5407947,8.01656318" id="Fill-38"></path>
                <path d="M83.8534191,14.2034189 L82.4891472,16.7498775 L84.1634809,16.7498775 L83.8534191,14.2034189 Z M83.8233249,12.9999535 L84.8000196,12.9999535 L85.7381086,18.9999535 L84.4300733,18.9999535 L84.2853778,17.7615301 L81.9480589,17.7615301 L81.3084804,18.9999535 L79.9998372,18.9999535 L83.1475725,13.4012099 C83.3074672,13.1337056 83.532414,12.9999535 83.8233249,12.9999535 Z" id="Fill-40"></path>
                <path d="M88.2183902,12.9999535 L87.4620951,16.6543427 C87.3681878,17.1078828 87.3841846,17.4423352 87.5094932,17.6571076 C87.6484287,17.8612155 87.9162276,17.9631213 88.31289,17.9631213 C88.6979991,17.9631213 89.0081601,17.8612155 89.2433729,17.6571076 C89.4667362,17.453296 89.6267046,17.1194361 89.7229819,16.6543427 L90.4795732,12.9999535 L91.6858534,12.9999535 L90.9014158,16.7903159 C90.7512232,17.5158022 90.4336563,18.0650271 89.9484188,18.4391754 C89.4966562,18.8133237 88.8801854,18.9999535 88.0984139,18.9999535 C87.3163461,18.9999535 86.7774896,18.8133237 86.4809556,18.4391754 C86.1503542,18.0650271 86.0600017,17.5158022 86.2101943,16.7903159 L86.8610287,13.6457518 C86.896281,13.4757114 86.9869297,13.325815 87.132975,13.1954704 C87.2787239,13.065422 87.4366187,12.9999535 87.6069554,12.9999535 L88.2183902,12.9999535 Z" id="Fill-42"></path>
                <path d="M96.5940166,16.8949995 C96.4010552,17.557943 96.0451744,18.0776098 95.5257965,18.4531334 C94.996886,18.8176801 94.3622511,18.9999535 93.6221808,18.9999535 C92.7604987,18.9999535 92.1564835,18.7405534 91.8110018,18.2208865 C91.4608983,17.7237511 91.3866602,16.9888804 91.5877097,16.0165632 C91.7936699,15.0220035 92.1801703,14.2761559 92.7472109,13.7790205 C93.3298502,13.2596425 94.068765,12.9999535 94.9636666,12.9999535 C95.6930489,12.9999535 96.2352471,13.1822269 96.5908391,13.5470624 C96.9262105,13.9009212 97.0553328,14.3980566 96.9782061,15.0387576 L96.265289,15.0387576 C96.0001116,15.0387576 95.8363256,14.9226341 95.7739309,14.6906761 C95.7262683,14.5471106 95.658674,14.4200103 95.5711482,14.3093753 C95.3845418,14.1435672 95.1086764,14.0606631 94.7444186,14.0606631 C94.2360174,14.0606631 93.809076,14.2264712 93.4644609,14.5580874 C93.1308227,14.8894148 92.8971315,15.3758622 92.7645428,16.0165632 C92.6365759,16.6358882 92.6709508,17.1104922 92.8673785,17.4421084 C93.0505184,17.7844126 93.396289,17.9557091 93.9044012,17.9557091 C94.2579711,17.9557091 94.5693668,17.8673166 94.8380106,17.6905317 C95.0823898,17.5250125 95.286328,17.2598351 95.4504029,16.8949995 L96.5940166,16.8949995 Z" id="Fill-44"></path>
                <path d="M97.9981653,18.9999535 L99.0198494,14.0638911 L97.2406417,14.0638911 L97.3309245,13.6276767 C97.3670983,13.4531909 97.4592049,13.3051516 97.6063323,13.1829508 C97.7534597,13.0607499 97.9145702,12.9999535 98.088752,12.9999535 L102.239932,12.9999535 L102.019849,14.0638911 L100.258577,14.0638911 L99.2365887,18.9999535 L97.9981653,18.9999535 Z" id="Fill-46"></path>
                <path d="M101.404622,18.9999535 L102.516589,13.6276767 C102.552459,13.4531909 102.644262,13.3051516 102.791693,13.1829508 C102.939124,13.0607499 103.099931,12.9999535 103.274113,12.9999535 L103.884813,12.9999535 L102.643046,18.9999535 L101.404622,18.9999535 Z" id="Fill-48"></path>
                <path d="M104.973975,16.0165632 C104.841387,16.657553 104.87865,17.1434227 105.086632,17.4750389 C105.292015,17.817632 105.648474,17.9889285 106.156875,17.9889285 C106.65401,17.9889285 107.081818,17.817632 107.44001,17.4750389 C107.800512,17.1214691 108.044892,16.6358882 108.172858,16.0165632 C108.301403,15.3978159 108.25894,14.90588 108.047491,14.5413333 C107.830843,14.1990291 107.474096,14.0277326 106.97696,14.0277326 C106.468559,14.0277326 106.040751,14.1990291 105.693825,14.5413333 C105.34661,14.8839263 105.106853,15.3758622 104.973975,16.0165632 M103.797142,16.0165632 C103.989237,15.0884422 104.384692,14.3535715 104.98293,13.8122398 C105.614099,13.2709082 106.349836,12.9999535 107.189564,12.9999535 C108.018316,12.9999535 108.641685,13.2709082 109.06025,13.8122398 C109.442995,14.3648372 109.539475,15.0994191 109.349403,16.0165632 C109.159619,16.9339961 108.76012,17.6630896 108.150905,18.2044213 C107.532735,18.7347761 106.798153,18.9999535 105.947448,18.9999535 C105.085766,18.9999535 104.461241,18.7347761 104.073874,18.2044213 C103.697195,17.6737776 103.605048,16.9446841 103.797142,16.0165632" id="Fill-50"></path>
                <path d="M109.253516,18.9999535 L110.362281,13.6431462 C110.398047,13.4691629 110.489586,13.3215499 110.636592,13.1997009 C110.783599,13.0778519 110.945458,13.0114715 111.12126,12.9999535 L111.782639,12.9999535 L113.363948,17.1216004 L114.21689,12.9999535 L115.434774,12.9999535 L114.192642,18.9999535 L112.922624,18.9999535 L111.324039,14.8780035 L110.470793,18.9999535 L109.253516,18.9999535 Z" id="Fill-52"></path>
                <path d="M115.086704,17.0937381 L116.247072,17.0937381 C116.222518,17.4250654 116.301378,17.6573123 116.483941,17.789901 C116.672569,17.9447323 116.960567,18.021859 117.347645,18.021859 C117.689949,18.021859 117.962059,17.9614864 118.163975,17.8395857 C118.36618,17.7179738 118.491259,17.5411889 118.53921,17.3092308 C118.612293,16.9553721 118.174663,16.6685299 117.225744,16.4475487 L117.19628,16.4307946 L117.070624,16.3975752 C116.532181,16.2762522 116.182655,16.148863 116.022047,16.0165632 C115.826486,15.8949513 115.708051,15.7178775 115.668188,15.4862084 C115.598572,15.2871809 115.596261,15.0329803 115.6601,14.7236067 C115.772179,14.182275 116.048044,13.7567779 116.487985,13.4474043 C116.925036,13.1490075 117.502765,12.9999535 118.221459,12.9999535 C118.89538,12.9999535 119.382405,13.1547847 119.683401,13.4638695 C119.987864,13.8064626 120.094166,14.2539133 120.002019,14.8065107 L119.339075,14.8065107 C119.084586,14.8065107 118.926288,14.6903873 118.864182,14.4584292 C118.83183,14.3480831 118.774057,14.2539133 118.690575,14.1764977 C118.5213,14.033221 118.265367,13.961005 117.923062,13.961005 C117.591446,13.961005 117.34129,14.0219553 117.172593,14.1435672 C116.981654,14.265179 116.863219,14.4361867 116.817579,14.6571679 C116.755762,14.9555647 117.030183,15.1768347 117.641709,15.3201114 C117.817627,15.3758622 117.948771,15.4090816 118.035142,15.4197696 C118.220593,15.4862084 118.383512,15.5384928 118.524767,15.5772006 C118.666021,15.6161973 118.778101,15.6462392 118.86216,15.6681929 C119.003126,15.7346316 119.144092,15.8007816 119.285346,15.8672204 C119.478886,15.9998091 119.614363,16.1713944 119.692645,16.3811099 C119.766017,16.6130679 119.774394,16.8675574 119.71691,17.1434227 C119.593854,17.7399275 119.298634,18.2044213 118.832407,18.5357486 C118.370513,18.8448334 117.774875,18.9999535 117.045493,18.9999535 C116.294157,18.9999535 115.763513,18.8399227 115.454428,18.5192833 C115.112124,18.198644 114.989646,17.7237511 115.086704,17.0937381" id="Fill-54"></path>
                <path d="M13.7844186,9.32674419 C13.3902326,11.2744186 12.7506977,12.6413953 11.8781395,13.3944186 C10.9737209,14.1974419 9.69581395,14.6046512 8.08023256,14.6046512 L8.06,14.6046512 L5.60232558,14.5993023 L7.72348837,4.11860465 L10.8681395,4.12534884 C12.2672093,4.12813953 13.1602326,4.50395349 13.605814,5.28674419 C14.1016279,6.10395349 14.1616279,7.46302326 13.7844186,9.32674419 M17.8206977,2.39674419 C16.6169767,0.819767442 14.49,0.0172093023 11.4988372,0.0109302326 L6.16162791,0 L6.15488372,0 C5.50325581,0 4.89930233,0.219069767 4.36,0.651395349 C3.81674419,1.0872093 3.47627907,1.62953488 3.34813953,2.26325581 L0,18.8065116 L6.86930233,18.8209302 L6.95255814,18.8209302 C8.73325581,18.8209302 10.0604651,18.6995349 11.0030233,18.4516279 C11.9993023,18.2 12.9867442,17.7618605 13.9367442,17.1502326 C15.067907,16.425814 16.0855814,15.3660465 16.9697674,13.9872093 C17.7569767,12.6690698 18.3239535,11.1711628 18.6553488,9.53511628 C19.2818605,6.43906977 19.0039535,4.04116279 17.8206977,2.39674419" id="Fill-56"></path>
                <path d="M31.7405581,5.89516279 C31.6056744,6.56260465 31.3275349,7.03493023 30.8896279,7.33934884 C30.4377674,7.65423256 29.7756744,7.81376744 28.9212558,7.81376744 L28.9073023,7.81376744 L25.0475349,7.80562791 L25.7968372,4.10446512 L30.0740465,4.11353488 C30.7766047,4.11493023 31.2577674,4.26446512 31.5033488,4.55795349 L31.5375349,4.59469767 C31.795907,4.84748837 31.8640465,5.28469767 31.7405581,5.89516279 M33.9812558,17.1949302 C33.9954419,17.0195814 34.0103256,16.821907 34.053814,16.6086512 L34.1942791,15.9114419 L34.5163721,13.7853953 C34.7105581,12.4370233 34.6798605,11.4858605 34.4291628,10.8926047 C34.2793953,10.5021395 34.0242791,10.1670233 33.6670698,9.89004651 C34.2856744,9.5712093 34.8042791,9.16051163 35.2119535,8.66748837 C35.9198605,7.87934884 36.4005581,6.87748837 36.6412558,5.68934884 C37.0093953,3.87004651 36.7149767,2.44655814 35.7642791,1.45748837 C34.8542791,0.51655814 33.3542791,0.0567906977 31.1791628,0.0521395349 L24.1163721,0.0374883721 L24.1112558,0.0374883721 C23.4591628,0.0374883721 22.8549767,0.25655814 22.3152093,0.688883721 C21.7717209,1.12469767 21.4314884,1.66702326 21.3031163,2.30074419 L17.9549767,18.8442326 L22.8117209,18.8542326 L24.2152093,11.9195814 L27.8452093,11.9270233 C28.8852093,11.9293488 29.2763721,12.1451628 29.4219535,12.2923721 C29.5561395,12.5470233 29.673814,13.0730698 29.5335814,14.1365581 L29.2026512,16.0372558 C29.1549767,16.2726047 29.1117209,16.6663256 29.0726512,17.2221395 C29.023814,17.6709767 29.065907,18.1070233 29.1973023,18.518186 L29.3093953,18.8679535 L34.7007907,18.8812093 C34.7007907,18.8812093 33.912186,18.048186 33.9812558,17.1949302" id="Fill-58"></path>
                <path d="M42.4926279,0.0763255814 C41.8405349,0.0763255814 41.2363488,0.295395349 40.696814,0.727953488 C40.1533256,1.16353488 39.813093,1.70586047 39.6847209,2.33981395 L36.3363488,18.8830698 L41.193093,18.8930698 L45.0003023,0.0814418605 L42.4979767,0.0763255814 L42.4926279,0.0763255814 Z" id="Fill-60"></path>
                <path d="M60.589,0.114255814 L60.5806279,0.114255814 C59.3866744,0.114255814 58.5038837,0.677511628 58.0262093,1.7437907 L52.7894651,12.116814 L51.6662093,0.0954186047 L46.356907,0.0844883721 L49.3287674,18.9098372 L53.7222558,18.9193721 L64.1945814,0.121697674 L60.589,0.114255814 Z" id="Fill-62"></path>
                <path d="M78.7165116,4.2155814 L79.5383721,0.15372093 L67.3851163,0.128139535 L67.3797674,0.128139535 C66.7276744,0.128139535 66.1237209,0.34744186 65.5839535,0.78 C65.0406977,1.21581395 64.7004651,1.75790698 64.572093,2.39186047 L61.2237209,18.9351163 L75.7309302,18.9653488 L76.6055814,14.6448837 L66.9006977,14.6246512 L67.6181395,11.0786047 L72.4888372,11.0888372 L72.494186,11.0888372 C73.1467442,11.0888372 73.7506977,10.8695349 74.2897674,10.4372093 C74.8330233,10.002093 75.1737209,9.45976744 75.302093,8.82511628 L75.6653488,7.03162791 L68.4404651,7.01674419 L69.0118605,4.19534884 L78.7165116,4.2155814 Z" id="Fill-64"></path>
            </g>
        </g>
    </g>
</svg>