<?xml version="1.0" encoding="utf-8"?>
<!-- Generator: Adobe Illustrator 24.0.3, SVG Export Plug-In . SVG Version: 6.00 Build 0)  -->
<svg version="1.1" id="Layer_1" xmlns="http://www.w3.org/2000/svg" xmlns:xlink="http://www.w3.org/1999/xlink" x="0px" y="0px"
	 viewBox="0 0 226.2 38.3" style="enable-background:new 0 0 226.2 38.3;" xml:space="preserve">
<style type="text/css">
	.st0{fill:#FFFFFF;}
</style>
<g>
	<path class="st0" d="M19.5,15.9c0-3-0.3-4.3-2-4.3c-1.9,0-2.1,1.8-2.1,7.2c0,6.1,0.2,7.7,2.2,7.7c1.8,0,2-2,2-5.2h4.7V22
		c0,4.4-1.2,7.7-7.2,7.7c-6.2,0-6.7-4.6-6.7-10.8c0-5.3,0.3-10.5,7.1-10.5c4.2,0,6.6,1.8,6.6,6.7v0.9H19.5z"/>
	<path class="st0" d="M28.9,8.8h6L40,29.3h-5l-0.7-3.9h-4.9l-0.7,3.9h-5L28.9,8.8z M31.8,12.5L31.8,12.5L30,21.7h3.5L31.8,12.5z"/>
	<path class="st0" d="M61.6,8.8h4.8v7.7h3.8V8.8h4.8v20.5h-4.8v-8.8h-3.8v8.8h-4.8V8.8z"/>
	<path class="st0" d="M77.8,8.8H88v1.5h-8.3v7.5h7.8v1.5h-7.8v9.9h-1.8V8.8z"/>
	<path class="st0" d="M95.6,8.5c4.2,0,6.5,3.2,6.5,10.6c0,7.3-2.4,10.6-6.5,10.6c-4.2,0-6.5-3.2-6.5-10.6C89,11.7,91.4,8.5,95.6,8.5
		z M95.6,28.1c2.9,0,4.7-2.4,4.7-9c0-6.6-1.8-9-4.7-9c-2.9,0-4.7,2.4-4.7,9C90.9,25.7,92.7,28.1,95.6,28.1z"/>
	<path class="st0" d="M104.3,8.8h6.1c3.4,0,5.3,2,5.3,5.1c0,2.5-1,4.7-3.7,5.2v0.1c2.6,0.2,3.4,1.7,3.5,4.9l0.1,2.2
		c0,1.1,0.1,2.2,0.9,3h-2.2c-0.4-0.7-0.5-1.8-0.5-2.9l-0.1-1.7c-0.1-3.6-0.8-4.8-4.1-4.8h-3.5v9.4h-1.8V8.8z M106.2,18.4h3.2
		c2.9,0,4.6-1.3,4.6-4c0-2.5-1.1-4-4.4-4h-3.4V18.4z"/>
	<path class="st0" d="M126.4,15.9c0-3-0.3-4.3-2-4.3c-1.9,0-2.1,1.8-2.1,7.2c0,6.1,0.2,7.7,2.2,7.7c1.8,0,2-2,2-5.2h4.6V22
		c0,4.4-1.2,7.7-7.2,7.7c-6.2,0-6.7-4.6-6.7-10.8c0-5.3,0.3-10.5,7.1-10.5c4.2,0,6.6,1.8,6.6,6.7v0.9H126.4z"/>
	<path class="st0" d="M136.1,8.8h6l5.1,20.5h-5l-0.7-3.9h-4.9l-0.7,3.9h-5L136.1,8.8z M139.1,12.5L139.1,12.5l-1.8,9.1h3.5
		L139.1,12.5z"/>
	<path class="st0" d="M148.1,8.8h8.1c4.1,0,5.5,2.5,5.5,5.3c0,3-1.2,4.4-3.4,5v0.1c3.1,0.4,3.2,2.4,3.3,5.1c0.1,4,0.2,4.5,0.9,4.7
		v0.3h-5.2c-0.4-0.7-0.5-1.8-0.5-4.2c0-3.6-0.5-4.3-2-4.3h-1.8v8.5h-4.8V8.8z M152.9,17.4h1.5c2,0,2.5-1.5,2.5-2.7
		c0-1.6-0.6-2.6-2.5-2.6h-1.5V17.4z"/>
	<path class="st0" d="M167.4,23v0.7c0,1.6,0.4,2.7,2.1,2.7c1.7,0,2.2-1.3,2.2-2.4c0-4.4-8.8-2-8.8-9.6c0-3.3,1.7-6,6.7-6
		c4.8,0,6.5,2.4,6.5,5.6v0.5h-4.7c0-1-0.1-1.7-0.4-2.2c-0.3-0.5-0.7-0.7-1.5-0.7c-1.2,0-1.9,0.7-1.9,2.2c0,4.3,8.8,2.1,8.8,9.4
		c0,4.7-2.6,6.5-7,6.5c-3.5,0-6.7-1.1-6.7-5.3V23H167.4z"/>
	<path class="st0" d="M177,26.2h2.6v3H177V26.2z"/>
	<path class="st0" d="M192.2,22.3c-0.3,4.7-2.4,7.3-6.1,7.3c-4.2,0-6.5-3.2-6.5-10.6c0-7.3,2.4-10.6,6.5-10.6c4.2,0,5.9,3,5.9,6.3
		h-1.8c0-2.8-1.4-4.8-4.1-4.8c-2.9,0-4.7,2.4-4.7,9c0,6.6,1.8,9,4.7,9c2.6,0,4.1-2.2,4.3-5.7H192.2z"/>
	<path class="st0" d="M200.2,8.5c4.2,0,6.5,3.2,6.5,10.6c0,7.3-2.4,10.6-6.5,10.6c-4.2,0-6.5-3.2-6.5-10.6
		C193.7,11.7,196,8.5,200.2,8.5z M200.2,28.1c2.9,0,4.7-2.4,4.7-9c0-6.6-1.8-9-4.7-9c-2.9,0-4.7,2.4-4.7,9
		C195.5,25.7,197.3,28.1,200.2,28.1z"/>
	<path class="st0" d="M209,8.8h3.2l4.9,18.2h0.1l4.9-18.2h3v20.5h-1.8V10.5h-0.1L218,29.3h-1.7l-5.3-18.8h-0.1v18.8H209V8.8z"/>
	<path class="st0" d="M79.9,0.3H0.5V38h79.4v-6.4H53c4.2-1.8,7.6-6.5,7.6-12.5c0-6-3.5-10.7-7.6-12.5h26.8L79.9,0.3z M10.7,31.7
		c0-2.5-1.4-3.9-3.9-3.9c0,0,0-17.4,0-17.3c2.6,0,3.9-1.7,3.9-3.9c0,0,35.6,0,35.6,0c-4.2,1.8-7.2,6.5-7.2,12.5c0,6,3,10.7,7.2,12.5
		C46.3,31.7,10.7,31.7,10.7,31.7z M57.1,14.2v0.5h-5c0-0.9-0.1-1.6-0.4-2.1c-0.3-0.5-0.8-0.7-1.6-0.7c-1.3,0-2.1,0.7-2.1,2.1
		c0,4.3,9.5,2.2,9.5,9.4c0,4.3-2.3,6.2-6.3,6.5v2h-2.4v-2c-3.2-0.2-6-1.5-6-5.3v-1.4h5v0.7c0,1.5,0.5,2.7,2.2,2.7
		c1.8,0,2.3-1.2,2.3-2.3c0-4.4-9.5-2-9.5-9.7c0-3.1,1.6-5.7,6-6V6.5h2.4v2.1C55.5,8.9,57.1,11.2,57.1,14.2z"/>
</g>
</svg>
